<svg id="Layer_1" data-name="Layer 1" xmlns="http://www.w3.org/2000/svg" xmlns:xlink="http://www.w3.org/1999/xlink" viewBox="0 0 2144.59 1360"><defs><style>.cls-1,.cls-10,.cls-29{fill:#fff;}.cls-12,.cls-13,.cls-14,.cls-2,.cls-22,.cls-24,.cls-27,.cls-28,.cls-37,.cls-40,.cls-41,.cls-44,.cls-45,.cls-46,.cls-8{fill:none;}.cls-3{fill:#001a4b;fill-opacity:0.33;}.cls-29,.cls-4,.cls-47{fill-rule:evenodd;}.cls-4{fill:url(#linear-gradient);}.cls-5,.cls-6{fill:#1e2029;}.cls-6{opacity:0.6;}.cls-22,.cls-36,.cls-39,.cls-46,.cls-6{isolation:isolate;}.cls-7{clip-path:url(#clip-path);}.cls-8{stroke:#fe4c36;stroke-width:1.29px;}.cls-12,.cls-13,.cls-14,.cls-24,.cls-27,.cls-28,.cls-37,.cls-41,.cls-45,.cls-8{stroke-linejoin:round;}.cls-9{fill:#fe4c36;}.cls-10{fill-opacity:0.66;}.cls-11,.cls-26{fill:#f9c81b;}.cls-12,.cls-13,.cls-26,.cls-27{stroke:#f9c81b;}.cls-12{stroke-width:0.7px;}.cls-13{stroke-width:3.5px;}.cls-14,.cls-24,.cls-34,.cls-40,.cls-41,.cls-44,.cls-45{stroke:#0bad4b;}.cls-14{stroke-width:3px;}.cls-15{opacity:0.7;}.cls-16{fill:#3b3a40;}.cls-17{mask:url(#mask);}.cls-18,.cls-20,.cls-21{fill:#377dff;}.cls-18,.cls-32{stroke:#c7ead5;}.cls-18,.cls-20{stroke-width:11.02px;}.cls-19{mask:url(#mask-2);}.cls-20,.cls-28{stroke:#377dff;}.cls-22,.cls-46{stroke:#fff;}.cls-22{stroke-width:0.65px;}.cls-22,.cls-25,.cls-36,.cls-39,.cls-46{opacity:0.2;}.cls-23,.cls-32,.cls-34,.cls-39{fill:#0bad4b;}.cls-24{stroke-width:2.21px;}.cls-26{stroke-width:1.02px;}.cls-27{stroke-width:23.22px;}.cls-28{stroke-width:26.53px;}.cls-30{fill:#8e8c95;}.cls-31{mask:url(#mask-3);}.cls-32,.cls-34{stroke-width:17.78px;}.cls-33{mask:url(#mask-4);}.cls-35,.cls-36{fill:#c7d5ef;}.cls-37{stroke:#c7d5ef;stroke-width:1.82px;}.cls-37,.cls-41,.cls-45{stroke-linecap:round;}.cls-38{clip-path:url(#clip-path-2);}.cls-40,.cls-44{stroke-miterlimit:10;}.cls-40,.cls-41{stroke-width:2.36px;}.cls-42{opacity:0.4;}.cls-43{clip-path:url(#clip-path-3);}.cls-44,.cls-45{stroke-width:1.29px;}.cls-46{stroke-width:1.05px;}.cls-47{fill:#ffdc60;}</style><linearGradient id="linear-gradient" x1="-9.06" y1="895.16" x2="366.93" y2="309.26" gradientTransform="matrix(1, 0, 0, -1, 0, 897.28)" gradientUnits="userSpaceOnUse"><stop offset="0" stop-color="#8d8dec" stop-opacity="0.17"/><stop offset="1" stop-color="#5454d4" stop-opacity="0.01"/></linearGradient><clipPath id="clip-path" transform="translate(594.29 560.92)"><rect class="cls-2" x="1205.47" y="613.1" width="44.41" height="10.94"/></clipPath><mask id="mask" x="1846.23" y="1009.53" width="38.57" height="38.58" maskUnits="userSpaceOnUse"><g transform="translate(594.29 560.92)"><g id="path-200-inside-1"><path class="cls-1" d="M1261.56,458.09a13.63,13.63,0,1,1-1.06,1.16l10.73,8.65Z"/></g></g></mask><mask id="mask-2" x="1846.22" y="1009.49" width="38.58" height="38.62" maskUnits="userSpaceOnUse"><g transform="translate(594.29 560.92)"><g id="path-201-inside-2"><path class="cls-1" d="M1261.56,458.09a13.74,13.74,0,1,0,9.77-4l-.1,13.78Z"/></g></g></mask><mask id="mask-3" x="1513.27" y="1039.6" width="62.22" height="62.22" maskUnits="userSpaceOnUse"><g transform="translate(594.29 560.92)"><g id="path-240-inside-3"><path class="cls-1" d="M934.49,494a22.25,22.25,0,1,1-1.7,1.88l17.3,14Z"/></g></g></mask><mask id="mask-4" x="1513.27" y="1039.54" width="62.22" height="62.29" maskUnits="userSpaceOnUse"><g transform="translate(594.29 560.92)"><g id="path-241-inside-4"><path class="cls-1" d="M934.49,494a22.22,22.22,0,1,0,15.76-6.39l-.16,22.22Z"/></g></g></mask><clipPath id="clip-path-2" transform="translate(594.29 560.92)"><rect class="cls-2" x="1357.88" y="271.25" width="37.76" height="37.76"/></clipPath><clipPath id="clip-path-3" transform="translate(594.29 560.92)"><rect class="cls-2" x="1129.19" y="448.45" width="20.6" height="20.6"/></clipPath></defs><title>analyze-speed</title><circle class="cls-3" cx="1814.5" cy="1045.5" r="272.5"/><path class="cls-4" d="M30.71,689.08c345.17,0,625-279.82,625-625s-279.83-625-625-625-625,279.82-625,625S-314.47,689.08,30.71,689.08Z" transform="translate(594.29 560.92)"/><rect class="cls-5" x="1765" y="1091" width="121" height="111.99" rx="9.65"/><rect class="cls-6" x="1772.72" y="1110.31" width="106.84" height="98.47" rx="9.65"/><path class="cls-1" d="M1220.36,566.1a4.73,4.73,0,0,0-2.48.6l-.72,1.06.58-4H1225v-2.82h-10.26l-1.16,9.52H1217a2.28,2.28,0,0,1,2.36-1.65c1.6,0,2.53,1.18,2.53,2.88s-.91,2.87-2.6,2.87a2.14,2.14,0,0,1-2.27-2.06l0-.23h-3.64l0,.23c.34,3.29,2.43,4.75,6.11,4.75,3.2,0,6.21-2,6.21-5.68C1225.66,568.16,1223.65,566.1,1220.36,566.1Zm9.94,6.9a2.11,2.11,0,1,0,2.11,2.11A2,2,0,0,0,1230.3,573Zm14.52-12.09h-1.69a5.55,5.55,0,0,0-2.87.81l-3.82,2.22v3.31l4.75-2.55v12.19h3.63Z" transform="translate(594.29 560.92)"/><path class="cls-1" d="M1252.37,557.32c-1.12,0-1.86.53-1.86,1.4s.55,1.14,1.38,1.35,1.07.36,1.07.68-.25.41-.56.41a.77.77,0,0,1-.77-.64h-1.29c.11,1,.91,1.49,2.05,1.49s1.89-.44,1.89-1.36-.55-1.2-1.42-1.42-1-.37-1-.67a.41.41,0,0,1,.46-.41c.32,0,.52.21.59.58h1.3A1.64,1.64,0,0,0,1252.37,557.32Zm7.19,2.26a2.11,2.11,0,0,0-2.16-2.26,2.23,2.23,0,0,0-2.3,2.36,2.1,2.1,0,0,0,2.22,2.33,2,2,0,0,0,2.17-1.57h-1.3a.79.79,0,0,1-.84.67c-.5,0-.87-.26-.94-1.11h3.13C1259.55,559.84,1259.56,559.7,1259.56,559.58Zm-2.21-1.36c.48,0,.77.33.85.95h-1.76C1256.55,558.51,1256.88,558.22,1257.35,558.22Zm5.38-.9a2.21,2.21,0,0,0-2.28,2.38,2.09,2.09,0,0,0,2.17,2.31,2,2,0,0,0,2.2-1.7h-1.3a.86.86,0,0,1-.82.8c-.54,0-.9-.46-.9-1.49s.35-1.4.9-1.4.74.25.84.86h1.28A1.92,1.92,0,0,0,1262.73,557.32Z" transform="translate(594.29 560.92)"/><path class="cls-1" d="M1198.24,590.13v-.63H1193v.63h2.22v5.59h.77v-5.59Zm1.22-.76a.49.49,0,0,0-.49.5.48.48,0,0,0,.49.49.49.49,0,0,0,.5-.49A.5.5,0,0,0,1199.46,589.37Zm.39,6.35v-4.78h-.77v4.78Zm7.89-3.74a1.35,1.35,0,0,0-1.45-1.17,1.58,1.58,0,0,0-1,.28l-.43.62a1.35,1.35,0,0,0-1.38-.9,1.64,1.64,0,0,0-1,.28l-.3.54v-.69h-.78v4.78h.78v-2.36c0-1.45.44-1.93,1-1.93a.86.86,0,0,1,1,.8c0,.24,0,.5,0,.93v2.56h.78v-2.36c0-1.45.44-1.93,1-1.93a.86.86,0,0,1,1,.8,7.41,7.41,0,0,1,0,.93v2.56h.77V592.8A4.51,4.51,0,0,0,1207.74,592Zm5.45,1.21c0-1.39-.73-2.38-2-2.38a2.3,2.3,0,0,0-2.27,2.54c0,1.68.93,2.49,2.17,2.49a2,2,0,0,0,2.09-1.66h-.81a1.21,1.21,0,0,1-1.24,1.07c-.7,0-1.3-.43-1.37-1.69h3.46A2.93,2.93,0,0,0,1213.19,593.19Zm-2.06-1.78c.78,0,1.2.57,1.28,1.56h-2.69C1209.81,592,1210.37,591.41,1211.13,591.41Zm6.3.16h.89V591h-.89v-1.11h-.78V591H1216v.59h.64v2.79c0,.27,0,.46,0,.59,0,.6.35.84.95.84a3.63,3.63,0,0,0,.65,0v-.56c-.6.07-.79,0-.83-.49v-3.12Zm3.92-.76a2.52,2.52,0,1,0,2.37,2.52A2.29,2.29,0,0,0,1221.35,590.81Zm0,4.44c-1,0-1.52-.8-1.52-1.92s.56-1.92,1.52-1.92,1.52.79,1.52,1.92S1222.31,595.25,1221.35,595.25Zm6.6.47V589.5h-.78v6.22Zm5.55-3.51a1.51,1.51,0,0,0-1.7-1.4,1.81,1.81,0,0,0-1.24.4l-.3.55v-.82h-.78v4.78h.78v-2.1c0-1.63.63-2.19,1.38-2.19a1,1,0,0,1,1.09,1c0,.24,0,.44,0,.69v2.63h.77V593C1233.52,592.64,1233.52,592.45,1233.5,592.21Zm2.42-.64h.89V591h-.89v-1.11h-.77V591h-.64v.59h.64v2.79c0,.27,0,.46,0,.59,0,.6.35.84.94.84a3.74,3.74,0,0,0,.66,0v-.56c-.6.07-.79,0-.83-.49,0-.13,0-.21,0-.37Zm5.87,1.62c0-1.39-.73-2.38-2-2.38a2.3,2.3,0,0,0-2.27,2.54c0,1.68.92,2.49,2.17,2.49a2,2,0,0,0,2.08-1.66h-.81a1.21,1.21,0,0,1-1.24,1.07c-.7,0-1.29-.43-1.37-1.69h3.46A2.93,2.93,0,0,0,1241.79,593.19Zm-2.06-1.78c.78,0,1.21.57,1.28,1.56h-2.69C1238.41,592,1239,591.41,1239.73,591.41Zm5.13-.58a1.22,1.22,0,0,0-.67.22l-.43.64v-.75H1243v4.78h.77V593c0-1.09.62-1.57,1.43-1.52v-.58A.67.67,0,0,0,1244.86,590.83Zm4,4.89h.77a8.62,8.62,0,0,1-.09-1.22v-1.79c0-.21,0-.44,0-.63-.08-.79-.56-1.27-1.7-1.27a1.67,1.67,0,0,0-1.83,1.61h.81c0-.66.37-1,1-1s.9.29.93.73a5.34,5.34,0,0,1,0,.58v.12h-.31c-1.87,0-2.68.56-2.68,1.64a1.36,1.36,0,0,0,1.54,1.36,2.12,2.12,0,0,0,1.2-.29l.26-.52Zm-1.28-.47c-.59,0-.95-.25-.95-.83,0-.82.82-1.1,2.14-1v.49C1248.78,594.77,1248.31,595.25,1247.59,595.25Zm5.34-4.44a2.29,2.29,0,0,0-2.24,2.53c0,1.75.92,2.5,2.13,2.5a2,2,0,0,0,2.09-1.65h-.81a1.22,1.22,0,0,1-1.24,1.06c-.71,0-1.32-.58-1.32-2s.63-1.87,1.38-1.87,1,.37,1.22,1.13h.81A1.9,1.9,0,0,0,1252.93,590.81Zm4,.76h.89V591H1257v-1.11h-.77V591h-.64v.59h.64v2.79c0,.27,0,.46,0,.59,0,.6.35.84.94.84a3.67,3.67,0,0,0,.66,0v-.56c-.6.07-.79,0-.83-.49,0-.13,0-.21,0-.37Zm2.46-2.2a.5.5,0,0,0-.5.5.49.49,0,0,0,.5.49.48.48,0,0,0,.49-.49A.49.49,0,0,0,1259.41,589.37Zm.38,6.35v-4.78H1259v4.78Zm5.45-4.78h-.82l-1.43,4.21-1.46-4.21h-.85l1.81,4.78h.94Zm4.74,2.25c0-1.39-.73-2.38-2-2.38a2.3,2.3,0,0,0-2.28,2.54c0,1.68.93,2.49,2.18,2.49a2,2,0,0,0,2.08-1.66h-.81a1.21,1.21,0,0,1-1.24,1.07c-.7,0-1.3-.43-1.37-1.69H1270A2.93,2.93,0,0,0,1270,593.19Zm-2.06-1.78c.78,0,1.2.57,1.28,1.56h-2.69C1266.6,592,1267.16,591.41,1267.92,591.41Z" transform="translate(594.29 560.92)"/><g class="cls-7"><path class="cls-8" d="M1209.33,611.89l3.22,3.81,3.21-3.81" transform="translate(594.29 560.92)"/><path class="cls-8" d="M1212.55,615.32v-6.1" transform="translate(594.29 560.92)"/></g><path class="cls-9" d="M1223.52,610.86H1223a1.49,1.49,0,0,0-.83.24l-1.37.83v1l1.76-1v5.18h1Zm5.5,2.93a1.43,1.43,0,0,0,1-1.36c0-1-.78-1.69-2.07-1.69s-2.07.66-2.07,1.69a1.4,1.4,0,0,0,.95,1.36,1.66,1.66,0,0,0-1.23,1.54c0,1.36,1,1.88,2.29,1.88s2.3-.52,2.3-1.88A1.63,1.63,0,0,0,1229,613.79Zm-1-2.3a.94.94,0,0,1,1,1,1,1,0,0,1-1,1,1,1,0,1,1,0-2Zm0,5a1.13,1.13,0,1,1,0-2.24,1.08,1.08,0,0,1,1.21,1.12A1.05,1.05,0,0,1,1227.93,616.46Zm5.56-5.72c-1.73,0-2.33,1.35-2.33,3.23s.6,3.23,2.33,3.23,2.32-1.36,2.32-3.23S1235.23,610.74,1233.49,610.74Zm0,5.71c-.88,0-1.25-.89-1.25-2.48s.37-2.48,1.25-2.48,1.25.87,1.25,2.48S1234.38,616.45,1233.49,616.45Zm3.88-.56a.66.66,0,1,0,.65.66A.63.63,0,0,0,1237.37,615.89Zm4-5.15c-1.73,0-2.32,1.35-2.32,3.23s.59,3.23,2.32,3.23,2.33-1.36,2.33-3.23S1243.07,610.74,1241.33,610.74Zm0,5.71c-.88,0-1.25-.89-1.25-2.48s.37-2.48,1.25-2.48,1.26.87,1.26,2.48S1242.23,616.45,1241.33,616.45Zm6.58-2.67a1.45,1.45,0,0,0,1.13-1.45c0-.92-.71-1.59-2-1.59a2,2,0,0,0-2.23,1.86v.09h1v-.09a1.11,1.11,0,0,1,1.14-1.11.92.92,0,0,1,1,1,1.11,1.11,0,0,1-1.22,1.11h-.18v.73h.18c.92,0,1.36.39,1.36,1.08a1.08,1.08,0,0,1-1.21,1.08,1.22,1.22,0,0,1-1.31-1.16v-.09h-1v.09a2,2,0,0,0,2.26,1.91c1.3,0,2.32-.72,2.32-1.88A1.49,1.49,0,0,0,1247.91,613.78Zm3.59-3a1.46,1.46,0,1,0,1.36,1.45A1.31,1.31,0,0,0,1251.5,610.76Zm.1,6.32,4-6.22h-.87l-4,6.22Zm-.1-5.72c.34,0,.55.29.55.85s-.21.87-.55.87-.55-.31-.55-.87S1251.16,611.36,1251.5,611.36Zm3.35,2.93a1.46,1.46,0,1,0,1.36,1.45A1.31,1.31,0,0,0,1254.85,614.29Zm0,.6c.34,0,.55.3.55.85s-.21.87-.55.87-.55-.31-.55-.87S1254.51,614.89,1254.85,614.89Z" transform="translate(594.29 560.92)"/><rect class="cls-5" x="1506" y="1205" width="66" height="61.09" rx="5.27"/><rect class="cls-6" x="1510.21" y="1215.53" width="58.28" height="53.71" rx="5.27"/><path class="cls-10" d="M938.78,663.18a2.6,2.6,0,0,0-1.35.33l-.39.58.32-2.2h4v-1.54h-5.59l-.64,5.19h1.84a1.25,1.25,0,0,1,1.29-.9,1.58,1.58,0,0,1,0,3.14,1.16,1.16,0,0,1-1.24-1.13v-.12h-2v.12c.19,1.8,1.33,2.6,3.34,2.6a3.13,3.13,0,0,0,3.39-3.1A2.71,2.71,0,0,0,938.78,663.18Zm5.43,3.77a1.1,1.1,0,0,0-1.15,1.15,1.15,1.15,0,1,0,2.3,0A1.09,1.09,0,0,0,944.21,667Zm7.92-6.6h-.92a3.08,3.08,0,0,0-1.57.44L947.55,662v1.81l2.6-1.39v6.65h2Z" transform="translate(594.29 560.92)"/><path class="cls-1" d="M956.25,658.57c-.61,0-1,.29-1,.77s.3.62.76.73.58.2.58.37-.14.23-.31.23a.41.41,0,0,1-.41-.35h-.71c.06.55.5.81,1.12.81s1-.24,1-.74-.3-.65-.77-.77-.57-.2-.57-.37a.22.22,0,0,1,.25-.22c.18,0,.28.11.33.31h.7A.89.89,0,0,0,956.25,658.57Zm3.92,1.24a1.15,1.15,0,0,0-1.18-1.24,1.22,1.22,0,0,0-1.26,1.29,1.15,1.15,0,0,0,1.22,1.27,1.11,1.11,0,0,0,1.18-.86h-.71a.43.43,0,0,1-.46.37c-.27,0-.47-.14-.51-.6h1.71A2,2,0,0,0,960.17,659.81Zm-1.21-.75c.27,0,.43.18.47.53h-1C958.53,659.22,958.71,659.06,959,659.06Zm2.94-.49a1.21,1.21,0,0,0-1.25,1.3,1.14,1.14,0,0,0,1.19,1.26,1.09,1.09,0,0,0,1.2-.92h-.71a.46.46,0,0,1-.44.43c-.3,0-.5-.25-.5-.81s.19-.77.5-.77.4.14.45.47h.7A1,1,0,0,0,961.9,658.57Z" transform="translate(594.29 560.92)"/><path class="cls-1" d="M926.72,676.92v-.34h-2.84v.34h1.21V680h.42v-3.05Zm.67-.41a.27.27,0,1,0,.27.27A.27.27,0,0,0,927.39,676.51Zm.21,3.46v-2.6h-.42V680Zm4.31-2a.74.74,0,0,0-.8-.63.85.85,0,0,0-.55.15l-.23.33a.74.74,0,0,0-.75-.48.84.84,0,0,0-.55.15l-.17.3v-.38h-.42V680h.42v-1.29c0-.79.24-1,.57-1a.46.46,0,0,1,.52.44,3.56,3.56,0,0,1,0,.51V680h.43v-1.29c0-.79.24-1,.57-1a.48.48,0,0,1,.52.44c0,.13,0,.28,0,.51V680h.42v-1.59A2.9,2.9,0,0,0,931.91,677.93Zm3,.67c0-.77-.4-1.3-1.12-1.3a1.25,1.25,0,0,0-1.24,1.38c0,.92.51,1.36,1.19,1.36a1.06,1.06,0,0,0,1.13-.91h-.44a.66.66,0,0,1-.67.59c-.39,0-.71-.23-.75-.92h1.89A1.82,1.82,0,0,0,934.88,678.6Zm-1.13-1c.43,0,.66.31.7.85H933C933,677.92,933.34,677.62,933.75,677.62Zm3.44.09h.48v-.32h-.48v-.61h-.43v.61h-.35v.32h.35v1.52a2.55,2.55,0,0,0,0,.32c0,.33.19.46.51.46a2.17,2.17,0,0,0,.36,0v-.31c-.33,0-.43,0-.45-.27v-1.7Zm2.14-.41a1.37,1.37,0,1,0,1.29,1.37A1.25,1.25,0,0,0,939.33,677.3Zm0,2.42c-.53,0-.83-.44-.83-1.05s.3-1,.83-1,.83.44.83,1S939.85,679.72,939.33,679.72Zm3.6.25v-3.39h-.43V680Zm3-1.91a.82.82,0,0,0-.93-.76,1,1,0,0,0-.68.21l-.16.3v-.44h-.43V680h.43v-1.14c0-.89.34-1.2.75-1.2a.53.53,0,0,1,.59.53c0,.14,0,.24,0,.38V680H946v-1.46C946,678.3,946,678.19,946,678.06Zm1.32-.35h.48v-.32h-.48v-.61h-.43v.61h-.35v.32h.35v1.52a2.55,2.55,0,0,0,0,.32c0,.33.19.46.51.46a2.17,2.17,0,0,0,.36,0v-.31c-.33,0-.43,0-.45-.27v-1.7Zm3.2.89c0-.77-.4-1.3-1.12-1.3a1.25,1.25,0,0,0-1.24,1.38c0,.92.51,1.36,1.19,1.36a1.06,1.06,0,0,0,1.13-.91H950a.65.65,0,0,1-.67.59c-.39,0-.71-.23-.75-.92h1.89A1.82,1.82,0,0,0,950.48,678.6Zm-1.13-1c.43,0,.66.31.7.85h-1.46C948.63,677.92,948.94,677.62,949.35,677.62Zm2.8-.31a.62.62,0,0,0-.36.12l-.24.35v-.41h-.42V680h.42v-1.48c0-.6.34-.86.78-.83v-.32A.48.48,0,0,0,952.15,677.31Zm2.19,2.66h.42a4.37,4.37,0,0,1,0-.66v-1c0-.11,0-.24,0-.34-.05-.43-.31-.69-.93-.69a.91.91,0,0,0-1,.87h.44c0-.36.21-.55.56-.55s.49.16.51.4,0,.2,0,.32v.06h-.17c-1,0-1.46.31-1.46.9a.75.75,0,0,0,.84.74,1.14,1.14,0,0,0,.65-.16l.14-.28Zm-.7-.25c-.32,0-.52-.14-.52-.46s.45-.6,1.17-.54V679C954.29,679.46,954,679.72,953.64,679.72Zm2.91-2.42a1.24,1.24,0,0,0-1.22,1.37c0,1,.5,1.37,1.16,1.37a1.07,1.07,0,0,0,1.14-.9h-.44a.67.67,0,0,1-.68.58c-.38,0-.72-.32-.72-1.07s.35-1,.75-1,.58.2.67.62h.45A1,1,0,0,0,956.55,677.3Zm2.2.41h.48v-.32h-.48v-.61h-.43v.61H958v.32h.35v1.52a2.55,2.55,0,0,0,0,.32c0,.33.19.46.51.46a2.17,2.17,0,0,0,.36,0v-.31c-.33,0-.43,0-.45-.27v-1.7Zm1.33-1.2a.27.27,0,1,0,0,.54.27.27,0,1,0,0-.54Zm.22,3.46v-2.6h-.43V680Zm3-2.6h-.44l-.78,2.29-.8-2.29h-.47l1,2.6h.52Zm2.59,1.23c0-.77-.4-1.3-1.12-1.3a1.25,1.25,0,0,0-1.24,1.38c0,.92.51,1.36,1.19,1.36a1.06,1.06,0,0,0,1.13-.91h-.44a.65.65,0,0,1-.67.59c-.39,0-.71-.23-.75-.92h1.89A1.82,1.82,0,0,0,965.86,678.6Zm-1.13-1c.43,0,.66.31.7.85H964C964,677.92,964.32,677.62,964.73,677.62Z" transform="translate(594.29 560.92)"/><path class="cls-11" d="M940.51,649.69h-.3a.78.78,0,0,0-.45.13l-.75.45v.53l1-.55v2.83h.54Zm3,1.59a.76.76,0,0,0,.56-.74c0-.56-.43-.92-1.13-.92s-1.13.36-1.13.92a.75.75,0,0,0,.51.74.91.91,0,0,0-.67.85c0,.74.56,1,1.25,1s1.26-.28,1.26-1A.91.91,0,0,0,943.51,651.28Zm-.57-1.25a.51.51,0,0,1,.56.53.52.52,0,0,1-.57.55.54.54,0,1,1,0-1.08Zm0,2.71a.61.61,0,1,1,0-1.22.59.59,0,0,1,.66.61A.58.58,0,0,1,942.91,652.74Zm3-3.12c-1,0-1.27.74-1.27,1.76s.32,1.77,1.27,1.77,1.26-.75,1.26-1.77S946.9,649.62,946,649.62Zm0,3.11c-.49,0-.69-.48-.69-1.35s.2-1.35.69-1.35.68.47.68,1.35S946.43,652.73,946,652.73Zm2.11-.3a.35.35,0,0,0-.36.36.36.36,0,0,0,.72,0A.35.35,0,0,0,948.06,652.43Zm2.17-2.81c-1,0-1.27.74-1.27,1.76s.32,1.77,1.27,1.77,1.26-.75,1.26-1.77S951.17,649.62,950.23,649.62Zm0,3.11c-.49,0-.69-.48-.69-1.35s.2-1.35.69-1.35.68.47.68,1.35S950.71,652.73,950.23,652.73Zm3.58-1.45a.79.79,0,0,0,.62-.79c0-.5-.39-.87-1.07-.87a1.1,1.1,0,0,0-1.21,1v0h.54v0a.61.61,0,0,1,.62-.61.5.5,0,0,1,.54.52.61.61,0,0,1-.66.61h-.1v.4h.1c.5,0,.74.21.74.58a.59.59,0,0,1-.66.59.66.66,0,0,1-.71-.62v-.05H952v.05a1.09,1.09,0,0,0,1.23,1c.71,0,1.27-.4,1.27-1A.82.82,0,0,0,953.81,651.28Zm2-1.65a.8.8,0,1,0,.74.79A.71.71,0,0,0,955.77,649.63Zm.06,3.45,2.2-3.39h-.47l-2.21,3.39Zm-.06-3.12c.18,0,.3.16.3.46s-.12.48-.3.48-.3-.17-.3-.48S955.59,650,955.77,650Zm1.83,1.6a.72.72,0,0,0-.75.79.75.75,0,1,0,1.49,0A.71.71,0,0,0,957.6,651.56Zm0,.32c.18,0,.3.17.3.47s-.12.47-.3.47-.3-.16-.3-.47S957.41,651.88,957.6,651.88Z" transform="translate(594.29 560.92)"/><path class="cls-12" d="M932.77,688.12l1.75,2.08,1.76-2.08" transform="translate(594.29 560.92)"/><path class="cls-12" d="M934.52,690v-3.33" transform="translate(594.29 560.92)"/><path class="cls-13" d="M937.68,294.63l.67-13.73-12.49,1.29" transform="translate(594.29 560.92)"/><path class="cls-13" d="M937.83,282.37l-11,10.65" transform="translate(594.29 560.92)"/><path class="cls-14" d="M1549.21,767.17l-7.5-7.9-7.5,7.9" transform="translate(594.29 560.92)"/><path class="cls-14" d="M1541.71,760.06v12.65" transform="translate(594.29 560.92)"/><g class="cls-15"><rect class="cls-5" x="1838" y="998" width="124" height="59.52" rx="8.27"/><rect class="cls-6" x="1843.51" y="1007.37" width="112.98" height="54.01" rx="8.27"/><path class="cls-1" d="M1297.55,455.89c-3.93,0-5.47,2.68-5.47,7.12s1.54,7.12,5.47,7.12,5.48-2.71,5.48-7.12S1301.46,455.89,1297.55,455.89Zm0,11.94c-1.49,0-2.2-1.41-2.2-4.82s.71-4.82,2.2-4.82,2.2,1.37,2.2,4.82S1299,467.83,1297.55,467.83Zm9.31-1.31a1.81,1.81,0,1,0,1.81,1.81A1.73,1.73,0,0,0,1306.86,466.52Zm9.16-10.63c-2.84,0-5.34,1.79-5.34,5a4.13,4.13,0,0,0,4.49,4.42,3.59,3.59,0,0,0,2.42-.75l.67-1.25c-.1,3.15-1,4.48-2.42,4.48a1.71,1.71,0,0,1-1.84-1.6l0-.2h-3.14l0,.2c.24,2.4,1.87,3.9,4.8,3.9,3.46,0,5.78-2.55,5.78-7.48C1321.42,458,1319.57,455.89,1316,455.89Zm.06,7.16c-1.41,0-2.12-1-2.12-2.5a2.13,2.13,0,0,1,2.08-2.36c1.29,0,2.08,1,2.08,2.44S1317.19,463.05,1316.08,463.05Z" transform="translate(594.29 560.92)"/><path class="cls-16" d="M1324.66,454.49c-1,0-1.59.46-1.59,1.2s.46,1,1.18,1.16.91.3.91.58-.21.35-.48.35a.64.64,0,0,1-.65-.55h-1.12c.1.86.79,1.28,1.76,1.28s1.62-.38,1.62-1.17-.47-1-1.21-1.21-.89-.32-.89-.57a.36.36,0,0,1,.39-.36c.28,0,.45.18.51.5h1.11A1.4,1.4,0,0,0,1324.66,454.49Zm6.15,1.94a1.8,1.8,0,0,0-1.84-1.94,1.91,1.91,0,0,0-2,2,1.81,1.81,0,0,0,1.9,2,1.76,1.76,0,0,0,1.86-1.35h-1.11a.67.67,0,0,1-.72.57c-.43,0-.74-.21-.81-.94h2.68A2.43,2.43,0,0,0,1330.81,456.43Zm-1.89-1.17c.41,0,.66.28.73.82h-1.51C1328.24,455.51,1328.51,455.26,1328.92,455.26Zm4.61-.77a1.9,1.9,0,0,0-2,2,1.79,1.79,0,0,0,1.87,2,1.71,1.71,0,0,0,1.87-1.46h-1.11a.72.72,0,0,1-.7.68c-.47,0-.77-.38-.77-1.27s.3-1.2.77-1.2.64.22.72.74h1.09A1.63,1.63,0,0,0,1333.53,454.49Z" transform="translate(594.29 560.92)"/><path class="cls-1" d="M1294.56,475a1.59,1.59,0,0,0-1.77,1.5c0,.88.65,1.25,1.59,1.47s1.31.51,1.31,1.16-.5.88-1.1.88a1.28,1.28,0,0,1-1.34-1.09h-.71a1.81,1.81,0,0,0,2,1.62,1.64,1.64,0,0,0,1.83-1.54c0-.9-.59-1.38-1.76-1.65-.81-.18-1.14-.43-1.14-1s.44-.82,1-.82a1,1,0,0,1,1.12,1.06h.71A1.65,1.65,0,0,0,1294.56,475Zm4.72,1.23a1.82,1.82,0,0,0-1.08.33l-.31.44v-.66h-.67V482h.67v-2.07l.27.4a1.77,1.77,0,0,0,1,.27,2,2,0,0,0,2-2.21A1.87,1.87,0,0,0,1299.28,476.25Zm-.14,3.8a1.28,1.28,0,0,1-1.25-1.46v-.22c0-1.17.61-1.61,1.29-1.61s1.23.74,1.23,1.66S1299.85,480.05,1299.14,480.05Zm6.16-1.76c0-1.19-.63-2-1.75-2a2,2,0,0,0-2,2.17c0,1.45.8,2.14,1.86,2.14a1.67,1.67,0,0,0,1.78-1.43h-.69a1,1,0,0,1-1.06.92c-.6,0-1.11-.36-1.17-1.44h3A2.28,2.28,0,0,0,1305.3,478.29Zm-1.77-1.53c.67,0,1,.49,1.1,1.34h-2.3C1302.4,477.23,1302.88,476.76,1303.53,476.76Zm6,1.53c0-1.19-.62-2-1.75-2a2,2,0,0,0-1.94,2.17c0,1.45.79,2.14,1.85,2.14a1.68,1.68,0,0,0,1.79-1.43h-.7a1,1,0,0,1-1,.92c-.61,0-1.12-.36-1.18-1.44h3C1309.53,478.46,1309.53,478.35,1309.53,478.29Zm-1.77-1.53c.68,0,1,.49,1.1,1.34h-2.3C1306.64,477.23,1307.12,476.76,1307.76,476.76Zm6.22-2h-.66v2.15l-.27-.41a1.77,1.77,0,0,0-1-.27,2,2,0,0,0-2,2.22,1.86,1.86,0,0,0,1.86,2.09,1.82,1.82,0,0,0,1.08-.32l.31-.44v.65h.66Zm-2,5.27c-.82,0-1.24-.73-1.24-1.66s.56-1.63,1.28-1.63a1.28,1.28,0,0,1,1.25,1.46v.23C1313.32,479.62,1312.71,480.05,1312,480.05Zm5.66.4v-5.32H1317v5.32Zm4.61-3a1.3,1.3,0,0,0-1.46-1.2,1.56,1.56,0,0,0-1.07.34l-.25.47v-.7h-.66v4.09h.66v-1.8c0-1.39.54-1.87,1.18-1.87a.83.83,0,0,1,.93.83,5.82,5.82,0,0,1,0,.59v2.25h.66v-2.3C1322.31,477.82,1322.31,477.66,1322.3,477.45Zm4.7-2.67h-.66v2.15l-.27-.41a1.77,1.77,0,0,0-1-.27,2,2,0,0,0-2,2.22,1.86,1.86,0,0,0,1.86,2.09,1.82,1.82,0,0,0,1.08-.32l.31-.44v.65h.66Zm-2,5.27c-.82,0-1.24-.73-1.24-1.66s.56-1.63,1.28-1.63a1.28,1.28,0,0,1,1.25,1.46v.23C1326.34,479.62,1325.73,480.05,1325.05,480.05Zm6.48-1.76c0-1.19-.62-2-1.75-2a2,2,0,0,0-1.94,2.17c0,1.45.79,2.14,1.86,2.14a1.67,1.67,0,0,0,1.78-1.43h-.7a1,1,0,0,1-1,.92c-.6,0-1.11-.36-1.18-1.44h3C1331.53,478.46,1331.53,478.35,1331.53,478.29Zm-1.76-1.53c.67,0,1,.49,1.09,1.34h-2.3C1328.64,477.23,1329.12,476.76,1329.77,476.76Zm4.14,1.61,1.44-2h-.77l-1,1.58-1-1.58h-.79l1.41,2-1.46,2.07h.76l1.07-1.64,1.07,1.64h.77Z" transform="translate(594.29 560.92)"/><g class="cls-17"><path class="cls-18" d="M1261.56,458.09a13.63,13.63,0,1,1-1.06,1.16l10.73,8.65Z" transform="translate(594.29 560.92)"/></g><g class="cls-19"><path class="cls-20" d="M1261.56,458.09a13.74,13.74,0,1,0,9.77-4l-.1,13.78Z" transform="translate(594.29 560.92)"/></g><circle class="cls-5" cx="1865.52" cy="1028.82" r="8.27"/></g><rect class="cls-5" x="1596" y="901" width="145" height="47.68" rx="11.1"/><rect class="cls-6" x="1601.23" y="909.49" width="134.55" height="43.76" rx="11.1"/><path class="cls-1" d="M1074.58,356.47v-.64h-5.28v.64h2.25v5.67h.78v-5.67Zm2.29.7a2.55,2.55,0,1,0,2.41,2.55A2.32,2.32,0,0,0,1076.87,357.17Zm0,4.5c-1,0-1.54-.82-1.54-1.95s.56-2,1.54-2,1.55.81,1.55,2S1077.85,361.67,1076.87,361.67Zm4.47-3.73h.91v-.61h-.91v-1.12h-.79v1.12h-.64v.61h.64v2.82c0,.28,0,.48,0,.6,0,.61.36.85,1,.85a3.82,3.82,0,0,0,.67,0v-.58c-.61.08-.8,0-.84-.49,0-.13,0-.21,0-.38Zm4.88,4.2h.78a8.84,8.84,0,0,1-.09-1.23v-1.82c0-.21,0-.45,0-.64-.08-.8-.56-1.28-1.72-1.28a1.69,1.69,0,0,0-1.86,1.62h.82c.06-.66.39-1,1-1s.91.29.95.74a5.53,5.53,0,0,1,0,.59v.12h-.32c-1.9,0-2.72.57-2.72,1.67a1.4,1.4,0,0,0,1.56,1.38,2.09,2.09,0,0,0,1.22-.3l.26-.52Zm-1.3-.47c-.6,0-1-.26-1-.85,0-.83.84-1.11,2.18-1v.49C1086.13,361.18,1085.65,361.67,1084.92,361.67Zm4.3-6.25h-.79v5.36c0,.26,0,.47,0,.64,0,.61.36.76.82.76a3.43,3.43,0,0,0,.56,0v-.57c-.43.05-.58-.05-.6-.36v-5.79Zm7.22,3.37a1.37,1.37,0,0,0,1.07-1.39c0-.89-.55-1.39-1.55-1.53a5.63,5.63,0,0,0-.82,0h-1.86v6.31h2a5.5,5.5,0,0,0,.8,0,1.75,1.75,0,0,0,1.63-1.81A1.42,1.42,0,0,0,1096.44,358.79Zm-2.37-2.32h1.13a4.26,4.26,0,0,1,.5,0,1,1,0,0,1,.08,2,2.89,2.89,0,0,1-.5,0h-1.21Zm1.8,5-.44,0h-1.36v-2.31h1.3l.51,0a1.14,1.14,0,0,1,0,2.26Zm3.83-6.06h-.79v5.36c0,.26,0,.47,0,.64,0,.61.36.76.82.76a3.43,3.43,0,0,0,.56,0v-.57c-.43.05-.58-.05-.59-.36,0-.16,0-.31,0-.46Zm3.68,1.75a2.55,2.55,0,1,0,2.4,2.55A2.32,2.32,0,0,0,1103.38,357.17Zm0,4.5c-1,0-1.55-.82-1.55-1.95s.57-2,1.55-2,1.54.81,1.54,2S1104.36,361.67,1103.38,361.67Zm5.4-4.5a2.32,2.32,0,0,0-2.28,2.56c0,1.77.94,2.54,2.16,2.54a2,2,0,0,0,2.12-1.67H1110a1.23,1.23,0,0,1-1.25,1.07c-.72,0-1.35-.59-1.35-2s.64-1.9,1.4-1.9,1.07.38,1.25,1.15h.82A1.93,1.93,0,0,0,1108.78,357.17Zm6.15,5H1116l-2.29-2.56,2.26-2.28h-1l-2.26,2.44v-4.32h-.78v6.72h.78V360.6l.46-.51Zm2.33-6.44a.51.51,0,1,0,.5.51A.5.5,0,0,0,1117.26,355.7Zm.39,6.44V357.3h-.78v4.84Zm5.65-3.56a1.53,1.53,0,0,0-1.73-1.41,1.86,1.86,0,0,0-1.27.4l-.3.56v-.83h-.78v4.84h.78V360c0-1.65.64-2.22,1.4-2.22a1,1,0,0,1,1.11,1c0,.24,0,.44,0,.69v2.67h.78v-2.72C1123.31,359,1123.31,358.83,1123.3,358.58Zm5.74-1.28h-.78V358l-.32-.47a2.12,2.12,0,0,0-1.17-.32,2.33,2.33,0,0,0-2.36,2.62,2.24,2.24,0,0,0,3.48,2.1l.37-.53v.09c0,.14,0,.3,0,.53a1.39,1.39,0,0,1-1.52,1.48c-.83,0-1.31-.41-1.37-1v-.08h-.8v.09c.1,1,.79,1.6,2.17,1.6a2.06,2.06,0,0,0,2.3-2.17c0-.26,0-.64,0-.94Zm-2.31,4.37c-1,0-1.46-.87-1.46-2,0-1.27.65-1.93,1.5-1.93a1.52,1.52,0,0,1,1.49,1.73v.26C1128.26,361.15,1127.53,361.67,1126.73,361.67Zm-52.15,5.8v-.64h-5.28v.64h2.25v5.67h.78v-5.67Zm1.25-.77a.51.51,0,1,0,.5.51A.5.5,0,0,0,1075.83,366.7Zm.39,6.44V368.3h-.79v4.84Zm8-3.79a1.37,1.37,0,0,0-1.47-1.18,1.62,1.62,0,0,0-1,.28l-.43.62a1.37,1.37,0,0,0-1.4-.9,1.58,1.58,0,0,0-1,.28l-.31.55v-.7h-.79v4.84h.79v-2.39c0-1.48.45-2,1.06-2a.87.87,0,0,1,1,.81,7.69,7.69,0,0,1,0,.94v2.6h.78v-2.39c0-1.48.45-2,1.06-2a.87.87,0,0,1,1,.81,7.69,7.69,0,0,1,0,.94v2.6h.78v-3A4.8,4.8,0,0,0,1084.23,369.35Zm5.52,1.23c0-1.42-.74-2.41-2.07-2.41a2.32,2.32,0,0,0-2.31,2.57c0,1.71,1,2.53,2.21,2.53a2,2,0,0,0,2.11-1.69h-.82a1.23,1.23,0,0,1-1.26,1.09c-.71,0-1.31-.43-1.39-1.71h3.52C1089.75,370.78,1089.75,370.65,1089.75,370.58Zm-2.09-1.81c.8,0,1.23.58,1.3,1.58h-2.73C1086.32,369.32,1086.89,368.77,1087.66,368.77Z" transform="translate(594.29 560.92)"/><path class="cls-1" d="M1021.8,357c-3.36,0-6.32,2.11-6.32,6,0,2.89,1.69,5.24,5.31,5.24a4.25,4.25,0,0,0,2.87-.89l.8-1.48c-.12,3.73-1.15,5.31-2.87,5.31a2.05,2.05,0,0,1-2.19-1.9l0-.24h-3.72l0,.24c.28,2.84,2.21,4.63,5.69,4.63,4.09,0,6.84-3,6.84-8.87C1028.2,359.42,1026,357,1021.8,357Zm.07,8.48c-1.67,0-2.51-1.22-2.51-3a2.53,2.53,0,0,1,2.47-2.8c1.52,0,2.47,1.18,2.47,2.89C1024.3,364.45,1023.19,365.46,1021.87,365.46Zm19.1-8.16h-12.76v2.87h8.39l-7.31,13.36h4L1041,359.3Z" transform="translate(594.29 560.92)"/><path class="cls-21" d="M1042.2,350.53h0a5.88,5.88,0,0,1,5.88,5.88h0a5.88,5.88,0,0,1-5.88,5.88h0a5.88,5.88,0,0,1-5.87-5.88h0A5.87,5.87,0,0,1,1042.2,350.53Z" transform="translate(594.29 560.92)"/><path class="cls-1" d="M1042.8,355.65a.85.85,0,0,0-.92-.69,1,1,0,0,0-.59.16l-.29.37a.85.85,0,0,0-.86-.53,1,1,0,0,0-.6.16l-.21.34V355h-.82v2.78h.82v-1.44c0-.57.15-.85.46-.85s.41.16.45.43,0,.3,0,.43v1.43h.81v-1.44c0-.57.16-.85.47-.85a.42.42,0,0,1,.44.43,3.24,3.24,0,0,1,0,.43v1.43h.82v-1.64A3.79,3.79,0,0,0,1042.8,355.65Zm2.12-.69c-.7,0-1.16.33-1.16.87s.34.72.86.85.67.22.67.42-.16.26-.36.26a.47.47,0,0,1-.47-.4h-.81c.07.62.57.93,1.28.93s1.18-.27,1.18-.85-.35-.75-.88-.89-.65-.23-.65-.41a.26.26,0,0,1,.29-.26c.2,0,.32.13.37.36h.81A1,1,0,0,0,1044.92,355Z" transform="translate(594.29 560.92)"/><line class="cls-22" x1="1653.15" y1="911.45" x2="1653.15" y2="938.88"/><rect class="cls-5" x="1843" y="1138" width="208" height="192.51" rx="16.6"/><rect class="cls-6" x="1856.28" y="1171.19" width="183.66" height="169.28" rx="16.6"/><path class="cls-1" d="M1332.46,629c-7.89,0-11,5.38-11,14.3s3.1,14.3,11,14.3,11-5.45,11-14.3S1340.3,629,1332.46,629Zm0,24c-3,0-4.42-2.83-4.42-9.68s1.43-9.68,4.42-9.68,4.42,2.75,4.42,9.68S1335.45,653,1332.46,653Zm18.69-2.63a3.63,3.63,0,1,0,3.63,3.63A3.47,3.47,0,0,0,1351.15,650.32Zm24.08-7.88c2.43-.8,4.59-2.55,4.59-5.78,0-4.54-3.55-7.69-9.8-7.69s-9.88,3.15-9.88,7.69a5.67,5.67,0,0,0,4,5.78c-2.79.95-5.34,3.18-5.34,6.81,0,6,4.35,8.36,10.76,8.36,6,0,10.87-2.39,10.87-8.36A7.06,7.06,0,0,0,1375.23,642.44Zm-5.29-8.85a3.14,3.14,0,0,1,3.46,3.31,3.23,3.23,0,0,1-3.5,3.47,3.39,3.39,0,0,1,0-6.78Zm-.28,19.4c-2.75,0-4.3-1.51-4.3-4a3.92,3.92,0,0,1,4.26-4.06c2.87,0,4.34,1.71,4.34,4.14S1372.65,653,1369.66,653Z" transform="translate(594.29 560.92)"/><path class="cls-1" d="M1389.08,624.15c-1.92,0-3.19.92-3.19,2.41,0,1.31.94,2,2.37,2.32s1.85.62,1.85,1.16-.44.72-1,.72a1.3,1.3,0,0,1-1.31-1.1h-2.23c.2,1.72,1.57,2.56,3.52,2.56s3.25-.75,3.25-2.35c0-1.44-.95-2.06-2.43-2.43s-1.78-.63-1.78-1.15a.71.71,0,0,1,.79-.7c.56,0,.89.35,1,1h2.23A2.82,2.82,0,0,0,1389.08,624.15Zm12.37,3.89a3.63,3.63,0,0,0-3.71-3.89,3.83,3.83,0,0,0-4,4.05c0,2.71,1.68,4,3.82,4a3.53,3.53,0,0,0,3.73-2.71h-2.23a1.35,1.35,0,0,1-1.45,1.15c-.85,0-1.48-.43-1.61-1.9h5.38C1401.43,628.49,1401.45,628.25,1401.45,628Zm-3.81-2.34c.83,0,1.33.56,1.46,1.64h-3C1396.27,626.2,1396.83,625.7,1397.64,625.7Zm9.26-1.55a3.8,3.8,0,0,0-3.93,4.1c0,2.6,1.61,4,3.74,4s3.47-1,3.77-2.92h-2.23a1.46,1.46,0,0,1-1.41,1.36c-.94,0-1.55-.77-1.55-2.56,0-1.62.6-2.4,1.55-2.4.75,0,1.28.43,1.44,1.48h2.2A3.29,3.29,0,0,0,1406.9,624.15Z" transform="translate(594.29 560.92)"/><path class="cls-1" d="M1298.64,679.84v-1.09h-9v1.09h3.81v9.6h1.33v-9.6Zm1.82-1.3a.85.85,0,1,0,.85.85A.84.84,0,0,0,1300.46,678.54Zm.67,10.9v-8.21h-1.33v8.21Zm13.28-6.43a2.34,2.34,0,0,0-2.5-2,2.68,2.68,0,0,0-1.73.48l-.73,1.06a2.33,2.33,0,0,0-2.37-1.54,2.66,2.66,0,0,0-1.73.48l-.53.93v-1.19h-1.33v8.21h1.33v-4.06c0-2.49.76-3.31,1.8-3.31a1.48,1.48,0,0,1,1.64,1.38,15.86,15.86,0,0,1,.06,1.59v4.4h1.33v-4.06c0-2.49.76-3.31,1.8-3.31a1.47,1.47,0,0,1,1.64,1.38,13.31,13.31,0,0,1,.06,1.59v4.4h1.33v-5A9.12,9.12,0,0,0,1314.41,683Zm9.06,2.09c0-2.4-1.25-4.09-3.51-4.09s-3.9,1.69-3.9,4.36c0,2.89,1.59,4.29,3.73,4.29a3.38,3.38,0,0,0,3.58-2.87H1322a2.06,2.06,0,0,1-2.12,1.84c-1.21,0-2.23-.72-2.35-2.89h5.94A6,6,0,0,0,1323.47,685.1Zm-3.54-3.06c1.35,0,2.07,1,2.2,2.68h-4.62C1317.67,683,1318.63,682,1319.93,682Zm10.25.28h1.53v-1h-1.53v-1.9h-1.34v1.9h-1.1v1h1.1v4.78c0,.47,0,.81,0,1,.08,1,.6,1.44,1.63,1.44a7.29,7.29,0,0,0,1.13-.07v-1c-1,.12-1.37,0-1.43-.84,0-.21,0-.35,0-.63Zm6.45-1.31c-2.79,0-4.07,2-4.07,4.33s1.28,4.32,4.07,4.32,4.08-2,4.08-4.32S1339.42,681,1336.63,681Zm0,7.62c-1.66,0-2.62-1.37-2.62-3.29s1-3.3,2.62-3.3,2.62,1.36,2.62,3.3S1338.29,688.63,1336.63,688.63Zm10.76.81V678.75h-1.33v10.69Zm9.26-6c-.12-1.44-1.13-2.4-2.93-2.4a3.06,3.06,0,0,0-2.13.69l-.52.94v-1.41h-1.33v8.21h1.33v-3.61c0-2.8,1.09-3.76,2.37-3.76a1.68,1.68,0,0,1,1.88,1.67c0,.42,0,.76,0,1.18v4.52h1.33v-4.62C1356.68,684.16,1356.68,683.83,1356.65,683.41Zm3.87-1.09h1.53v-1h-1.53v-1.9h-1.33v1.9h-1.1v1h1.1v4.78c0,.47,0,.81,0,1,.08,1,.61,1.44,1.63,1.44a7.29,7.29,0,0,0,1.13-.07v-1c-1,.12-1.36,0-1.42-.84a5.93,5.93,0,0,1,0-.63Zm9.8,2.78c0-2.4-1.25-4.09-3.52-4.09s-3.9,1.69-3.9,4.36c0,2.89,1.6,4.29,3.73,4.29a3.37,3.37,0,0,0,3.58-2.87h-1.39a2.06,2.06,0,0,1-2.12,1.84c-1.21,0-2.23-.72-2.36-2.89h6A6,6,0,0,0,1370.32,685.1Zm-3.55-3.06c1.35,0,2.08,1,2.2,2.68h-4.61C1364.51,683,1365.47,682,1366.77,682Zm8.54-1a2,2,0,0,0-1.15.37l-.74,1.1v-1.29h-1.34v8.21h1.34v-4.68c0-1.87,1-2.69,2.44-2.6v-1A1.32,1.32,0,0,0,1375.31,681.05Zm6.6,8.39h1.33a13.49,13.49,0,0,1-.16-2.09v-3.08c0-.36,0-.76,0-1.09-.14-1.34-1-2.17-2.92-2.17a2.88,2.88,0,0,0-3.16,2.76h1.4c.09-1.13.65-1.73,1.76-1.73s1.54.49,1.6,1.25c0,.31,0,.64,0,1v.22h-.53c-3.22,0-4.61,1-4.61,2.82a2.36,2.36,0,0,0,2.65,2.34,3.61,3.61,0,0,0,2.06-.51l.45-.89Zm-2.2-.81c-1,0-1.65-.43-1.65-1.42,0-1.41,1.43-1.89,3.69-1.72v.84C1381.75,687.81,1381,688.63,1379.71,688.63Zm8.89-7.62c-2.06,0-3.86,1.57-3.86,4.34,0,3,1.58,4.31,3.66,4.31a3.38,3.38,0,0,0,3.59-2.84h-1.39a2.07,2.07,0,0,1-2.12,1.81c-1.23,0-2.28-1-2.28-3.37,0-2.22,1.08-3.22,2.37-3.22,1.1,0,1.81.63,2.11,2h1.39A3.27,3.27,0,0,0,1388.6,681Zm6.62,1.31h1.53v-1h-1.53v-1.9h-1.33v1.9h-1.1v1h1.1v4.78c0,.47,0,.81,0,1,.08,1,.61,1.44,1.63,1.44a7.29,7.29,0,0,0,1.13-.07v-1c-1,.12-1.36,0-1.43-.84,0-.21,0-.35,0-.63Zm3.93-3.78a.85.85,0,1,0,.85.85A.85.85,0,0,0,1399.15,678.54Zm.66,10.9v-8.21h-1.33v8.21Zm9.08-8.21h-1.41l-2.46,7.23-2.51-7.23H1401l3.11,8.21h1.63Zm7.85,3.87c0-2.4-1.25-4.09-3.51-4.09s-3.91,1.69-3.91,4.36c0,2.89,1.6,4.29,3.74,4.29a3.38,3.38,0,0,0,3.58-2.87h-1.4a2.06,2.06,0,0,1-2.12,1.84c-1.21,0-2.23-.72-2.36-2.89h6A6,6,0,0,0,1416.74,685.1ZM1413.2,682c1.34,0,2.07,1,2.2,2.68h-4.62C1410.94,683,1411.9,682,1413.2,682Z" transform="translate(594.29 560.92)"/><path class="cls-23" d="M1339.49,719.39h-1a2.67,2.67,0,0,0-1.42.4l-2.36,1.44v1.68l3-1.74v8.91h1.71Zm9.45,5a2.44,2.44,0,0,0,1.77-2.33c0-1.77-1.35-2.92-3.57-2.92s-3.56,1.15-3.56,2.92a2.37,2.37,0,0,0,1.63,2.33,2.85,2.85,0,0,0-2.11,2.65c0,2.34,1.75,3.24,3.93,3.24,2,0,4-.9,4-3.24A2.8,2.8,0,0,0,1348.94,724.42Zm-1.8-3.94a1.6,1.6,0,0,1,1.78,1.67,1.78,1.78,0,0,1-3.56,0A1.61,1.61,0,0,1,1347.14,720.48Zm-.07,8.53a1.93,1.93,0,1,1,0-3.84,1.85,1.85,0,0,1,2.09,1.92A1.81,1.81,0,0,1,1347.07,729Zm9.56-9.84c-3,0-4,2.33-4,5.56s1,5.57,4,5.57,4-2.36,4-5.57S1359.62,719.17,1356.63,719.17Zm0,9.82c-1.52,0-2.16-1.51-2.16-4.26s.64-4.25,2.16-4.25,2.15,1.48,2.15,4.25S1358.16,729,1356.63,729Zm6.66-1a1.14,1.14,0,0,0,0,2.27,1.14,1.14,0,0,0,0-2.27Zm6.82-8.86c-3,0-4,2.33-4,5.56s1,5.57,4,5.57,4-2.36,4-5.57S1373.1,719.17,1370.11,719.17Zm0,9.82c-1.52,0-2.15-1.51-2.15-4.26s.63-4.25,2.15-4.25,2.15,1.48,2.15,4.25S1371.65,729,1370.11,729Zm11.31-4.58a2.49,2.49,0,0,0,1.94-2.49c0-1.58-1.22-2.75-3.36-2.75a3.47,3.47,0,0,0-3.83,3.21v.16h1.69v-.16a1.91,1.91,0,0,1,2-1.9,1.58,1.58,0,0,1,1.71,1.64,1.9,1.9,0,0,1-2.09,1.9l-.31,0v1.25h.31c1.58,0,2.33.67,2.33,1.85a1.86,1.86,0,0,1-2.07,1.85,2.1,2.1,0,0,1-2.26-2l0-.15h-1.7V727c.24,2.26,1.69,3.29,3.89,3.29s4-1.24,4-3.24A2.58,2.58,0,0,0,1381.42,724.41Zm6.17-5.19a2.51,2.51,0,0,0,0,5,2.51,2.51,0,0,0,0-5Zm.17,10.86,6.94-10.69h-1.48l-6.94,10.69Zm-.17-9.84c.58,0,1,.51,1,1.47s-.37,1.49-1,1.49-.94-.53-.94-1.49S1387,720.24,1387.59,720.24Zm5.75,5a2.51,2.51,0,1,0,2.34,2.5A2.26,2.26,0,0,0,1393.34,725.29Zm0,1c.59,0,1,.52,1,1.48s-.36,1.48-1,1.48-.94-.52-.94-1.48S1392.77,726.31,1393.34,726.31Z" transform="translate(594.29 560.92)"/><path class="cls-24" d="M1325.71,726.08l-5.5-6-5.5,6" transform="translate(594.29 560.92)"/><path class="cls-24" d="M1320.21,721.08v10" transform="translate(594.29 560.92)"/><g class="cls-25"><rect class="cls-1" x="2012" y="900" width="75" height="28.32" rx="9.95"/><path class="cls-26" d="M1432.25,348.75l1.13,2.54a.91.91,0,0,0,.74.54l2.76.29-2.06,1.85a.9.9,0,0,0-.29.87l.5-.1-.5.1.58,2.72-2.4-1.39a.89.89,0,0,0-.92,0l-2.4,1.39.58-2.72a.92.92,0,0,0-.28-.87l-2.07-1.85,2.76-.29a.94.94,0,0,0,.75-.54Z" transform="translate(594.29 560.92)"/><path class="cls-26" d="M1443.73,348.75l1.13,2.54a.91.91,0,0,0,.74.54l2.76.29L1446.3,354a.9.9,0,0,0-.29.87l.5-.1-.5.1.58,2.72-2.4-1.39a.89.89,0,0,0-.92,0l-2.4,1.39.58-2.72a.9.9,0,0,0-.29-.87l-2.06-1.85,2.76-.29a.91.91,0,0,0,.74-.54Z" transform="translate(594.29 560.92)"/><path class="cls-26" d="M1455.21,348.75l1.13,2.54a.91.91,0,0,0,.74.54l2.76.29-2.06,1.85a.9.9,0,0,0-.29.87l.5-.1-.5.1.58,2.72-2.4-1.39a.89.89,0,0,0-.92,0l-2.4,1.39.58-2.72a.9.9,0,0,0-.29-.87l-2.06-1.85,2.76-.29a.91.91,0,0,0,.74-.54Z" transform="translate(594.29 560.92)"/><path class="cls-26" d="M1466.69,348.75l1.13,2.54a.91.91,0,0,0,.74.54l2.76.29-2.07,1.85a.92.92,0,0,0-.28.87l.5-.1-.5.1.58,2.72-2.4-1.39a.89.89,0,0,0-.92,0l-2.4,1.39.58-2.72a.9.9,0,0,0-.29-.87l-2.06-1.85,2.76-.29a.91.91,0,0,0,.74-.54Z" transform="translate(594.29 560.92)"/><path class="cls-26" d="M1478.17,348.75l1.13,2.54a.91.91,0,0,0,.74.54l2.76.29-2.07,1.85a.92.92,0,0,0-.28.87l.5-.1-.5.1.58,2.72-2.4-1.39a.89.89,0,0,0-.92,0l-2.4,1.39.58-2.72a.9.9,0,0,0-.29-.87l-2.06-1.85,2.76-.29a.91.91,0,0,0,.74-.54Z" transform="translate(594.29 560.92)"/></g><rect class="cls-5" x="1687" y="775" width="164" height="203.66" rx="18.22"/><rect class="cls-6" x="1695" y="793" width="148" height="193" rx="18.22"/><path class="cls-27" d="M1175.23,375.44a45.61,45.61,0,1,0-45.6-45.61A45.61,45.61,0,0,0,1175.23,375.44Z" transform="translate(594.29 560.92)"/><path class="cls-28" d="M1175.51,284.23a45.88,45.88,0,0,0-45.88,45.88" transform="translate(594.29 560.92)"/><path class="cls-29" d="M1133.39,308.33a18.13,18.13,0,1,0-18.14-18.13A18.13,18.13,0,0,0,1133.39,308.33Z" transform="translate(594.29 560.92)"/><path class="cls-16" d="M1128.7,285.32l.7-.68c.79-.77,1-1.16,1-1.68,0-.76-.52-1.25-1.48-1.25a1.5,1.5,0,0,0-1.68,1.44v.06h1v-.06c0-.48.23-.72.61-.72a.52.52,0,0,1,.55.58c0,.41-.22.71-.82,1.29l-1.4,1.34v.44h3.21v-.76Zm5-1.5a.94.94,0,0,0,.8-1c0-.62-.49-1.13-1.47-1.13a1.49,1.49,0,0,0-1.66,1.34v.06h1v-.06a.59.59,0,0,1,.59-.62.49.49,0,0,1,.54.52c0,.35-.25.59-.68.62h-.16v.65h.16c.5,0,.78.23.78.63a.61.61,0,0,1-.69.59.71.71,0,0,1-.73-.64v-.06h-1v.06c.08.87.7,1.36,1.72,1.36s1.69-.53,1.69-1.34A1,1,0,0,0,1133.68,283.82Zm2.52-2.09a.91.91,0,0,0-1,1,1,1,0,1,0,1.94,0A.91.91,0,0,0,1136.2,281.73Zm.2,4.35,2.76-4.27h-.7l-2.77,4.27Zm-.2-3.87c.22,0,.34.19.34.54s-.12.55-.34.55-.34-.19-.34-.55S1136,282.21,1136.2,282.21Zm2.41,1.89a1,1,0,0,0,0,2.07,1,1,0,0,0,0-2.07Zm0,.49c.23,0,.34.19.34.54s-.11.55-.34.55-.34-.2-.34-.55S1138.39,284.59,1138.61,284.59Z" transform="translate(594.29 560.92)"/><path class="cls-30" d="M1127.24,288.63a1.1,1.1,0,0,0-1.22,1c0,.6.45.86,1.1,1s.89.35.89.8-.34.61-.75.61a.88.88,0,0,1-.92-.75h-.49a1.24,1.24,0,0,0,1.39,1.11,1.12,1.12,0,0,0,1.26-1.06c0-.62-.4-.95-1.21-1.13-.55-.13-.78-.3-.78-.7s.3-.56.69-.56a.73.73,0,0,1,.78.73h.49A1.14,1.14,0,0,0,1127.24,288.63Zm3.34.85a1.25,1.25,0,0,0-.74.22l-.21.3v-.45h-.46v3.86h.46V292l.18.27a1.19,1.19,0,0,0,.68.19,1.36,1.36,0,0,0,1.37-1.52A1.28,1.28,0,0,0,1130.58,289.48Zm-.09,2.61a.88.88,0,0,1-.86-1v-.16c0-.8.42-1.1.88-1.1s.85.5.85,1.14S1131,292.09,1130.49,292.09Zm4.33-1.21c0-.82-.43-1.4-1.2-1.4a1.35,1.35,0,0,0-1.34,1.49c0,1,.55,1.47,1.28,1.47a1.14,1.14,0,0,0,1.22-1h-.47a.71.71,0,0,1-.73.63c-.41,0-.76-.25-.81-1h2A2.13,2.13,0,0,0,1134.82,290.88Zm-1.21-1.05c.46,0,.71.33.75.92h-1.58C1132.83,290.15,1133.16,289.83,1133.61,289.83Zm4.22,1.05c0-.82-.43-1.4-1.2-1.4a1.35,1.35,0,0,0-1.34,1.49c0,1,.55,1.47,1.28,1.47a1.15,1.15,0,0,0,1.23-1h-.48a.71.71,0,0,1-.73.63c-.41,0-.76-.25-.8-1h2A2.13,2.13,0,0,0,1137.83,290.88Zm-1.21-1.05c.46,0,.71.33.75.92h-1.58C1135.84,290.15,1136.17,289.83,1136.62,289.83Zm4.37-1.36h-.45v1.47l-.19-.28a1.26,1.26,0,0,0-.67-.18,1.36,1.36,0,0,0-1.38,1.52,1.31,1.31,0,0,0,2,1.22l.21-.31v.46h.45Zm-1.34,3.62c-.56,0-.85-.5-.85-1.14s.38-1.12.88-1.12a.88.88,0,0,1,.86,1V291C1140.54,291.79,1140.12,292.09,1139.65,292.09Zm-11.93,6.28V294.7h-.45v3.67Zm3.28-2.07a.9.9,0,0,0-1-.82,1.1,1.1,0,0,0-.73.23l-.18.33v-.49h-.45v2.82h.45v-1.24c0-1,.38-1.29.82-1.29a.57.57,0,0,1,.64.57c0,.15,0,.26,0,.41v1.55h.46v-1.59C1131,296.56,1131,296.44,1131,296.3Zm3.33-1.83h-.46v1.47l-.18-.28a1.27,1.27,0,0,0-.68-.18,1.36,1.36,0,0,0-1.37,1.52,1.29,1.29,0,0,0,1.28,1.44,1.25,1.25,0,0,0,.74-.22l.21-.31v.46h.46Zm-1.34,3.62c-.56,0-.85-.5-.85-1.14s.38-1.12.87-1.12.86.27.86,1V297C1133.87,297.79,1133.46,298.09,1133,298.09Zm4.56-1.21c0-.82-.43-1.4-1.21-1.4A1.35,1.35,0,0,0,1135,297c0,1,.55,1.47,1.28,1.47a1.15,1.15,0,0,0,1.23-1H1137a.71.71,0,0,1-.73.63c-.41,0-.76-.25-.8-1h2A2.13,2.13,0,0,0,1137.55,296.88Zm-1.22-1.05c.46,0,.71.33.75.92h-1.58C1135.56,296.15,1135.89,295.83,1136.33,295.83Zm3,1.1,1-1.38h-.53l-.7,1.09-.71-1.09h-.54l1,1.39-1,1.43h.53l.73-1.13.74,1.13h.53Z" transform="translate(594.29 560.92)"/><path class="cls-29" d="M1208.57,393.46a18.13,18.13,0,1,0-18.14-18.13A18.13,18.13,0,0,0,1208.57,393.46Z" transform="translate(594.29 560.92)"/><path class="cls-16" d="M1205.79,366.81h-3.36v.75h2.21l-1.93,3.52h1.06l2-3.75Zm2.66,1.4a1.09,1.09,0,0,0-.77.24l-.2.38c0-1,.3-1.39.76-1.39a.55.55,0,0,1,.57.49V368h1v-.07a1.36,1.36,0,0,0-1.51-1.21c-1,0-1.8.8-1.8,2.33s.58,2.12,1.69,2.12a1.56,1.56,0,0,0,1.67-1.58A1.3,1.3,0,0,0,1208.45,368.21Zm-.28,2.24c-.4,0-.65-.31-.65-.76s.29-.76.64-.76.66.32.66.78A.67.67,0,0,1,1208.17,370.45Zm3.27-3.72a.91.91,0,0,0-1,1,1,1,0,1,0,2,0A.92.92,0,0,0,1211.44,366.73Zm.2,4.35,2.77-4.27h-.71l-2.76,4.27Zm-.2-3.87c.23,0,.35.19.35.54s-.12.55-.35.55-.34-.19-.34-.55S1211.22,367.21,1211.44,367.21Zm2.42,1.89a1,1,0,1,0,1,1A.92.92,0,0,0,1213.86,369.1Zm0,.49c.23,0,.34.19.34.54s-.11.55-.34.55-.34-.2-.34-.55S1213.64,369.59,1213.86,369.59Z" transform="translate(594.29 560.92)"/><path class="cls-30" d="M1202.7,374.5v-.37h-3.07v.37h1.31v3.29h.46V374.5Zm.72-.45a.3.3,0,0,0,0,.59.3.3,0,1,0,0-.59Zm.23,3.74V375h-.45v2.82Zm4.65-2.2a.8.8,0,0,0-.85-.69.93.93,0,0,0-.6.17l-.25.36a.79.79,0,0,0-.81-.53.88.88,0,0,0-.59.17l-.18.31V375h-.46v2.82h.46V376.4c0-.86.26-1.14.61-1.14a.5.5,0,0,1,.56.47,4.2,4.2,0,0,1,0,.55v1.51h.46V376.4c0-.86.26-1.14.62-1.14a.5.5,0,0,1,.56.47,4.2,4.2,0,0,1,0,.55v1.51h.46v-1.72A3,3,0,0,0,1208.3,375.59Zm3.21.71c0-.82-.43-1.4-1.21-1.4a1.34,1.34,0,0,0-1.33,1.49c0,1,.54,1.47,1.27,1.47a1.15,1.15,0,0,0,1.23-1H1211a.71.71,0,0,1-.72.63c-.42,0-.77-.25-.81-1h2A2.13,2.13,0,0,0,1211.51,376.3Zm-1.22-1.05c.46,0,.71.34.76.92h-1.59C1209.52,375.57,1209.85,375.25,1210.29,375.25Zm3.71.1h.53V375H1214v-.66h-.45V375h-.38v.35h.38v2c0,.35.21.49.56.49l.39,0v-.33c-.36,0-.47,0-.49-.29a1.41,1.41,0,0,1,0-.22Zm2.31-.45a1.48,1.48,0,1,0,1.4,1.48A1.34,1.34,0,0,0,1216.31,374.9Zm0,2.61c-.56,0-.89-.47-.89-1.13s.33-1.13.89-1.13.9.47.9,1.13S1216.88,377.51,1216.31,377.51Zm-19.59,6.28v-3.66h-.46v3.66Zm3.27-2.07a.89.89,0,0,0-1-.82,1.08,1.08,0,0,0-.73.23l-.18.33V381h-.45v2.82h.45v-1.24c0-1,.37-1.29.81-1.29a.58.58,0,0,1,.65.57c0,.15,0,.26,0,.41v1.55h.45v-1.58C1200,382,1200,381.87,1200,381.72Zm1.43-.37h.52V381h-.52v-.66H1201V381h-.38v.35h.38V383a3.23,3.23,0,0,0,0,.35c0,.35.2.49.55.49l.39,0v-.33c-.36,0-.47,0-.49-.29v-1.83Zm3.45.95c0-.82-.43-1.4-1.2-1.4a1.35,1.35,0,0,0-1.34,1.49c0,1,.55,1.47,1.28,1.47a1.15,1.15,0,0,0,1.23-1h-.48a.71.71,0,0,1-.73.63c-.41,0-.76-.25-.8-1h2A2.13,2.13,0,0,0,1204.87,382.3Zm-1.21-1.05c.46,0,.71.34.75.92h-1.58C1202.88,381.57,1203.21,381.25,1203.66,381.25Zm3-.34a.73.73,0,0,0-.39.13l-.26.38V381h-.45v2.82h.45v-1.61c0-.64.37-.92.84-.89V381A.36.36,0,0,0,1206.68,380.91Zm2.36,2.88h.46a5.31,5.31,0,0,1,0-.72V382c0-.13,0-.27,0-.38,0-.46-.33-.74-1-.74a1,1,0,0,0-1.08,1h.48c0-.39.22-.6.6-.6s.53.17.55.43,0,.22,0,.34v.07h-.18c-1.1,0-1.58.33-1.58,1a.81.81,0,0,0,.91.8,1.22,1.22,0,0,0,.7-.17l.15-.31Zm-.75-.28c-.35,0-.56-.15-.56-.49s.48-.64,1.26-.59v.29C1209,383.23,1208.71,383.51,1208.29,383.51Zm3.15-2.61a1.36,1.36,0,0,0-1.33,1.49c0,1,.55,1.47,1.26,1.47a1.16,1.16,0,0,0,1.23-1h-.48a.72.72,0,0,1-.73.62c-.42,0-.78-.34-.78-1.16s.37-1.1.82-1.1.62.22.72.67h.47A1.11,1.11,0,0,0,1211.44,380.9Zm2.36.45h.53V381h-.53v-.66h-.45V381H1213v.35h.38v2c0,.35.21.49.56.49l.39,0v-.33c-.36,0-.47,0-.49-.29a1.41,1.41,0,0,1,0-.22Zm1.45-1.3a.3.3,0,0,0,0,.59.3.3,0,0,0,0-.59Zm.23,3.74V381H1215v2.82Zm3.21-2.82h-.49l-.84,2.48-.86-2.48h-.5l1.06,2.82h.56Zm2.79,1.33c0-.82-.43-1.4-1.21-1.4a1.35,1.35,0,0,0-1.34,1.49c0,1,.55,1.47,1.28,1.47a1.15,1.15,0,0,0,1.23-1H1221a.71.71,0,0,1-.73.63c-.41,0-.76-.25-.8-1h2A2.13,2.13,0,0,0,1221.48,382.3Zm-1.22-1.05c.46,0,.71.34.75.92h-1.58C1219.49,381.57,1219.81,381.25,1220.26,381.25Z" transform="translate(594.29 560.92)"/><path class="cls-1" d="M1118.77,247.57l.83,2.51h1.3l-2.65-7.59h-1.56l-2.73,7.59h1.29l.83-2.51Zm-2.38-1,1.06-3.12,1,3.12Zm10.64-.85a1.84,1.84,0,0,0-2.08-1.68,2.2,2.2,0,0,0-1.47.45l-.4.68v-1h-1.21v5.84h1.21v-2.62c0-1.83.69-2.49,1.52-2.49a1.11,1.11,0,0,1,1.23,1.13,7.68,7.68,0,0,1,0,.82v3.16h1.21v-3.29A9.43,9.43,0,0,0,1127,245.76Zm5.07,4.32h1.2a9.91,9.91,0,0,1-.11-1.49v-2.05a7.21,7.21,0,0,0,0-.83c-.09-1-.69-1.63-2.2-1.63a2.13,2.13,0,0,0-2.36,2h1.21c.07-.73.43-1.13,1.13-1.13s1,.33,1,.81c0,.22,0,.41,0,.63v.15h-.38c-2.21,0-3.24.7-3.24,2a1.69,1.69,0,0,0,1.88,1.68,2.53,2.53,0,0,0,1.45-.37l.3-.63Zm-1.42-.73c-.64,0-1-.28-1-.9,0-.89.93-1.21,2.35-1.1v.54A1.28,1.28,0,0,1,1130.68,249.35Zm5.4-7.36h-1.21v6.34c0,.35,0,.62,0,.84,0,.74.47,1,1.11,1a6.43,6.43,0,0,0,.79,0v-.85c-.51,0-.67-.06-.69-.39,0-.18,0-.36,0-.55Zm7,2.25h-1.31l-1.59,4.94-1.61-4.94h-1.35l2.35,6.11-.08.21a1.19,1.19,0,0,1-1.19.92,2.75,2.75,0,0,1-.39,0v.9a3.33,3.33,0,0,0,.58,0c1,0,1.68-.55,2.22-1.94Zm2.86-.16c-1.29,0-2.15.66-2.15,1.75s.79,1.48,1.86,1.75,1.38.54,1.38,1-.45.74-1,.74a1.16,1.16,0,0,1-1.24-1h-1.22a2.14,2.14,0,0,0,2.42,1.9c1.27,0,2.27-.56,2.27-1.69s-.67-1.54-1.94-1.87c-.87-.23-1.3-.45-1.3-1s.27-.76.85-.76a1.05,1.05,0,0,1,1.07,1h1.24A2,2,0,0,0,1146,244.08Zm4.15-1.88a.7.7,0,1,0,.71.7A.69.69,0,0,0,1150.1,242.2Zm.6,7.88v-5.84h-1.21v5.84Zm3.62-6c-1.3,0-2.16.66-2.16,1.75s.8,1.48,1.86,1.75,1.39.54,1.39,1-.45.74-1,.74a1.17,1.17,0,0,1-1.25-1h-1.22a2.14,2.14,0,0,0,2.42,1.9c1.28,0,2.28-.56,2.28-1.69s-.67-1.54-2-1.87c-.87-.23-1.3-.45-1.3-1a.74.74,0,0,1,.85-.76,1.05,1.05,0,0,1,1.08,1h1.23A2,2,0,0,0,1154.32,244.08Zm11.5,4a1.94,1.94,0,0,0-1-1.75,1.8,1.8,0,0,0,1.4-1.81,1.93,1.93,0,0,0-1.92-2,8.79,8.79,0,0,0-1,0h-2.61v7.59h1.21v-3.17h1.73c.7.05,1,.55,1.09,1.35a6.31,6.31,0,0,0,.39,1.81h1.33A3.85,3.85,0,0,1,1165.82,248.12Zm-4-2.14v-2.53h1.34a4.47,4.47,0,0,1,.7,0,1.09,1.09,0,0,1,1.06,1.22,1.16,1.16,0,0,1-1.16,1.24,4.25,4.25,0,0,1-.68,0Zm10.7,1c0-1.65-.92-2.93-2.61-2.93a2.84,2.84,0,0,0-2.86,3.09c0,2.07,1.18,3.06,2.74,3.06a2.49,2.49,0,0,0,2.64-2h-1.22a1.33,1.33,0,0,1-1.38,1.16c-.79,0-1.43-.46-1.53-1.86h4.19A3.18,3.18,0,0,0,1172.51,247Zm-2.66-2c.85,0,1.32.61,1.41,1.69h-3C1168.44,245.52,1169,245,1169.85,245Zm5.87-.88c-1.29,0-2.15.66-2.15,1.75s.79,1.48,1.86,1.75,1.38.54,1.38,1-.45.74-1,.74a1.16,1.16,0,0,1-1.24-1h-1.22a2.14,2.14,0,0,0,2.42,1.9c1.27,0,2.27-.56,2.27-1.69s-.67-1.54-1.94-1.87c-.87-.23-1.3-.45-1.3-1s.27-.76.85-.76a1.05,1.05,0,0,1,1.07,1H1178A2,2,0,0,0,1175.72,244.08Zm8.63.16h-1.2V247c0,1.69-.63,2.34-1.48,2.34a1.14,1.14,0,0,1-1.25-1.06,6.31,6.31,0,0,1-.05-.8v-3.23h-1.2v3.47a5.91,5.91,0,0,0,.06,1,1.87,1.87,0,0,0,2,1.48,2.31,2.31,0,0,0,1.48-.43l.4-.72v1h1.2Zm2.9-2.25H1186v6.34c0,.35,0,.62,0,.84,0,.74.48,1,1.11,1a6.73,6.73,0,0,0,.8,0v-.85c-.52,0-.68-.06-.7-.39,0-.18,0-.36,0-.55Zm3.34,3.14h1.15v-.85h-1.15v-1.4h-1.2v1.4h-.82v.85h.82v3.17c0,.33,0,.58,0,.78.06.77.45,1.11,1.37,1.11a5.51,5.51,0,0,0,.89-.07v-.83c-.79.07-1,0-1.06-.62,0-.15,0-.29,0-.48Zm4.31-1c-1.3,0-2.15.66-2.15,1.75s.79,1.48,1.86,1.75,1.38.54,1.38,1-.45.74-1,.74a1.16,1.16,0,0,1-1.24-1h-1.22a2.14,2.14,0,0,0,2.42,1.9c1.27,0,2.27-.56,2.27-1.69s-.67-1.54-1.94-1.87c-.87-.23-1.3-.45-1.3-1a.73.73,0,0,1,.84-.76,1.05,1.05,0,0,1,1.08,1h1.23A2,2,0,0,0,1194.9,244.08Z" transform="translate(594.29 560.92)"/><rect class="cls-5" x="1500" y="1021" width="200" height="96" rx="13.33"/><rect class="cls-6" x="1508.89" y="1036.11" width="182.22" height="87.11" rx="13.33"/><path class="cls-1" d="M992.55,490.77c-6.34,0-8.83,4.32-8.83,11.49s2.49,11.49,8.83,11.49,8.83-4.39,8.83-11.49S998.85,490.77,992.55,490.77Zm0,19.27c-2.4,0-3.55-2.28-3.55-7.78s1.15-7.78,3.55-7.78,3.55,2.21,3.55,7.78S995,510,992.55,510Zm15-2.12a2.92,2.92,0,1,0,2.91,2.92A2.79,2.79,0,0,0,1007.57,507.92Zm14.77-17.15c-4.57,0-8.61,2.88-8.61,8.13,0,3.94,2.31,7.14,7.24,7.14a5.75,5.75,0,0,0,3.9-1.22l1.09-2c-.16,5.09-1.57,7.24-3.91,7.24-1.66,0-2.59-.8-3-2.6l-.07-.32h-5l0,.32c.38,3.88,3,6.31,7.74,6.31,5.57,0,9.32-4.13,9.32-12.07C1031.05,494.1,1028.07,490.77,1022.34,490.77Zm.1,11.55c-2.27,0-3.43-1.66-3.43-4,0-2.08,1.22-3.81,3.36-3.81s3.36,1.6,3.36,3.94C1025.73,501,1024.23,502.32,1022.44,502.32Z" transform="translate(594.29 560.92)"/><path class="cls-1" d="M1036.27,487.87c-1.55,0-2.57.74-2.57,1.94s.75,1.57,1.91,1.86,1.48.5,1.48.94-.35.57-.79.57a1,1,0,0,1-1-.89h-1.79c.16,1.39,1.26,2.06,2.83,2.06s2.61-.6,2.61-1.88-.76-1.65-2-2-1.43-.5-1.43-.92a.57.57,0,0,1,.63-.57c.45,0,.72.29.82.8h1.79A2.26,2.26,0,0,0,1036.27,487.87Zm9.93,3.13a2.92,2.92,0,0,0-3-3.13,3.08,3.08,0,0,0-3.19,3.26,2.91,2.91,0,0,0,3.07,3.22,2.83,2.83,0,0,0,3-2.17h-1.79a1.1,1.1,0,0,1-1.17.92c-.68,0-1.19-.34-1.3-1.52h4.33C1046.19,491.36,1046.2,491.16,1046.2,491Zm-3.06-1.88c.67,0,1.07.45,1.18,1.31h-2.43C1042,489.52,1042.49,489.12,1043.14,489.12Zm7.44-1.25a3.05,3.05,0,0,0-3.16,3.29,2.89,2.89,0,0,0,3,3.19,2.77,2.77,0,0,0,3-2.34h-1.8a1.16,1.16,0,0,1-1.13,1.09c-.75,0-1.25-.62-1.25-2.05s.49-1.93,1.25-1.93c.6,0,1,.34,1.16,1.19h1.77A2.65,2.65,0,0,0,1050.58,487.87Z" transform="translate(594.29 560.92)"/><path class="cls-1" d="M987.73,522a2.58,2.58,0,0,0-2.86,2.42c0,1.42,1,2,2.57,2.38s2.11.82,2.11,1.86-.8,1.43-1.78,1.43a2.08,2.08,0,0,1-2.16-1.76h-1.14c.19,1.65,1.38,2.61,3.27,2.61,1.66,0,3-1,3-2.48s-1-2.22-2.84-2.66c-1.3-.3-1.84-.7-1.84-1.63s.72-1.32,1.63-1.32a1.69,1.69,0,0,1,1.82,1.71h1.14A2.67,2.67,0,0,0,987.73,522Zm7.6,2a2.92,2.92,0,0,0-1.74.52l-.5.71v-1.06H992v9h1.07v-3.34l.44.64a2.78,2.78,0,0,0,1.58.44c1.7,0,3.22-1.13,3.22-3.57C998.33,525.42,997.26,524,995.33,524Zm-.22,6.12a2.06,2.06,0,0,1-2-2.35v-.36c0-1.9,1-2.59,2.08-2.59,1.32,0,2,1.18,2,2.67C997.16,529.2,996.27,530.1,995.11,530.1Zm9.93-2.84c0-1.93-1-3.28-2.82-3.28s-3.14,1.35-3.14,3.49c0,2.33,1.28,3.45,3,3.45a2.71,2.71,0,0,0,2.88-2.3h-1.12a1.67,1.67,0,0,1-1.71,1.48c-1,0-1.79-.59-1.89-2.33H1005C1005,527.53,1005,527.36,1005,527.26Zm-2.85-2.46c1.09,0,1.67.78,1.77,2.15h-3.71C1000.38,525.54,1001.15,524.8,1002.19,524.8Zm9.68,2.46c0-1.93-1-3.28-2.82-3.28s-3.14,1.35-3.14,3.49c0,2.33,1.28,3.45,3,3.45a2.71,2.71,0,0,0,2.88-2.3h-1.12a1.67,1.67,0,0,1-1.71,1.48c-1,0-1.79-.59-1.89-2.33h4.78C1011.87,527.53,1011.87,527.36,1011.87,527.26ZM1009,524.8c1.09,0,1.67.78,1.77,2.15h-3.71C1007.21,525.54,1008,524.8,1009,524.8Zm10-3.2H1018v3.46l-.43-.65A2.92,2.92,0,0,0,1016,524c-1.7,0-3.22,1.13-3.22,3.57,0,1.93,1.07,3.37,3,3.37a2.92,2.92,0,0,0,1.74-.52l.5-.71v1.06h1.07Zm-3.15,8.5c-1.32,0-2-1.18-2-2.68,0-1.73.9-2.62,2.05-2.62a2.06,2.06,0,0,1,2,2.35v.36C1018,529.4,1017,530.1,1015.9,530.1Zm9.12.65v-8.59H1024v8.59Zm7.44-4.85a2.08,2.08,0,0,0-2.35-1.92,2.53,2.53,0,0,0-1.72.54l-.41.76v-1.13h-1.07v6.6H1028v-2.9c0-2.26.87-3,1.91-3a1.34,1.34,0,0,1,1.5,1.35c0,.33,0,.61,0,.94v3.64h1.07V527C1032.49,526.5,1032.49,526.24,1032.46,525.9Zm7.59-4.3H1039v3.46l-.43-.65A2.92,2.92,0,0,0,1037,524c-1.7,0-3.22,1.13-3.22,3.57,0,1.93,1.07,3.37,3,3.37a2.92,2.92,0,0,0,1.74-.52l.5-.71v1.06h1.07Zm-3.15,8.5c-1.32,0-2-1.18-2-2.68,0-1.73.9-2.62,2-2.62a2.06,2.06,0,0,1,2,2.35v.36C1039,529.4,1038,530.1,1036.9,530.1Zm10.46-2.84c0-1.93-1-3.28-2.83-3.28s-3.13,1.35-3.13,3.49c0,2.33,1.28,3.45,3,3.45a2.7,2.7,0,0,0,2.87-2.3h-1.12a1.66,1.66,0,0,1-1.7,1.48c-1,0-1.8-.59-1.89-2.33h4.77A3.84,3.84,0,0,0,1047.36,527.26Zm-2.85-2.46c1.08,0,1.67.78,1.77,2.15h-3.71C1042.69,525.54,1043.46,524.8,1044.51,524.8Zm6.68,2.59,2.32-3.24h-1.23l-1.66,2.55-1.65-2.55h-1.27l2.27,3.26-2.36,3.34h1.23l1.72-2.66,1.73,2.66h1.24Z" transform="translate(594.29 560.92)"/><g class="cls-31"><path class="cls-32" d="M934.49,494a22.25,22.25,0,1,1-1.7,1.88l17.3,14Z" transform="translate(594.29 560.92)"/></g><g class="cls-33"><path class="cls-34" d="M934.49,494a22.22,22.22,0,1,0,15.76-6.39l-.16,22.22Z" transform="translate(594.29 560.92)"/></g><circle class="cls-5" cx="1544.38" cy="1070.71" r="13.33"/><rect class="cls-5" x="1652" y="1189" width="79" height="79" rx="19.75"/><circle class="cls-35" cx="1691.5" cy="1228.5" r="26.72"/><path class="cls-21" d="M1072.77,656.78A26.72,26.72,0,1,0,1097,640.86l.19,26.72Z" transform="translate(594.29 560.92)"/><circle class="cls-5" cx="1691.5" cy="1228.5" r="23.24"/><path class="cls-36" d="M1094.16,679.7l1.82-9.07-7.27-2.73,12.71-13.61-1.81,9.08,7.26,2.72Z" transform="translate(594.29 560.92)"/><path class="cls-37" d="M1094.16,679.7l1.82-9.07-7.27-2.73,12.71-13.61-1.81,9.08,7.26,2.72Z" transform="translate(594.29 560.92)"/><rect class="cls-5" x="1943" y="823" width="55" height="55" rx="13.96"/><g class="cls-38"><path class="cls-39" d="M1376.76,303.11a13,13,0,1,0-13-13A13,13,0,0,0,1376.76,303.11Z" transform="translate(594.29 560.92)"/><path class="cls-40" d="M1376.76,303.11a13,13,0,1,0-13-13A13,13,0,0,0,1376.76,303.11Z" transform="translate(594.29 560.92)"/><path class="cls-41" d="M1376.76,290.13l5.84-5.84" transform="translate(594.29 560.92)"/><path class="cls-41" d="M1373.22,272.43h7.08" transform="translate(594.29 560.92)"/></g><g class="cls-42"><rect class="cls-1" x="1719" y="1004" width="30" height="30" rx="7.61"/><g class="cls-43"><path class="cls-39" d="M1139.49,465.83a7.08,7.08,0,1,0-7.08-7.08A7.08,7.08,0,0,0,1139.49,465.83Z" transform="translate(594.29 560.92)"/><path class="cls-44" d="M1139.49,465.83a7.08,7.08,0,1,0-7.08-7.08A7.08,7.08,0,0,0,1139.49,465.83Z" transform="translate(594.29 560.92)"/><path class="cls-45" d="M1139.49,458.75l3.18-3.19" transform="translate(594.29 560.92)"/><path class="cls-45" d="M1137.56,449.1h3.86" transform="translate(594.29 560.92)"/></g></g><rect class="cls-5" x="1889" y="960" width="233.1" height="76.65" rx="17.85"/><rect class="cls-6" x="1897.4" y="973.65" width="216.3" height="70.35" rx="17.85"/><path class="cls-1" d="M1411.86,425v-1h-8.5v1H1407v9.12h1.26V425Zm3.4,1.12c-2.64,0-3.86,1.9-3.86,4.1s1.22,4.1,3.86,4.1,3.87-1.91,3.87-4.1S1417.91,426.08,1415.26,426.08Zm0,7.23c-1.57,0-2.48-1.3-2.48-3.13s.91-3.13,2.48-3.13,2.49,1.3,2.49,3.13S1416.84,433.31,1415.26,433.31Zm6.91-6h1.46v-1h-1.46v-1.81h-1.26v1.81h-1.05v1h1.05v4.54c0,.44,0,.76,0,1,.08,1,.58,1.37,1.55,1.37a6.59,6.59,0,0,0,1.07-.08v-.92c-1,.11-1.29-.05-1.35-.8a5.44,5.44,0,0,1,0-.6Zm7.56,6.76H1431a13.32,13.32,0,0,1-.15-2v-2.92c0-.34,0-.72,0-1-.13-1.28-.91-2.06-2.77-2.06a2.71,2.71,0,0,0-3,2.62h1.32c.09-1.07.62-1.65,1.67-1.65s1.46.47,1.52,1.19c0,.3,0,.61,0,.94v.21h-.5c-3.06,0-4.38.91-4.38,2.67a2.23,2.23,0,0,0,2.51,2.22,3.37,3.37,0,0,0,2-.48l.42-.84Zm-2.08-.77c-1,0-1.56-.41-1.56-1.35,0-1.34,1.35-1.79,3.5-1.63v.79C1429.59,432.54,1428.82,433.31,1427.65,433.31Zm6.63-10H1433v8.62c0,.42,0,.76,0,1,0,1,.59,1.22,1.32,1.22a6.58,6.58,0,0,0,.9-.06v-.91c-.69.07-.93-.09-1-.59,0-.25,0-.5,0-.74Zm11.07,5.41a2.19,2.19,0,0,0,1.72-2.22c0-1.44-.9-2.25-2.5-2.47a11.74,11.74,0,0,0-1.32-.05h-3v10.14h3.27a8.16,8.16,0,0,0,1.29-.07,2.83,2.83,0,0,0,2.62-2.92A2.29,2.29,0,0,0,1445.35,428.68Zm-3.82-3.72h1.82a7.68,7.68,0,0,1,.81,0c.91.11,1.56.58,1.56,1.58a1.51,1.51,0,0,1-1.43,1.67,4.55,4.55,0,0,1-.81.06h-2Zm2.89,8.06-.7,0h-2.19v-3.72h2.1a6.85,6.85,0,0,1,.81.06,1.65,1.65,0,0,1,1.64,1.84A1.68,1.68,0,0,1,1444.42,433Zm5.88-9.75H1449v8.62c0,.42,0,.76,0,1,0,1,.59,1.22,1.32,1.22a6.58,6.58,0,0,0,.9-.06v-.91c-.69.07-.92-.09-1-.59,0-.25,0-.5,0-.74Zm5.65,2.81c-2.65,0-3.87,1.9-3.87,4.1s1.22,4.1,3.87,4.1,3.86-1.91,3.86-4.1S1458.59,426.08,1456,426.08Zm0,7.23c-1.58,0-2.49-1.3-2.49-3.13s.91-3.13,2.49-3.13,2.48,1.3,2.48,3.13S1457.52,433.31,1456,433.31Zm8.4-7.23c-1.95,0-3.66,1.49-3.66,4.12,0,2.85,1.5,4.08,3.47,4.08a3.2,3.2,0,0,0,3.41-2.69h-1.32a2,2,0,0,1-2,1.72c-1.16,0-2.16-.94-2.16-3.2,0-2.1,1-3.06,2.24-3.06,1,0,1.72.6,2,1.85h1.33A3.11,3.11,0,0,0,1464.35,426.08Zm9.61,8h1.72L1472,430l3.63-3.67H1474l-3.63,3.92v-6.94h-1.27v10.81h1.27v-2.49l.73-.8Zm3.47-10.35a.81.81,0,0,0,0,1.62.81.81,0,0,0,0-1.62Zm.64,10.35v-7.79h-1.27v7.79Zm8.79-5.72a2.46,2.46,0,0,0-2.78-2.28,3,3,0,0,0-2,.65l-.48.9v-1.34h-1.27v7.79h1.27v-3.43c0-2.66,1-3.57,2.25-3.57a1.6,1.6,0,0,1,1.78,1.59c0,.4,0,.72,0,1.12v4.29h1.26V429.7C1486.89,429.07,1486.89,428.76,1486.86,428.36Zm9-2.07h-1.26v1.07l-.51-.76a3.32,3.32,0,0,0-1.87-.52c-2,0-3.81,1.34-3.81,4.22,0,2.28,1.27,4,3.54,4a3.5,3.5,0,0,0,2.06-.61l.59-.84V433c0,.24,0,.49,0,.85a2.24,2.24,0,0,1-2.44,2.39c-1.34,0-2.11-.67-2.21-1.62v-.13h-1.28v.14c.16,1.65,1.27,2.58,3.49,2.58a3.33,3.33,0,0,0,3.7-3.49c0-.42,0-1,0-1.51Zm-3.71,7c-1.56,0-2.36-1.39-2.36-3.16,0-2,1.06-3.1,2.43-3.1,1.12,0,2.38.77,2.38,2.78v.43C1494.56,432.49,1493.4,433.31,1492.11,433.31ZM1411.86,443v-1h-8.5v1H1407v9.12h1.26V443Zm1.72-1.23a.81.81,0,1,0,.81.81A.79.79,0,0,0,1413.58,441.73Zm.63,10.35v-7.79H1413v7.79Zm12.6-6.1a2.2,2.2,0,0,0-2.36-1.9,2.53,2.53,0,0,0-1.65.46l-.69,1a2.2,2.2,0,0,0-2.25-1.46,2.48,2.48,0,0,0-1.64.46l-.5.88v-1.13h-1.27v7.79h1.27v-3.85c0-2.37.72-3.15,1.7-3.15a1.41,1.41,0,0,1,1.56,1.31,14.49,14.49,0,0,1,.06,1.51v4.18h1.26v-3.85c0-2.37.72-3.15,1.71-3.15a1.41,1.41,0,0,1,1.56,1.31,15,15,0,0,1,0,1.51v4.18h1.27v-4.76A7.89,7.89,0,0,0,1426.81,446Zm8.61,2c0-2.28-1.19-3.88-3.34-3.88s-3.7,1.6-3.7,4.13c0,2.75,1.51,4.07,3.54,4.07a3.2,3.2,0,0,0,3.4-2.72H1434a2,2,0,0,1-2,1.75c-1.15,0-2.12-.69-2.23-2.74h5.64A5.41,5.41,0,0,0,1435.42,448Zm-3.37-2.91c1.28,0,2,.93,2.09,2.55h-4.38C1429.91,445.93,1430.82,445.05,1432.05,445.05Z" transform="translate(594.29 560.92)"/><path class="cls-1" d="M1333.25,425.8h-2.76a9.17,9.17,0,0,0-4.69,1.32l-6.24,3.63v5.4l7.75-4.15v19.88h5.94Zm14.11-.53c-7.48,0-10.43,5.1-10.43,13.57s3,13.57,10.43,13.57,10.43-5.18,10.43-13.57S1354.81,425.27,1347.36,425.27Zm0,22.75c-2.83,0-4.19-2.68-4.19-9.18s1.36-9.19,4.19-9.19,4.2,2.61,4.2,9.19S1350.2,448,1347.36,448Z" transform="translate(594.29 560.92)"/><path class="cls-11" d="M1359.81,415.88h0a9.45,9.45,0,0,1,9.45,9.45h0a9.45,9.45,0,0,1-9.45,9.45h0a9.45,9.45,0,0,1-9.45-9.45h0A9.45,9.45,0,0,1,1359.81,415.88Z" transform="translate(594.29 560.92)"/><path class="cls-16" d="M1360.76,424.08a1.36,1.36,0,0,0-1.47-1.12,1.6,1.6,0,0,0-1,.26l-.45.6a1.38,1.38,0,0,0-1.39-.86,1.61,1.61,0,0,0-1,.26l-.34.55v-.69h-1.32v4.47h1.32v-2.32c0-.92.25-1.36.75-1.36a.67.67,0,0,1,.71.69,5.38,5.38,0,0,1,0,.68v2.31H1358v-2.32c0-.92.25-1.36.75-1.36a.68.68,0,0,1,.71.69,5.31,5.31,0,0,1,0,.68v2.31h1.32v-2.64A6.18,6.18,0,0,0,1360.76,424.08Zm3.41-1.12c-1.13,0-1.87.54-1.87,1.41s.55,1.14,1.39,1.35,1.08.36,1.08.68-.26.42-.58.42a.76.76,0,0,1-.76-.64h-1.3c.12,1,.91,1.49,2.06,1.49s1.89-.44,1.89-1.37-.55-1.2-1.41-1.42-1.05-.37-1.05-.67a.42.42,0,0,1,.47-.41c.32,0,.52.21.59.58h1.3A1.64,1.64,0,0,0,1364.17,423Z" transform="translate(594.29 560.92)"/><line class="cls-46" x1="1980.88" y1="976.8" x2="1980.88" y2="1020.9"/><path class="cls-47" d="M1511.86,223.39l-2.15-4.31-2.15,4.31a8,8,0,0,1-3.54,3.54l-4.31,2.15,4.31,2.15a8,8,0,0,1,3.54,3.54l2.15,4.31,2.15-4.31a8,8,0,0,1,3.54-3.54l4.31-2.15-4.31-2.15A8,8,0,0,1,1511.86,223.39Zm-2.15,8.1a2.42,2.42,0,1,0-2.41-2.41A2.41,2.41,0,0,0,1509.71,231.49Z" transform="translate(594.29 560.92)"/><path class="cls-47" d="M830.52,780.72l-2.81-5.64-2.82,5.64a7.93,7.93,0,0,1-3.54,3.54l-5.64,2.82,5.64,2.82a7.9,7.9,0,0,1,3.54,3.53l2.82,5.65,2.81-5.65a7.9,7.9,0,0,1,3.54-3.53l5.65-2.82-5.65-2.82A7.93,7.93,0,0,1,830.52,780.72ZM827.71,790a2.9,2.9,0,1,0-2.9-2.89A2.89,2.89,0,0,0,827.71,790Z" transform="translate(594.29 560.92)"/></svg>