<svg width="61" height="61" viewBox="0 0 61 61" fill="none" xmlns="http://www.w3.org/2000/svg">
<path opacity="0.2" d="M45.75 51.4688V9.53125C45.75 7.42566 44.0431 5.71875 41.9375 5.71875L19.0625 5.71875C16.9569 5.71875 15.25 7.42566 15.25 9.53125L15.25 51.4688C15.25 53.5743 16.9569 55.2812 19.0625 55.2812H41.9375C44.0431 55.2812 45.75 53.5743 45.75 51.4688Z" fill="#F9C81B"/>
<path d="M45.75 51.4688V9.53125C45.75 7.42566 44.0431 5.71875 41.9375 5.71875L19.0625 5.71875C16.9569 5.71875 15.25 7.42566 15.25 9.53125L15.25 51.4688C15.25 53.5743 16.9569 55.2812 19.0625 55.2812H41.9375C44.0431 55.2812 45.75 53.5743 45.75 51.4688Z" stroke="#F9C81B" stroke-width="3.8125" stroke-linecap="round" stroke-linejoin="round"/>
<path d="M22.875 13.3438H38.125" stroke="#F9C81B" stroke-width="3.8125" stroke-linecap="round" stroke-linejoin="round"/>
</svg>
