<svg width="54" height="54" viewBox="0 0 54 54" fill="none" xmlns="http://www.w3.org/2000/svg">
<path opacity="0.2" d="M27 45.5625C37.2518 45.5625 45.5625 37.2518 45.5625 27C45.5625 16.7482 37.2518 8.4375 27 8.4375C16.7482 8.4375 8.4375 16.7482 8.4375 27C8.4375 37.2518 16.7482 45.5625 27 45.5625Z" fill="#F9C81B"/>
<path d="M27 16.875V27" stroke="#F9C81B" stroke-width="2.0625" stroke-linecap="round" stroke-linejoin="round"/>
<path d="M35.7685 32.0625L27 27" stroke="#F9C81B" stroke-width="2.0625" stroke-linecap="round" stroke-linejoin="round"/>
<path d="M38.8479 21.0342H47.2854V12.5967" stroke="#F9C81B" stroke-width="2.0625" stroke-linecap="round" stroke-linejoin="round"/>
<path d="M40.1257 40.1257C37.5297 42.7217 34.2221 44.4896 30.6214 45.2058C27.0206 45.9221 23.2883 45.5545 19.8964 44.1495C16.5046 42.7446 13.6055 40.3654 11.5658 37.3128C9.52617 34.2602 8.4375 30.6713 8.4375 27C8.4375 23.3287 9.52617 19.7398 11.5658 16.6872C13.6055 13.6346 16.5046 11.2554 19.8964 9.85049C23.2883 8.44554 27.0206 8.07794 30.6214 8.79418C34.2221 9.51042 37.5297 11.2783 40.1257 13.8743L47.2851 21.0338" stroke="#F9C81B" stroke-width="2.0625" stroke-linecap="round" stroke-linejoin="round"/>
</svg>
