<svg width="30" height="30" viewBox="0 0 30 30" fill="none" xmlns="http://www.w3.org/2000/svg">
<path opacity="0.2" d="M15 25.3125C20.6954 25.3125 25.3125 20.6954 25.3125 15C25.3125 9.30456 20.6954 4.6875 15 4.6875C9.30456 4.6875 4.6875 9.30456 4.6875 15C4.6875 20.6954 9.30456 25.3125 15 25.3125Z" fill="#EB5757"/>
<path d="M15 9.375V15" stroke="#EB5757" stroke-width="2.0625" stroke-linecap="round" stroke-linejoin="round"/>
<path d="M19.8714 17.8125L15 15" stroke="#EB5757" stroke-width="2.0625" stroke-linecap="round" stroke-linejoin="round"/>
<path d="M21.5822 11.6855H26.2697V6.99805" stroke="#EB5757" stroke-width="2.0625" stroke-linecap="round" stroke-linejoin="round"/>
<path d="M22.292 22.292C20.8498 23.7343 19.0123 24.7164 17.0119 25.1144C15.0114 25.5123 12.9379 25.308 11.0536 24.5275C9.16921 23.747 7.55862 22.4252 6.42547 20.7293C5.29232 19.0334 4.6875 17.0396 4.6875 15C4.6875 12.9604 5.29232 10.9666 6.42547 9.27069C7.55862 7.5748 9.16921 6.25303 11.0536 5.4725C12.9379 4.69197 15.0114 4.48775 17.0119 4.88566C19.0123 5.28357 20.8498 6.26574 22.292 7.70797L26.2695 11.6854" stroke="#EB5757" stroke-width="2.0625" stroke-linecap="round" stroke-linejoin="round"/>
</svg>
