<svg width="21" height="22" viewBox="0 0 21 22" fill="none" xmlns="http://www.w3.org/2000/svg">
<path fill-rule="evenodd" clip-rule="evenodd" d="M4.2 9.17676V6.71276C4.2 3.31013 6.95837 0.551758 10.361 0.551758C13.7636 0.551758 16.522 3.31013 16.522 6.71276V9.17676H17.754C19.1148 9.17676 20.218 10.2799 20.218 11.6408V19.0338C20.2187 20.3934 19.116 21.4971 17.7552 21.4978L2.964 21.4978C1.60356 21.4978 0.500551 20.3952 0.5 19.0348V11.6418C0.500665 10.2797 1.60437 9.17709 2.9652 9.17776L4.2 9.17676ZM10.361 3.01576C8.31755 3.01576 6.661 4.6723 6.661 6.71576V9.17976H14.054V6.71276C14.0524 4.67218 12.3989 3.01804 10.3581 3.01576L10.361 3.01576Z" fill="#858A8F"/>
</svg>
