<svg width="60" height="60" viewBox="0 0 60 60" fill="none" xmlns="http://www.w3.org/2000/svg">
<path opacity="0.2" d="M45.9088 14.0894C43.6438 11.8255 40.9217 10.0712 37.9244 8.94366C34.9271 7.81615 31.7236 7.34145 28.5281 7.55129C25.3326 7.76113 22.2187 8.65068 19.3946 10.1605C16.5704 11.6703 14.1011 13.7655 12.1517 16.3062C10.2023 18.8468 8.81764 21.7744 8.09036 24.8931C7.36309 28.0118 7.30992 31.2498 7.93441 34.3907C8.55891 37.5316 9.84668 40.503 11.7117 43.1063C13.5766 45.7096 15.9758 47.8848 18.7489 49.4865V41.2493L29.9989 16.8743L41.2489 41.2493V49.4865C44.2373 47.7603 46.7886 45.3699 48.7057 42.5002C50.6227 39.6304 51.854 36.3583 52.3045 32.9366C52.7549 29.515 52.4124 26.0357 51.3034 22.7676C50.1944 19.4995 48.3486 16.5302 45.9088 14.0894Z" fill="#F9C81B"/>
<path d="M30 52.5C42.4264 52.5 52.5 42.4264 52.5 30C52.5 17.5736 42.4264 7.5 30 7.5C17.5736 7.5 7.5 17.5736 7.5 30C7.5 42.4264 17.5736 52.5 30 52.5Z" stroke="#F9C81B" stroke-width="3.75" stroke-linecap="round" stroke-linejoin="round"/>
<path d="M33.75 43.125C33.75 42.1304 34.1451 41.1766 34.8484 40.4734C35.5516 39.7701 36.5054 39.375 37.5 39.375C38.4946 39.375 39.4484 39.7701 40.1516 40.4734C40.8549 41.1766 41.25 42.1304 41.25 43.125" stroke="#F9C81B" stroke-width="3.75" stroke-linecap="round" stroke-linejoin="round"/>
<path d="M18.75 43.125C18.75 42.1304 19.1451 41.1766 19.8484 40.4734C20.5516 39.7701 21.5054 39.375 22.5 39.375C23.4946 39.375 24.4484 39.7701 25.1516 40.4734C25.8549 41.1766 26.25 42.1304 26.25 43.125" stroke="#F9C81B" stroke-width="3.75" stroke-linecap="round" stroke-linejoin="round"/>
<path d="M33.75 52.187V43.125C33.75 42.1304 33.3549 41.1766 32.6516 40.4734C31.9484 39.7701 30.9946 39.375 30 39.375C29.0054 39.375 28.0516 39.7701 27.3484 40.4734C26.6451 41.1766 26.25 42.1304 26.25 43.125V52.1871" stroke="#F9C81B" stroke-width="3.75" stroke-linecap="round" stroke-linejoin="round"/>
<path d="M41.25 49.4909V41.25L30 16.875L18.75 41.25V49.4916" stroke="#F9C81B" stroke-width="3.75" stroke-linecap="round" stroke-linejoin="round"/>
<path d="M35.1922 28.125H24.8076" stroke="#F9C81B" stroke-width="3.75" stroke-linecap="round" stroke-linejoin="round"/>
</svg>
