<svg width="54" height="54" viewBox="0 0 54 54" fill="none" xmlns="http://www.w3.org/2000/svg">
<path opacity="0.2" d="M27 45.5625C37.2518 45.5625 45.5625 37.2518 45.5625 27C45.5625 16.7482 37.2518 8.4375 27 8.4375C16.7482 8.4375 8.4375 16.7482 8.4375 27C8.4375 37.2518 16.7482 45.5625 27 45.5625Z" fill="#0BAD4B"/>
<path d="M27 45.5625C37.2518 45.5625 45.5625 37.2518 45.5625 27C45.5625 16.7482 37.2518 8.4375 27 8.4375C16.7482 8.4375 8.4375 16.7482 8.4375 27C8.4375 37.2518 16.7482 45.5625 27 45.5625Z" stroke="#0BAD4B" stroke-width="2.06" stroke-miterlimit="10"/>
<path d="M27 27.0002L35.3527 18.6475" stroke="#0BAD4B" stroke-width="2.06" stroke-linecap="round" stroke-linejoin="round"/>
<path d="M21.9375 1.6875H32.0625" stroke="#0BAD4B" stroke-width="2.06" stroke-linecap="round" stroke-linejoin="round"/>
</svg>
