<svg width="51" height="51" viewBox="0 0 51 51" fill="none" xmlns="http://www.w3.org/2000/svg">
<path fill-rule="evenodd" clip-rule="evenodd" d="M25.5007 3.5726C31.2205 3.5726 36.4286 5.76449 40.3325 9.35317C38.419 9.30183 36.5095 10.4392 36.4305 13.0438C36.2696 18.3093 42.7268 19.4309 39.2474 30.0221L36.3693 38.7828L28.5308 15.6929C28.4094 15.3355 28.5506 15.1321 28.99 15.1321H31.206C31.3212 15.1321 31.4154 15.0337 31.4154 14.9133V13.6007C31.4154 13.4803 31.321 13.377 31.206 13.382C27.0093 13.5655 22.8374 13.5668 18.6905 13.382C18.575 13.3771 18.4812 13.4807 18.4812 13.6012V14.9138C18.4812 15.0341 18.5754 15.1325 18.6905 15.1325H20.9188C21.4144 15.1325 21.5532 15.2977 21.67 15.6172L24.8907 24.4252L20.0459 39.0546L12.082 15.5974C11.9833 15.3032 12.1027 15.1324 12.3861 15.1324H14.925C15.0402 15.1324 15.1343 15.0341 15.1343 14.9136V13.6011C15.1343 13.4807 15.0398 13.3763 14.925 13.3823C12.2612 13.5238 9.58718 13.5523 7.09632 13.5779C11.0051 7.55667 17.7872 3.57216 25.4993 3.57216L25.4993 3.5721L25.5007 3.5726ZM44.7854 15.0583C46.4703 18.1626 47.427 21.7193 47.427 25.4984C47.427 33.7926 42.8186 41.0115 36.0243 44.7377L42.8626 25.3691C43.922 22.3715 44.9054 18.3205 44.7849 15.0583H44.7849H44.7854ZM32.8416 46.1634C30.546 46.98 28.0757 47.4253 25.5007 47.4253C23.2821 47.4253 21.1416 47.0945 19.1235 46.4824L25.8784 27.1246L32.8415 46.1644L32.8416 46.1634ZM16.118 45.3203C8.703 41.8036 3.57387 34.2492 3.57387 25.4994C3.57387 22.2558 4.27947 19.1767 5.5441 16.4064L16.1185 45.3206L16.1185 45.3206L16.118 45.3203ZM25.5 1.51498C38.7432 1.51498 49.4835 12.2553 49.4835 25.4984C49.4835 38.7416 38.7432 49.4819 25.5 49.4819C12.2568 49.4819 1.51655 38.7416 1.51655 25.4984C1.51655 12.2553 12.2568 1.51498 25.5 1.51498ZM25.5 -0.000976562C39.5804 -0.000976562 51 11.4186 51 25.499C51 39.5795 39.5804 50.999 25.5 50.999C11.4196 50.999 0 39.5795 0 25.499C0 11.4186 11.4196 -0.000976562 25.5 -0.000976562Z" fill="#F9C81B"/>
</svg>
