<svg width="32" height="31" viewBox="0 0 32 31" fill="none" xmlns="http://www.w3.org/2000/svg">
<path fill-rule="evenodd" clip-rule="evenodd" d="M15.292 27.4209C8.39197 27.4209 4.14197 22.5649 4.14197 16.3979C4.11252 13.1269 5.41213 9.98414 7.74315 7.68931C10.0742 5.39449 13.2369 4.14422 16.507 4.22486C22.801 4.22486 27.498 8.09086 27.498 14.1939C27.498 19.7529 24.559 21.9579 21.619 21.9579C20.3577 22.0239 19.1601 21.3996 18.492 20.3279C17.4234 21.3222 16.0215 21.8808 14.562 21.8939C11.047 21.8939 9.26197 19.4019 9.26197 16.3939C9.20216 14.5314 9.91112 12.7263 11.2224 11.4023C12.5338 10.0783 14.332 9.35198 16.195 9.39386C17.2219 9.36167 18.2314 9.66459 19.071 10.2569L19.199 9.71386H22.234L20.734 16.7429C20.446 18.1489 20.766 19.2669 22.14 19.2669C23.833 19.2669 24.824 17.8609 24.824 14.1229C24.824 9.13886 20.894 6.80586 16.485 6.80586C13.9216 6.71405 11.4362 7.69658 9.62852 9.51641C7.82084 11.3362 6.85498 13.8281 6.96397 16.3909C6.96397 21.4389 10.191 24.7299 15.303 24.7299C17.2546 24.7448 19.1819 24.2958 20.926 23.4199L21.98 26.0079C19.8651 26.9137 17.5925 27.3939 15.292 27.4209H15.292ZM15.068 18.8899C15.9351 18.9234 16.778 18.5999 17.4 17.9949L18.422 13.2659C17.8404 12.6815 17.0463 12.3584 16.222 12.3709C15.2308 12.3617 14.2794 12.7602 13.5907 13.4731C12.902 14.186 12.5366 15.1506 12.58 16.1409C12.577 17.8039 13.376 18.8899 15.069 18.8899H15.068Z" fill="#858A8F"/>
</svg>
