<svg width="54" height="54" viewBox="0 0 54 54" fill="none" xmlns="http://www.w3.org/2000/svg">
<path opacity="0.2" d="M27 27C37.2518 27 45.5625 22.4669 45.5625 16.875C45.5625 11.2831 37.2518 6.75 27 6.75C16.7482 6.75 8.4375 11.2831 8.4375 16.875C8.4375 22.4669 16.7482 27 27 27Z" fill="#EB5757"/>
<path d="M27 27C37.2518 27 45.5625 22.4669 45.5625 16.875C45.5625 11.2831 37.2518 6.75 27 6.75C16.7482 6.75 8.4375 11.2831 8.4375 16.875C8.4375 22.4669 16.7482 27 27 27Z" stroke="#EB5757" stroke-width="2.06" stroke-linecap="round" stroke-linejoin="round"/>
<path d="M8.4375 16.875V27C8.4375 32.5919 16.7482 37.125 27 37.125C37.2518 37.125 45.5625 32.5919 45.5625 27V16.875" stroke="#EB5757" stroke-width="2.06" stroke-linecap="round" stroke-linejoin="round"/>
<path d="M8.4375 27V37.125C8.4375 42.7169 16.7482 47.25 27 47.25C37.2518 47.25 45.5625 42.7169 45.5625 37.125V27" stroke="#EB5757" stroke-width="2.06" stroke-linecap="round" stroke-linejoin="round"/>
</svg>
