<svg width="30" height="30" viewBox="0 0 30 30" fill="none" xmlns="http://www.w3.org/2000/svg">
<g opacity="0.2">
<path opacity="0.2" d="M4.3479 8.97852C4.26331 9.12246 4.21872 9.28639 4.21875 9.45335V20.5469C4.21875 20.7129 4.26284 20.8759 4.3465 21.0193C4.43017 21.1627 4.55042 21.2813 4.69495 21.363L14.5387 26.9269C14.6794 27.0064 14.8383 27.0482 15 27.0482V27.0482L15.1244 15.0001L4.34797 8.97856L4.3479 8.97852Z" fill="#0BAD4B"/>
</g>
<path d="M15.1244 15L15 27.0481" stroke="#0BAD4B" stroke-width="1.875" stroke-linecap="round" stroke-linejoin="round"/>
<path d="M25.7812 20.547V9.45351C25.7812 9.28749 25.7372 9.12445 25.6535 8.98105C25.5698 8.83765 25.4496 8.71905 25.3051 8.63735L15.4613 3.0735C15.3206 2.99395 15.1617 2.95215 15 2.95215C14.8383 2.95215 14.6794 2.99395 14.5387 3.0735L4.69495 8.63735C4.55042 8.71905 4.43017 8.83765 4.3465 8.98105C4.26284 9.12445 4.21875 9.28749 4.21875 9.45351V20.547C4.21875 20.713 4.26284 20.8761 4.3465 21.0195C4.43017 21.1629 4.55042 21.2815 4.69495 21.3632L14.5387 26.927C14.6794 27.0066 14.8383 27.0484 15 27.0484C15.1617 27.0484 15.3206 27.0066 15.4613 26.927L25.3051 21.3632C25.4496 21.2815 25.5698 21.1629 25.6535 21.0195C25.7372 20.8761 25.7813 20.713 25.7812 20.547V20.547Z" stroke="#0BAD4B" stroke-width="1.875" stroke-linecap="round" stroke-linejoin="round"/>
<path d="M25.6528 8.9798L15.1245 15.0001L4.34802 8.97852" stroke="#0BAD4B" stroke-width="1.875" stroke-linecap="round" stroke-linejoin="round"/>
</svg>
