<svg width="30" height="30" viewBox="0 0 30 30" fill="none" xmlns="http://www.w3.org/2000/svg">
<circle cx="15" cy="15" r="15" fill="#1B1D24" fill-opacity="0.5"/>
<path opacity="0.2" d="M13.9773 17.7273H15.3409V17.6591C15.3636 16.25 15.7273 15.6364 16.7273 15.0114C17.7273 14.4034 18.3182 13.5284 18.3182 12.2727C18.3182 10.5 17.0227 9.20455 15.0227 9.20455C13.1818 9.20455 11.7216 10.3409 11.6364 12.2727H13.0682C13.1534 10.9318 14.0909 10.3864 15.0227 10.3864C16.0909 10.3864 16.9545 11.0909 16.9545 12.2045C16.9545 13.108 16.4375 13.7557 15.7727 14.1591C14.6591 14.8352 13.9943 15.4943 13.9773 17.6591V17.7273ZM14.7045 21.0909C15.267 21.0909 15.7273 20.6307 15.7273 20.0682C15.7273 19.5057 15.267 19.0455 14.7045 19.0455C14.142 19.0455 13.6818 19.5057 13.6818 20.0682C13.6818 20.6307 14.142 21.0909 14.7045 21.0909Z" fill="white"/>
</svg>
