<svg width="24" height="24" viewBox="0 0 24 24" fill="none" xmlns="http://www.w3.org/2000/svg">
<path fill-rule="evenodd" clip-rule="evenodd" d="M11.2921 23.9209C4.39209 23.9209 0.142091 19.0649 0.142091 12.8979C0.112641 9.62691 1.41225 6.48414 3.74328 4.18931C6.0743 1.89449 9.23703 0.644224 12.5071 0.724864C18.8011 0.724864 23.4981 4.59086 23.4981 10.6939C23.4981 16.2529 20.5591 18.4579 17.6191 18.4579C16.3578 18.5239 15.1602 17.8996 14.4921 16.8279C13.4235 17.8222 12.0217 18.3808 10.5621 18.3939C7.04709 18.3939 5.26209 15.9019 5.26209 12.8939C5.20228 11.0314 5.91125 9.22627 7.22256 7.90227C8.53388 6.57828 10.3321 5.85198 12.1951 5.89386C13.222 5.86167 14.2315 6.16459 15.0711 6.75686L15.1991 6.21386H18.2341L16.7341 13.2429C16.4461 14.6489 16.7661 15.7669 18.1401 15.7669C19.8331 15.7669 20.8241 14.3609 20.8241 10.6229C20.8241 5.63886 16.8941 3.30586 12.4851 3.30586C9.92168 3.21405 7.43633 4.19658 5.62865 6.01641C3.82096 7.83625 2.85511 10.3281 2.96409 12.8909C2.96409 17.9389 6.19109 21.2299 11.3031 21.2299C13.2547 21.2448 15.182 20.7958 16.9261 19.9199L17.9801 22.5079C15.8653 23.4137 13.5926 23.8939 11.2921 23.9209H11.2921ZM11.0681 15.3899C11.9352 15.4234 12.7781 15.0999 13.4001 14.4949L14.4221 9.76586C13.8405 9.18146 13.0465 8.85842 12.2221 8.87086C11.2309 8.86168 10.2795 9.26023 9.59084 9.97312C8.90215 10.686 8.53669 11.6506 8.58009 12.6409C8.57709 14.3039 9.37609 15.3899 11.0691 15.3899H11.0681Z" fill="#858A8F"/>
</svg>
