<svg width="80" height="80" viewBox="0 0 80 80" fill="none" xmlns="http://www.w3.org/2000/svg">
<circle cx="40" cy="40" r="40" fill="#2A2C34"/>
<path opacity="0.5" fill-rule="evenodd" clip-rule="evenodd" d="M51.7202 38.5396H32.6262L40.9802 30.1876C41.3068 29.8766 41.4917 29.4452 41.4917 28.9941C41.4917 28.5431 41.3068 28.1117 40.9802 27.8006C40.6691 27.474 40.2377 27.2891 39.7867 27.2891C39.3356 27.2891 38.9042 27.474 38.5932 27.8006L27.5112 38.8806C26.8277 39.6615 26.8277 40.8277 27.5112 41.6086L38.5932 52.6876C38.9042 53.0143 39.3356 53.1992 39.7867 53.1992C40.2377 53.1992 40.6691 53.0143 40.9802 52.6876C41.3068 52.3766 41.4917 51.9452 41.4917 51.4941C41.4917 51.0431 41.3068 50.6117 40.9802 50.3006L32.6262 41.9466H51.7202C52.1785 41.9727 52.6263 41.802 52.9509 41.4774C53.2756 41.1527 53.4463 40.705 53.4202 40.2466C53.4483 39.7871 53.2786 39.3374 52.9537 39.0112C52.6288 38.685 52.1798 38.5133 51.7202 38.5396Z" fill="white"/>
</svg>
