<svg width="29" height="28" viewBox="0 0 29 28" fill="none" xmlns="http://www.w3.org/2000/svg">
<path opacity="0.3" fill-rule="evenodd" clip-rule="evenodd" d="M2.5 14C2.5 10.6863 3.67157 7.85786 6.01472 5.51472C8.35786 3.17157 11.1863 2 14.5 2C17.8137 2 20.6421 3.17157 22.9853 5.51472C25.3284 7.85786 26.5 10.6863 26.5 14C26.5 17.3137 25.3284 20.1421 22.9853 22.4853C20.6421 24.8284 17.8137 26 14.5 26C11.1863 26 8.35786 24.8284 6.01472 22.4853C3.67157 20.1421 2.5 17.3137 2.5 14Z" fill="#858A8F"/>
<path fill-rule="evenodd" clip-rule="evenodd" d="M7.69198 16.9929C7.46079 16.6465 7.43201 16.2031 7.61648 15.8298C7.80095 15.4564 8.17064 15.2099 8.58621 15.1831C9.00178 15.1563 9.40007 15.3533 9.63096 15.6999C10.979 17.7229 12.57 18.6769 14.488 18.6769C16.406 18.6769 17.997 17.7219 19.345 15.6999C19.702 15.1644 20.4255 15.0198 20.961 15.3769C21.4964 15.7339 21.641 16.4574 21.284 16.9929C19.525 19.6319 17.231 21.0079 14.484 21.0079C11.737 21.0079 9.44698 19.6319 7.69198 16.9929Z" fill="#858A8F"/>
</svg>
