<svg width="80" height="80" viewBox="0 0 80 80" fill="none" xmlns="http://www.w3.org/2000/svg">
<circle cx="40" cy="40" r="40" transform="rotate(-180 40 40)" fill="#2A2C34"/>
<path opacity="0.5" fill-rule="evenodd" clip-rule="evenodd" d="M28.2798 41.4608L47.3738 41.4609L39.0198 49.8128C38.6932 50.1239 38.5083 50.5553 38.5083 51.0063C38.5083 51.4574 38.6932 51.8888 39.0198 52.1998C39.3309 52.5265 39.7623 52.7114 40.2133 52.7114C40.6644 52.7114 41.0958 52.5265 41.4068 52.1998L52.4888 41.1199C53.1723 40.339 53.1723 39.1727 52.4888 38.3919L41.4068 27.3129C41.0958 26.9862 40.6644 26.8013 40.2133 26.8013C39.7623 26.8013 39.3309 26.9862 39.0198 27.3129C38.6932 27.6239 38.5083 28.0553 38.5083 28.5064C38.5083 28.9574 38.6932 29.3888 39.0198 29.6999L47.3738 38.0539L28.2798 38.0538C27.8215 38.0277 27.3737 38.1984 27.0491 38.5231C26.7244 38.8477 26.5537 39.2955 26.5798 39.7539C26.5517 40.2134 26.7214 40.6631 27.0463 40.9893C27.3712 41.3155 27.8202 41.4871 28.2798 41.4608Z" fill="white"/>
</svg>
