<svg width="15" height="15" viewBox="0 0 15 15" fill="none" xmlns="http://www.w3.org/2000/svg">
<path fill-rule="evenodd" clip-rule="evenodd" d="M0.969389 8.32117L11.8061 8.32117L7.06727 13.0623C6.88191 13.2388 6.77701 13.4836 6.77701 13.7395C6.77701 13.9955 6.88191 14.2403 7.06727 14.4168C7.24378 14.6021 7.48856 14.707 7.74451 14.707C8.00047 14.707 8.24524 14.6021 8.42176 14.4168L14.7093 8.12777C15.0969 7.68463 15.0969 7.02303 14.7093 6.57989L8.42025 0.290884C8.24373 0.105533 7.99896 0.000627518 7.743 0.000627518C7.48705 0.000627518 7.24227 0.105533 7.06576 0.290884H7.06575C6.8804 0.467403 6.7755 0.712174 6.7755 0.968131C6.7755 1.22409 6.8804 1.46886 7.06575 1.64538L11.8061 6.38574L0.969389 6.38574C0.708203 6.36991 0.452753 6.46677 0.26773 6.65179C0.0827036 6.83682 -0.0141592 7.09227 0.00167656 7.35345C-0.0141592 7.61464 0.0827036 7.87009 0.267727 8.05511C0.452752 8.24014 0.7082 8.337 0.969389 8.32117Z" fill="white"/>
</svg>
