<svg width="13" height="12" viewBox="0 0 13 12" fill="none" xmlns="http://www.w3.org/2000/svg">
<path opacity="0.5" fill-rule="evenodd" clip-rule="evenodd" d="M11.4483 5.21054L2.60605 5.21054L6.47271 1.34204C6.62394 1.19801 6.70954 0.998284 6.70954 0.789436C6.70954 0.580588 6.62394 0.380866 6.47271 0.236836C6.32868 0.0855985 6.12896 1.07162e-06 5.92011 1.0351e-06C5.71126 9.98588e-07 5.51154 0.0855984 5.36751 0.236836L0.237234 5.36834C-0.0790793 5.72992 -0.0790794 6.26975 0.237234 6.63134L5.36874 11.7628C5.51277 11.9141 5.71249 11.9997 5.92134 11.9997C6.13019 11.9997 6.32991 11.9141 6.47394 11.7628L6.47394 11.7628C6.62518 11.6188 6.71077 11.4191 6.71077 11.2102C6.71077 11.0014 6.62518 10.8017 6.47394 10.6576L2.60605 6.78975L11.4483 6.78975C11.6614 6.80267 11.8698 6.72364 12.0208 6.57267C12.1718 6.4217 12.2508 6.21326 12.2379 6.00015C12.2508 5.78703 12.1718 5.5786 12.0208 5.42763C11.8698 5.27666 11.6614 5.19762 11.4483 5.21054Z" fill="white"/>
</svg>
