<svg xmlns="http://www.w3.org/2000/svg" viewBox="0 0 1240 405"><defs><style>.cls-1{fill:#fff;}.cls-2,.cls-4{fill:#ffdc60;}.cls-3{fill:#1265ff;}.cls-3,.cls-4,.cls-5{fill-rule:evenodd;}.cls-5{fill:#87b1ff;}</style></defs><title>Asset 3</title><g id="Layer_2" data-name="Layer 2"><g id="Layer_1-2" data-name="Layer 1"><rect class="cls-1" width="1240" height="405" rx="15"/><path class="cls-2" d="M855,298l2.15,4.31a8,8,0,0,0,3.54,3.54L865,308l-4.31,2.15a8,8,0,0,0-3.54,3.54L855,318l-2.15-4.31a8,8,0,0,0-3.54-3.54L845,308l4.31-2.15a8,8,0,0,0,3.54-3.54Z"/><path class="cls-3" d="M1156.48,76,1148,59l-8.48,17a8,8,0,0,1-3.54,3.54L1119,88l17,8.48a8,8,0,0,1,3.54,3.54l8.48,17,8.48-17a8,8,0,0,1,3.54-3.54L1177,88l-17-8.48A8,8,0,0,1,1156.48,76ZM1148,95a7,7,0,1,0-7-7A7,7,0,0,0,1148,95Z"/><path class="cls-3" d="M247.15,308.31,242,298l-5.15,10.31a7.93,7.93,0,0,1-3.54,3.54L223,317l10.31,5.15a7.93,7.93,0,0,1,3.54,3.54L242,336l5.15-10.31a7.93,7.93,0,0,1,3.54-3.54L261,317l-10.31-5.15A7.93,7.93,0,0,1,247.15,308.31ZM242,321.59a4.59,4.59,0,1,0-4.59-4.59A4.6,4.6,0,0,0,242,321.59Z"/><path class="cls-4" d="M143.82,87.65,137,74l-6.82,13.65a7.83,7.83,0,0,1-3.53,3.53L113,98l13.65,6.82a7.83,7.83,0,0,1,3.53,3.53L137,122l6.82-13.65a7.83,7.83,0,0,1,3.53-3.53L161,98l-13.65-6.82A7.83,7.83,0,0,1,143.82,87.65ZM137,103.79A5.79,5.79,0,1,0,131.21,98,5.79,5.79,0,0,0,137,103.79Z"/><path class="cls-5" d="M1097.15,232.31,1095,228l-2.15,4.31a8,8,0,0,1-3.54,3.54L1085,238l4.31,2.15a8,8,0,0,1,3.54,3.54L1095,248l2.15-4.31a8,8,0,0,1,3.54-3.54L1105,238l-4.31-2.15A8,8,0,0,1,1097.15,232.31Zm-2.15,8.1a2.41,2.41,0,1,0-2.41-2.41A2.41,2.41,0,0,0,1095,240.41Z"/></g></g></svg>