<svg xmlns="http://www.w3.org/2000/svg" viewBox="0 0 167.53 74.6"><defs><style>.cls-1{fill:#377dff;}.cls-2{fill:#22243a;}.cls-3{fill:#fff;}</style></defs><title>Asset 2</title><g id="Layer_2" data-name="Layer 2"><g id="Layer_1-2" data-name="Layer 1"><path class="cls-1" d="M5.93,47.2c3.3,2.9,21.5-2.4,30.2-5.4.5-1.9,3.6-7.2,5.1-9.6-11-5.2-33.5-15.4-35.1-14.5C-5.17,22.2,1.83,43.5,5.93,47.2Z"/><path class="cls-1" d="M29.23,3c-2.3,3.5,7.1,20.8,12.1,29.1,2-1.9,6.2-5.7,6.4-6.3.2-.8-4.8-24.6-5.1-25.1S32-1.3,29.23,3Z"/><circle class="cls-2" cx="57.83" cy="49.2" r="22"/><path class="cls-3" d="M60.23,52.5c9.4,0,11.1-3.1,11.1-6.1v-.3c0-3.6-2.6-5.2-9.4-5.4l-3.2-.1c-3.4-.1-3.9-.6-3.9-1.4h0c0-.7.4-1.3,3.9-1.3h.2c3.9,0,4.2,1.2,4.3,1.9h7.4v-.2c0-2.8-2-5.6-10.8-5.6h-2.1c-8.3,0-10.3,2.5-10.3,5.4v.2c0,2.8,1.8,5.2,8.8,5.4l3.3.1c3.7.1,4.2.7,4.2,1.6h0c0,.9-.6,1.7-4.4,1.7h-.2c-3.9,0-4.4-1.6-4.5-2.5h-7.5v.3c0,2.3,1,6.3,10.9,6.3Zm27.5-5.9c6.5,0,8.5-2.7,8.5-6v-.4c0-3.3-1.9-5.9-8.5-5.9H72.83V52.2h6.8V46.6Zm-8.1-7.8h7.2c1.6,0,2.3.6,2.3,1.6v.1c0,1-.7,1.6-2.3,1.6h-7.2Zm18.1-4.5V52.2h19.9V47.7h-13.2V45.3h12.8V41h-12.8V38.8h13V34.4H97.73Zm21.9,0V52.2h19.9V47.7h-13.2V45.3h12.8V41h-12.8V38.8h13V34.4h-19.7Zm21.9,17.9h12.7c10.6,0,12.9-4.6,12.9-8.7v-.7c0-4.2-2.6-8.4-12.9-8.4h-12.7Zm6.9-13.2h5.1c6,0,6.6,2.6,6.6,4.1v.1c0,1.6-.6,4.2-6.6,4.2h-5.1ZM48,54.9V74.2h7.3V62.5l12.2,11.7h7.4V54.9h-7.3v11l-11.2-11Zm36.7,0h-7.4V74.2h7.4Zm2.5,0V74.2h7.3V62.5l12.2,11.7h7.4V54.9h-7.3v11l-11.2-11Zm40.6,19.6c9.6,0,11-5.7,11-9.7V54.9h-7.4v9.8c0,2.5-1.2,4.3-4.3,4.3h-.2c-3.8,0-4.2-2.6-4.3-3.3h-7.3v.2c0,3.3,1.6,8.7,10.8,8.7h1.7Zm27.7-8.3h-6.4l3.2-6.7Zm3.9,8h8.1l-10.1-19.3h-9.9l-9.6,19.3h7.5l1.5-3.1h11Z"/></g></g></svg>