<svg width="136" height="136" viewBox="0 0 136 136" fill="none" xmlns="http://www.w3.org/2000/svg">
<circle cx="68" cy="68" r="68" fill="#EFDAC7"/>
<path d="M5.79919 40.5217C-0.131398 53.9463 -1.55954 68.9294 1.72811 83.2327C5.01576 97.5361 12.8427 110.392 24.0398 119.88C35.2369 129.368 49.2031 134.978 63.852 135.873C78.501 136.769 93.0464 132.9 105.316 124.847C117.585 116.793 126.919 104.986 131.924 91.1894C136.929 77.3929 137.336 62.3474 133.084 48.3005C128.832 34.2535 120.15 21.9591 108.334 13.2539C96.5186 4.54859 82.2036 -0.100311 67.5276 0.00164073L68 68L5.79919 40.5217Z" fill="#F2994A"/>
<circle cx="68" cy="68.0002" r="58.9934" fill="white"/>
</svg>
