<svg xmlns="http://www.w3.org/2000/svg" xmlns:xlink="http://www.w3.org/1999/xlink" viewBox="0 0 641 474.39"><defs><style>.cls-1,.cls-14,.cls-15,.cls-21,.cls-22,.cls-8{fill:none;}.cls-2{fill:#001a4b;fill-opacity:0.17;}.cls-3{fill:#1e2029;}.cls-17,.cls-20,.cls-4{fill:#f5f6fa;}.cls-4{fill-opacity:0.04;}.cls-5,.cls-7{fill:#bcbcbc;}.cls-10,.cls-6{fill:#fff;}.cls-18,.cls-19,.cls-7,.cls-9{fill-rule:evenodd;}.cls-7{opacity:0.3;}.cls-10,.cls-20,.cls-7{isolation:isolate;}.cls-8{stroke:#0bad4b;stroke-width:1.8px;}.cls-15,.cls-8{stroke-linecap:round;}.cls-15,.cls-21,.cls-22,.cls-8{stroke-linejoin:round;}.cls-9{fill:url(#linear-gradient);}.cls-10,.cls-20{opacity:0.7;}.cls-11,.cls-18{fill:#377dff;}.cls-12{fill:#0bad4b;}.cls-13{fill:#cddfff;}.cls-14{stroke:#1e2029;stroke-width:2.4px;}.cls-15{stroke:#cddfff;stroke-width:2.2px;}.cls-16{clip-path:url(#clip-path);}.cls-19,.cls-27{fill:#f9c81b;}.cls-21{stroke:#e8e7e8;}.cls-21,.cls-22{stroke-width:6px;}.cls-22{stroke:#f9c81b;}.cls-23,.cls-24,.cls-25,.cls-26,.cls-28{fill:#ffc800;}.cls-23{fill-opacity:0.24;}.cls-24{fill-opacity:0.4;}.cls-25{fill-opacity:0.56;}.cls-26{fill-opacity:0.72;}.cls-28{fill-opacity:0.64;}</style><linearGradient id="linear-gradient" x1="316.46" y1="336.85" x2="316.46" y2="687.72" gradientTransform="matrix(1, 0, 0, -1, 0, 475.51)" gradientUnits="userSpaceOnUse"><stop offset="0" stop-color="#0bad4b" stop-opacity="0"/><stop offset="1" stop-color="#0bad4b"/></linearGradient><clipPath id="clip-path"><rect class="cls-1" x="474.39" y="186.15" width="166.61" height="144.12"/></clipPath></defs><title>Asset 2</title><g id="Layer_2" data-name="Layer 2"><g id="Layer_1-2" data-name="Layer 1"><circle class="cls-2" cx="312.86" cy="248" r="226.39"/><rect class="cls-3" x="178.95" width="275.03" height="261.81" rx="33.63"/><rect class="cls-3" x="178.95" y="282.23" width="275.03" height="102.08" rx="33.63"/><rect class="cls-3" x="474.39" y="45.64" width="120.1" height="120.1" rx="28.82"/><rect class="cls-3" y="46" width="162" height="120" rx="28.82"/><rect class="cls-3" x="47" y="186" width="115.29" height="115.29" rx="28.82"/><rect class="cls-4" x="202.97" y="158.53" width="226.99" height="66.92" rx="13.21"/><path class="cls-5" d="M224.05,181h3.57v-.87H223V187h1.1v-3h3.19v-.87h-3.19Zm5-1.13a.64.64,0,1,0,0,1.27.64.64,0,1,0,0-1.27Zm.55,7.16v-5.31h-1.1V187Zm3.78-5.44a1.38,1.38,0,0,0-.82.3l-.45.73v-.9H231V187h1.1v-2.76c0-1.31.63-1.83,1.64-1.76v-.86A1,1,0,0,0,233.36,181.56Zm2.87,0c-1.18,0-2,.6-2,1.59s.72,1.34,1.69,1.59,1.26.49,1.26,1-.41.68-.92.68a1.06,1.06,0,0,1-1.13-1h-1.11a2,2,0,0,0,2.2,1.73c1.16,0,2.07-.51,2.07-1.54s-.61-1.4-1.77-1.7c-.79-.21-1.18-.41-1.18-.89s.25-.69.77-.69a1,1,0,0,1,1,.89h1.12A1.84,1.84,0,0,0,236.23,181.55Zm4.35.95h1v-.77h-1v-1.27h-1.09v1.27h-.75v.77h.75v2.88c0,.3,0,.53,0,.71.05.7.41,1,1.24,1a5.62,5.62,0,0,0,.81-.06v-.76c-.72.07-.92,0-1-.56,0-.14,0-.26,0-.44ZM246,187v-6.9h-1.1V187Zm6.11-3.93a1.68,1.68,0,0,0-1.89-1.52,2,2,0,0,0-1.34.41l-.36.61v-.88h-1.1V187h1.1v-2.38c0-1.66.62-2.26,1.38-2.26a1,1,0,0,1,1.12,1c0,.27,0,.5,0,.75V187h1.1v-3C252.18,183.58,252.17,183.34,252.15,183.07Zm4.26-1.52a2.32,2.32,0,0,0-1.39.4l-.4.57v-.83h-1.1V189h1.1v-2.68l.35.53a2.33,2.33,0,0,0,1.26.33,2.57,2.57,0,0,0,2.57-2.89A2.41,2.41,0,0,0,256.41,181.55Zm-.31,4.79c-.7,0-1.48-.48-1.48-1.78v-.27c0-1.42.71-1.94,1.53-1.94s1.49.85,1.49,2C257.64,185.67,257,186.34,256.1,186.34Zm8.31-4.65h-1.09v2.5c0,1.54-.58,2.13-1.35,2.13a1,1,0,0,1-1.14-1,7.2,7.2,0,0,1,0-.73v-2.94H259.7v3.16a6,6,0,0,0,.05.94,1.71,1.71,0,0,0,1.86,1.35,2.1,2.1,0,0,0,1.34-.39l.37-.66V187h1.09Zm2.71.81h1.05v-.77h-1.05v-1.27H266v1.27h-.75v.77H266v2.88c0,.3,0,.53,0,.71.05.7.4,1,1.24,1a5.73,5.73,0,0,0,.81-.06v-.76c-.72.07-.93,0-1-.56a3,3,0,0,1,0-.44Zm7.48-2.36a6.55,6.55,0,0,0-.89,0h-2.23V187h2.19a6.26,6.26,0,0,0,.88,0,3.23,3.23,0,0,0,2.83-3.49A3,3,0,0,0,274.6,180.14Zm-.24,5.94a4.36,4.36,0,0,1-.78,0h-1V181h1a4.35,4.35,0,0,1,.79.05c1.11.16,1.8,1,1.8,2.45S275.48,185.92,274.36,186.08Zm8.62-1.87a2.37,2.37,0,0,0-2.37-2.66,2.58,2.58,0,0,0-2.6,2.81c0,1.88,1.07,2.78,2.49,2.78a2.26,2.26,0,0,0,2.4-1.86h-1.11a1.21,1.21,0,0,1-1.25,1.06c-.72,0-1.3-.42-1.39-1.69H283A4,4,0,0,0,283,184.21Zm-2.41-1.86c.77,0,1.2.55,1.28,1.53h-2.69C279.28,182.86,279.82,182.35,280.57,182.35Zm4.52-2.7H284v5.76c0,.32,0,.56,0,.76,0,.68.43.89,1,.89a5.43,5.43,0,0,0,.72-.05v-.77c-.47,0-.61-.06-.63-.36s0-.32,0-.5Zm4.78,7.35H291a9.19,9.19,0,0,1-.1-1.35v-1.87c0-.25,0-.53,0-.75-.09-.9-.63-1.48-2-1.48a1.93,1.93,0,0,0-2.15,1.82h1.1c.06-.66.39-1,1-1s.9.3.93.73a5.62,5.62,0,0,1,0,.58v.13h-.34c-2,0-2.95.64-2.95,1.82a1.54,1.54,0,0,0,1.71,1.53,2.28,2.28,0,0,0,1.32-.34l.27-.57Zm-1.29-.66c-.58,0-.95-.26-.95-.82,0-.81.84-1.1,2.13-1V185A1.17,1.17,0,0,1,288.58,186.34Zm8.33-4.65h-1.19l-1.45,4.49-1.46-4.49h-1.23l2.14,5.56-.08.19a1.07,1.07,0,0,1-1.08.83h-.35v.81a2.69,2.69,0,0,0,.52,0c1,0,1.53-.5,2-1.76Z"/><path class="cls-6" d="M226.21,199.35a3,3,0,0,0-1.56.4l-.57.68.41-3.17h4.63V196H223.2l-.71,5.84H224a1.93,1.93,0,0,1,1.88-1.29,2.22,2.22,0,0,1,0,4.42,1.79,1.79,0,0,1-1.88-1.68l0-.15h-1.59l0,.15c.2,1.94,1.41,2.89,3.51,2.89a3.46,3.46,0,0,0,3.68-3.47A3.1,3.1,0,0,0,226.21,199.35ZM242,200a2.23,2.23,0,0,0-2.4-1.88,2.61,2.61,0,0,0-1.64.45l-.71,1a2.21,2.21,0,0,0-2.27-1.46,2.53,2.53,0,0,0-1.63.45l-.52.9v-1.14H231.2V206h1.59v-3.86c0-2.09.6-2.85,1.54-2.85a1.32,1.32,0,0,1,1.44,1.25,13.4,13.4,0,0,1,.06,1.39V206h1.57v-3.86c0-2.09.62-2.85,1.55-2.85a1.31,1.31,0,0,1,1.43,1.25,11.09,11.09,0,0,1,.06,1.39V206H242v-4.65A8.57,8.57,0,0,0,242,200Zm4.48-1.88c-1.71,0-2.83.87-2.83,2.3s1,1.94,2.44,2.3,1.83.71,1.83,1.38-.6,1-1.34,1a1.54,1.54,0,0,1-1.63-1.37H243.3c.22,1.73,1.48,2.5,3.19,2.5s3-.74,3-2.23-.88-2-2.56-2.46c-1.14-.3-1.71-.59-1.71-1.28s.36-1,1.12-1a1.38,1.38,0,0,1,1.41,1.29h1.62A2.66,2.66,0,0,0,246.44,198.1Z"/><path class="cls-5" d="M337.2,181v-.87h-5.91V181h2.41v6h1.09v-6Zm1.23-1.13a.64.64,0,1,0,0,1.27.64.64,0,1,0,0-1.27ZM339,187v-5.31h-1.1V187Zm8.85-4.15a1.54,1.54,0,0,0-1.66-1.3,1.8,1.8,0,0,0-1.13.31l-.49.7a1.53,1.53,0,0,0-1.57-1,1.76,1.76,0,0,0-1.13.31l-.36.62v-.79h-1.1V187h1.1v-2.67c0-1.44.42-2,1.07-2a.91.91,0,0,1,1,.87,8.62,8.62,0,0,1,0,1V187h1.09v-2.67c0-1.44.43-2,1.07-2a.91.91,0,0,1,1,.87,8.62,8.62,0,0,1,0,1V187h1.1v-3.21A6,6,0,0,0,347.83,182.85Zm6,1.36a2.37,2.37,0,0,0-2.37-2.66,2.58,2.58,0,0,0-2.6,2.81c0,1.88,1.07,2.78,2.49,2.78a2.26,2.26,0,0,0,2.4-1.86H352.6a1.21,1.21,0,0,1-1.25,1.06c-.72,0-1.3-.42-1.39-1.69h3.81A4,4,0,0,0,353.79,184.21Zm-2.41-1.86c.77,0,1.2.55,1.28,1.53H350C350.09,182.86,350.63,182.35,351.38,182.35Zm6.83.15h1v-.77h-1v-1.27h-1.1v1.27h-.75v.77h.75v2.88c0,.3,0,.53,0,.71.05.7.41,1,1.24,1a5.42,5.42,0,0,0,.81-.06v-.76c-.71.07-.91,0-.95-.56,0-.14,0-.26,0-.44Zm4.21-.95a2.8,2.8,0,1,0,2.69,2.79A2.56,2.56,0,0,0,362.42,181.55Zm0,4.79c-1,0-1.53-.8-1.53-2s.56-2,1.53-2,1.52.79,1.52,2S363.38,186.34,362.42,186.34Zm7.07.66v-6.9H368.4V187Zm6.11-3.93a1.68,1.68,0,0,0-1.89-1.52,2,2,0,0,0-1.34.41l-.36.61v-.88h-1.1V187H372v-2.38c0-1.66.62-2.26,1.38-2.26a1,1,0,0,1,1.12,1c0,.27,0,.5,0,.75V187h1.1v-3C375.63,183.58,375.62,183.34,375.6,183.07Zm2.68-.57h1v-.77h-1v-1.27h-1.09v1.27h-.75v.77h.75v2.88c0,.3,0,.53,0,.71.05.7.41,1,1.24,1a5.62,5.62,0,0,0,.81-.06v-.76c-.72.07-.92,0-1-.56,0-.14,0-.26,0-.44Zm6.5,1.71a2.37,2.37,0,0,0-2.37-2.66,2.58,2.58,0,0,0-2.6,2.81c0,1.88,1.07,2.78,2.49,2.78a2.26,2.26,0,0,0,2.4-1.86h-1.11a1.21,1.21,0,0,1-1.25,1.06c-.72,0-1.3-.42-1.39-1.69h3.81A4,4,0,0,0,384.78,184.21Zm-2.41-1.86c.77,0,1.2.55,1.28,1.53H381C381.08,182.86,381.62,182.35,382.37,182.35Zm5.82-.79a1.38,1.38,0,0,0-.82.3l-.45.73v-.9h-1.1V187h1.1v-2.76c0-1.31.63-1.83,1.64-1.76v-.86A1,1,0,0,0,388.19,181.56Zm4.22,5.44h1.09a9.19,9.19,0,0,1-.1-1.35v-1.87c0-.25,0-.53,0-.75-.09-.9-.63-1.48-2-1.48a1.93,1.93,0,0,0-2.15,1.82h1.1c.06-.66.39-1,1-1s.9.3.93.73a5.62,5.62,0,0,1,0,.58v.13H392c-2,0-2.95.64-2.95,1.82a1.54,1.54,0,0,0,1.71,1.53,2.28,2.28,0,0,0,1.32-.34l.27-.57Zm-1.29-.66c-.58,0-.95-.26-.95-.82,0-.81.84-1.1,2.13-1V185A1.17,1.17,0,0,1,391.12,186.34Zm5.85-4.79a2.57,2.57,0,0,0-2.57,2.82c0,1.89,1.05,2.77,2.44,2.77a2.26,2.26,0,0,0,2.42-1.9h-1.12a1.24,1.24,0,0,1-1.24,1.1c-.74,0-1.35-.61-1.35-2.05s.61-1.94,1.38-1.94,1.09.37,1.24,1.18h1.11A2.15,2.15,0,0,0,397,181.55Zm4.57.95h1v-.77h-1v-1.27h-1.08v1.27h-.75v.77h.75v2.88c0,.3,0,.53,0,.71,0,.7.41,1,1.24,1a5.84,5.84,0,0,0,.81-.06v-.76c-.73.07-.93,0-1-.56,0-.14,0-.26,0-.44Zm2.6-2.66a.64.64,0,1,0,.64.63A.62.62,0,0,0,404.14,179.84Zm.54,7.16v-5.31h-1.09V187Zm6.07-5.31h-1.17l-1.47,4.5-1.49-4.5h-1.21l2,5.31h1.28Zm5.17,2.52a2.37,2.37,0,0,0-2.37-2.66,2.58,2.58,0,0,0-2.6,2.81c0,1.88,1.07,2.78,2.49,2.78a2.26,2.26,0,0,0,2.4-1.86h-1.11a1.21,1.21,0,0,1-1.25,1.06c-.72,0-1.3-.42-1.39-1.69h3.81A4,4,0,0,0,415.92,184.21Zm-2.41-1.86c.77,0,1.2.55,1.28,1.53H412.1C412.22,182.86,412.76,182.35,413.51,182.35Z"/><path class="cls-6" d="M337.67,196h-.88a2.53,2.53,0,0,0-1.33.38l-2.2,1.35v1.56l2.82-1.62V206h1.59Zm4.76,8.43v-.15h-1.61l-1.14,3.46h1.39Zm4.29.28,2.2-2.17c1.75-1.7,2.44-2.63,2.44-3.95,0-1.57-1.07-2.8-3.18-2.8a3.29,3.29,0,0,0-3.6,3.25l0,.15h1.59l0-.15c.13-1.31.69-2,1.84-2a1.58,1.58,0,0,1,1.63,1.74c0,.95-.55,1.68-1.81,2.92l-3.49,3.52V206h7v-1.28Zm8.92-6.61c-1.71,0-2.84.87-2.84,2.3s1,1.94,2.45,2.3,1.82.71,1.82,1.38-.59,1-1.33,1a1.53,1.53,0,0,1-1.63-1.37H352.5c.22,1.73,1.48,2.5,3.18,2.5s3-.74,3-2.23-.89-2-2.56-2.46c-1.15-.3-1.71-.59-1.71-1.28a1,1,0,0,1,1.11-1,1.39,1.39,0,0,1,1.42,1.28h1.62A2.66,2.66,0,0,0,355.64,198.1Z"/><path class="cls-7" d="M316,178.42v-.9a.9.9,0,0,1,.26-.64.86.86,0,0,1,.64-.26.84.84,0,0,1,.64.26.87.87,0,0,1,.27.64v29.39a.87.87,0,0,1-.27.64.85.85,0,0,1-.64.27.87.87,0,0,1-.64-.27.9.9,0,0,1-.26-.64Z"/><path class="cls-8" d="M203,129.61l29.45-7.14L245.1,108l13.52,6,41-72.82,23.7,55.48,23.43-26.84,18.76,27.45L378.34,108l13.78-11.31L406,101.26,430,75.56"/><path class="cls-9" d="M203,129.32l29.45-7.12,12.68-14.4,13.52,6,41-72.58,23.7,55.3,23.43-26.76,18.76,27.37,12.79,10.66,13.29-10.66L406,101.06,430,75.44v68.23H203Z"/><path class="cls-10" d="M39,97l0-11.6H37.54v5.8c0,1.36,0,3,.05,4.39L32.12,85.4H29.9V97h1.45V91.2c0-1.36,0-3-.05-4.39L36.76,97Zm10.47-4.71c0-2.6-1.36-4.44-3.82-4.44s-4.23,1.84-4.23,4.73c0,3.14,1.73,4.66,4.05,4.66a3.65,3.65,0,0,0,3.88-3.12H47.82a2.25,2.25,0,0,1-2.3,2c-1.32,0-2.43-.79-2.56-3.15h6.46A6.9,6.9,0,0,0,49.45,92.29ZM45.6,89C47.06,89,47.85,90,48,91.87H43C43.14,90,44.19,89,45.6,89Zm18.22-.87H62.27L60.2,95.57l-2-7.48h-1.8l-2,7.53L52.4,88.09H50.74L53.58,97h1.71l2-7.5,2,7.5H61ZM75.24,97l4.17-11.6H77.86L74.3,95.91,70.85,85.4H69.29l4,11.6Zm6.54-11.84a.93.93,0,1,0,0,1.85.93.93,0,0,0,0-1.85ZM82.5,97V88.09H81.05V97Zm5.75-9.15c-1.83,0-3.08,1-3.08,2.61s1.28,2.22,2.88,2.66,2.1.85,2.1,1.71-.77,1.3-1.73,1.3a1.93,1.93,0,0,1-2.09-1.75H84.82a3.15,3.15,0,0,0,3.5,2.86c1.88,0,3.31-.85,3.31-2.53,0-1.51-1-2.32-3-2.86-1.22-.31-2-.67-2-1.56S87.12,89,88.13,89A1.83,1.83,0,0,1,90,90.63h1.51A3,3,0,0,0,88.25,87.85Zm6.45-2.69a.93.93,0,1,0,.93.93A.91.91,0,0,0,94.7,85.16ZM95.43,97V88.09H94V97Zm4.89-7.73H102V88.16h-1.66V86.09H98.87v2.07H97.68v1.11h1.19v5.19c0,.51,0,.88,0,1.11.08,1.11.66,1.56,1.76,1.56a7.33,7.33,0,0,0,1.23-.08V96c-1.12.14-1.48,0-1.54-.91,0-.23,0-.38,0-.69Zm7.61-1.42c-3,0-4.42,2.17-4.42,4.69s1.39,4.7,4.42,4.7,4.42-2.19,4.42-4.7S111,87.85,107.93,87.85Zm0,8.28c-1.8,0-2.85-1.5-2.85-3.59s1-3.58,2.85-3.58,2.84,1.48,2.84,3.58S109.73,96.13,107.93,96.13Zm10.26-8.24a2.28,2.28,0,0,0-1.24.4l-.81,1.19V88.09H114.7V97h1.44V91.92c0-2,1.15-2.92,2.66-2.82V88A1.42,1.42,0,0,0,118.19,87.89Z"/><path class="cls-11" d="M79,118.45v-1.08H76V114H74.85v3.41h-3v1.08h3v3.38H76v-3.38Zm5.22,3.29,2.55-2.52c2-2,2.84-3.06,2.84-4.59,0-1.83-1.24-3.26-3.7-3.26a3.82,3.82,0,0,0-4.18,3.78l0,.17h1.85l0-.17c.15-1.53.8-2.37,2.13-2.37a1.83,1.83,0,0,1,1.9,2c0,1.11-.64,2-2.1,3.4l-4,4.08v.94h8.09v-1.48Zm13.59-10.12h-1a2.91,2.91,0,0,0-1.55.44l-2.56,1.56v1.82L96,113.56v9.66h1.85Zm4.7,9.39a1.17,1.17,0,0,0-1.22,1.22,1.18,1.18,0,0,0,1.22,1.23,1.19,1.19,0,0,0,1.23-1.23A1.18,1.18,0,0,0,102.53,121Zm7.09-9.62c-3.23,0-4.34,2.52-4.34,6s1.11,6,4.34,6,4.34-2.56,4.34-6S112.86,111.39,109.62,111.39Zm0,10.66c-1.65,0-2.34-1.65-2.34-4.63s.69-4.62,2.34-4.62,2.34,1.61,2.34,4.62S111.28,122.05,109.62,122.05Zm12.32-10.43h-1a2.91,2.91,0,0,0-1.55.44l-2.55,1.56v1.82l3.28-1.88v9.66h1.85Zm6-.18a2.72,2.72,0,0,0,0,5.43,2.72,2.72,0,0,0,0-5.43Zm.18,11.78,7.53-11.6h-1.61l-7.53,11.6ZM128,112.55c.62,0,1,.55,1,1.6s-.4,1.61-1,1.61-1-.57-1-1.61S127.33,112.55,128,112.55ZM134.2,118a2.72,2.72,0,1,0,2.54,2.71A2.44,2.44,0,0,0,134.2,118Zm0,1.11c.64,0,1,.55,1,1.6s-.39,1.61-1,1.61-1-.57-1-1.61S133.58,119.14,134.2,119.14Z"/><path class="cls-6" d="M28.13,128.62h9.22V132h3.89v-3.38h2.38v-3.25H41.24V112.78H36.15l-8,12.64Zm9.3-3.25H32.22v-.15l5.06-8h.15Zm9.5,6.63H60.62v-3.32H52.56v-.13l2.8-2.75c4-3.6,5-5.41,5-7.59,0-3.33-2.72-5.69-6.84-5.69s-6.8,2.41-6.79,6.18H50.6a2.93,2.93,0,0,1,5.85-.22c0,1.53-.94,2.58-2.68,4.26l-6.84,6.33Z"/><path class="cls-10" d="M213.19,310.25a2.4,2.4,0,0,0-1.18-2.09,2.18,2.18,0,0,0,1.63-2.16,2.31,2.31,0,0,0-2.28-2.43,9.09,9.09,0,0,0-1.19-.05h-3v9.12h1.14v-3.92h2.37c.9.06,1.25.69,1.36,1.63a7.39,7.39,0,0,0,.49,2.28h1.26A4.5,4.5,0,0,1,213.19,310.25Zm-4.87-2.46v-3.35h1.85a5.41,5.41,0,0,1,.91.06,1.42,1.42,0,0,1,1.34,1.61,1.52,1.52,0,0,1-1.47,1.65,7.17,7.17,0,0,1-.88,0Zm12.87,1.15c0-2.05-1.07-3.49-3-3.49s-3.33,1.44-3.33,3.72c0,2.47,1.36,3.66,3.19,3.66a2.88,2.88,0,0,0,3-2.45h-1.19A1.77,1.77,0,0,1,218.1,312c-1,0-1.91-.63-2-2.48h5.08C221.19,309.23,221.19,309.05,221.19,308.94Zm-3-2.62c1.16,0,1.78.83,1.88,2.29H216.1C216.23,307.12,217.05,306.32,218.16,306.32Zm9,6.32h1.14a11.49,11.49,0,0,1-.13-1.78v-2.63c0-.31,0-.65,0-.93-.12-1.15-.82-1.85-2.49-1.85a2.45,2.45,0,0,0-2.7,2.35h1.19a1.39,1.39,0,0,1,1.51-1.48c.94,0,1.31.42,1.36,1.07a7.77,7.77,0,0,1,0,.85v.18h-.45c-2.75,0-3.94.82-3.94,2.41a2,2,0,0,0,2.26,2,3,3,0,0,0,1.76-.44l.38-.75Zm-1.88-.68c-.86,0-1.4-.37-1.4-1.22,0-1.2,1.22-1.61,3.15-1.47V310C227,311.25,226.31,312,225.25,312Zm6.39-9H230.5v7.75c0,.39,0,.69,0,.93,0,.88.53,1.1,1.19,1.1a5.32,5.32,0,0,0,.81-.06v-.82c-.62.07-.84-.08-.86-.53,0-.22,0-.45,0-.66Zm4,3.64h1.31v-.87h-1.31v-1.63h-1.13v1.63h-.94v.87h.94v4.09c0,.39,0,.68,0,.87.07.87.52,1.23,1.39,1.23a5.23,5.23,0,0,0,1-.07v-.83c-.88.11-1.16,0-1.21-.71a4.61,4.61,0,0,1,0-.55Zm3.77-3.23a.73.73,0,1,0,.73.73A.72.72,0,0,0,239.36,303.33Zm.57,9.31v-7h-1.14v7Zm11.75-5.49a2,2,0,0,0-2.13-1.7,2.3,2.3,0,0,0-1.48.41l-.62.9a2,2,0,0,0-2-1.31,2.3,2.3,0,0,0-1.48.41l-.45.79v-1h-1.13v7h1.13v-3.46c0-2.13.65-2.83,1.54-2.83a1.26,1.26,0,0,1,1.4,1.18,12.11,12.11,0,0,1,0,1.36v3.75h1.14v-3.46c0-2.13.65-2.83,1.53-2.83a1.26,1.26,0,0,1,1.41,1.18,12.11,12.11,0,0,1,.05,1.36v3.75h1.14v-4.28A7.77,7.77,0,0,0,251.68,307.15Zm8.16,1.79c0-2.05-1.07-3.49-3-3.49s-3.33,1.44-3.33,3.72c0,2.47,1.36,3.66,3.19,3.66a2.87,2.87,0,0,0,3.05-2.45h-1.19a1.77,1.77,0,0,1-1.81,1.58c-1,0-1.9-.63-2-2.48h5.08A4.23,4.23,0,0,0,259.84,308.94Zm-3-2.62c1.15,0,1.77.83,1.88,2.29h-3.95C254.88,307.12,255.7,306.32,256.81,306.32Zm15.33-2.8H271v5.65a6.7,6.7,0,0,1,0,.8,2.28,2.28,0,0,1-4.52,0,6.7,6.7,0,0,1,0-.8v-5.65h-1.13v5.75c0,.29,0,.56,0,.82.14,1.52,1.17,2.74,3.4,2.74s3.27-1.22,3.4-2.74a7.22,7.22,0,0,0,0-.82Zm4.35,1.93c-1.44,0-2.42.77-2.42,2.05s1,1.74,2.26,2.09,1.65.67,1.65,1.35-.61,1-1.36,1a1.52,1.52,0,0,1-1.64-1.38h-1.19a2.47,2.47,0,0,0,2.75,2.25c1.48,0,2.61-.66,2.61-2s-.77-1.82-2.38-2.24c-1-.25-1.54-.53-1.54-1.23a1,1,0,0,1,1.16-1.05,1.44,1.44,0,0,1,1.49,1.31h1.19A2.36,2.36,0,0,0,276.49,305.45Zm10.2,3.49c0-2.05-1.07-3.49-3-3.49s-3.33,1.44-3.33,3.72c0,2.47,1.36,3.66,3.19,3.66a2.89,2.89,0,0,0,3.06-2.45h-1.2a1.76,1.76,0,0,1-1.81,1.58c-1,0-1.9-.63-2-2.48h5.08A4.23,4.23,0,0,0,286.69,308.94Zm-3-2.62c1.15,0,1.77.83,1.88,2.29H281.6C281.73,307.12,282.55,306.32,283.66,306.32Zm7.7-.84a1.77,1.77,0,0,0-1,.31l-.64.94v-1.1h-1.13v7h1.13v-4c0-1.6.9-2.3,2.09-2.22v-.86A1,1,0,0,0,291.36,305.48Zm4.06,0c-1.44,0-2.42.77-2.42,2.05s1,1.74,2.26,2.09,1.66.67,1.66,1.35-.61,1-1.37,1a1.52,1.52,0,0,1-1.64-1.38h-1.19a2.47,2.47,0,0,0,2.75,2.25c1.49,0,2.61-.66,2.61-2s-.77-1.82-2.38-2.24c-.95-.25-1.54-.53-1.54-1.23s.38-1.05,1.17-1.05a1.44,1.44,0,0,1,1.48,1.31H298A2.35,2.35,0,0,0,295.42,305.45Z"/><path class="cls-12" d="M209.3,362.59h1.1v-2.23h2.23v-1.11H210.4V357h-1.1v2.22h-2.22v1.11h2.22Zm8.41,1.53a2.77,2.77,0,0,0,2.9-2.84,2.66,2.66,0,0,0-2.67-2.81,2.27,2.27,0,0,0-1.53.56h0l.27-2.36h3.57v-1.09h-4.63l-.47,4.24,1.16.18a2.2,2.2,0,0,1,1.39-.48,1.71,1.71,0,0,1,1.73,1.78,1.66,1.66,0,0,1-1.67,1.75,1.44,1.44,0,0,1-1.53-1.24H215A2.54,2.54,0,0,0,217.71,364.12Zm8-8.54h-1.23l-2.1,1.38v1.21l2-1.31h.05V364h1.27Zm3,8.5a.82.82,0,1,0,0-1.64.82.82,0,0,0,0,1.64Zm2.87-.08h5.54v-1.09h-3.79v-.06L235,361.1c1.54-1.56,2-2.3,2-3.24a2.47,2.47,0,0,0-2.69-2.39,2.53,2.53,0,0,0-2.72,2.55h1.21a1.4,1.4,0,0,1,1.49-1.49,1.36,1.36,0,0,1,1.5,1.36c0,.75-.44,1.28-1.34,2.24l-2.85,2.95Zm10.35.12c1.75,0,3-1,3-2.36a2.14,2.14,0,0,0-1.69-2.12v-.05a1.9,1.9,0,0,0,1.38-1.88,2.44,2.44,0,0,0-2.69-2.24,2.41,2.41,0,0,0-2.68,2.24,1.86,1.86,0,0,0,1.38,1.88v.05a2.1,2.1,0,0,0-1.69,2.12C239,363.12,240.21,364.12,242,364.12Zm0-1c-1.05,0-1.71-.56-1.71-1.41a1.72,1.72,0,0,1,3.42,0C243.67,362.52,243,363.08,242,363.08Zm0-3.92a1.32,1.32,0,0,1-1.44-1.34,1.29,1.29,0,0,1,1.44-1.31,1.32,1.32,0,0,1,1.45,1.31A1.34,1.34,0,0,1,242,359.16Zm9.28,3.26a1.71,1.71,0,1,0,3.42,0V362a1.71,1.71,0,1,0-3.42,0ZM247,357.61a1.71,1.71,0,1,0,3.42,0v-.45a1.63,1.63,0,0,0-1.7-1.75,1.66,1.66,0,0,0-1.72,1.75Zm.35,6.39h1l5.79-8.42h-1Zm4.84-2c0-.47.21-.93.76-.93s.74.46.74.93v.44c0,.47-.19.93-.74.93s-.75-.46-.76-.93ZM248,357.16c0-.47.2-.93.75-.93s.74.46.74.93v.45c0,.47-.19.92-.74.92s-.75-.45-.75-.92Z"/><path class="cls-6" d="M215.3,323.63h-3.82l-4.77,3v3.61l4.41-2.76h.11v15.37h4.07Zm8.36,16.6h-3.3l-.05,1.06a32,32,0,0,1-1.12,6.27h2.59a25.46,25.46,0,0,0,1.78-6.29Zm4,2.63h13.71v-3.32h-8.08v-.13l2.81-2.76c4-3.6,5-5.41,5-7.59,0-3.34-2.73-5.7-6.85-5.7s-6.81,2.42-6.8,6.19h3.86a2.93,2.93,0,0,1,5.86-.22c0,1.53-.94,2.58-2.69,4.26l-6.84,6.34Zm24-19.55c-4.3,0-7.2,2.8-7.18,6.7a5.85,5.85,0,0,0,5.9,6.21,5.3,5.3,0,0,0,4.85-2.71h.13c0,3.81-1.33,6.13-3.84,6.13a2.73,2.73,0,0,1-2.85-2.21h-4c.38,3.24,3,5.7,6.86,5.7,4.76,0,7.81-3.85,7.83-10.38C259.4,325.71,255.69,323.32,251.73,323.31Zm0,3.19a3.3,3.3,0,0,1,3.27,3.38,3.34,3.34,0,0,1-3.31,3.39,3.2,3.2,0,0,1-3.23-3.37A3.25,3.25,0,0,1,251.76,326.5Zm18,16.63c4.32,0,7.41-2.38,7.4-5.67,0-2.39-1.51-4.1-4.34-4.46v-.15a4.06,4.06,0,0,0,3.62-4.07c0-3-2.64-5.42-6.63-5.42s-6.91,2.31-7,5.64h3.9c.05-1.47,1.39-2.41,3.05-2.41a2.46,2.46,0,0,1,2.74,2.44c0,1.51-1.28,2.53-3.13,2.53h-1.79v3h1.79c2.18,0,3.54,1.09,3.53,2.64s-1.3,2.58-3.16,2.58-3.14-.94-3.22-2.35h-4.09C262.52,340.79,265.53,343.13,269.76,343.13Z"/><circle class="cls-13" cx="389.12" cy="332.67" r="36.03"/><path class="cls-11" d="M363.61,307.23a36,36,0,1,0,25.47-10.58l0,36Z"/><circle class="cls-3" cx="389.12" cy="332.67" r="22.82"/><line class="cls-14" x1="358.74" y1="301.8" x2="377.96" y2="321.02"/><line class="cls-14" x1="389.12" y1="284.63" x2="389.12" y2="311.81"/><path class="cls-15" d="M380.31,337.88l5.15-5.3,4,3.66,7.76-8.71"/><path class="cls-15" d="M397.18,327.53h-4.4"/><path class="cls-15" d="M397.18,327.53v4.41"/><g class="cls-16"><rect class="cls-3" x="474" y="186" width="167" height="127" rx="13.33"/><path class="cls-17" d="M516.1,253.54l3.84-3.75c3.78-3.69,5.06-5.55,5.06-8.16,0-3.54-2.4-6-7-6s-7.41,2.43-7.83,6.87l0,.3h4.11l0-.3c.27-2.49,1.26-3.78,3.33-3.78a2.83,2.83,0,0,1,3,3.12c0,2-1.11,3.45-3.9,6.18l-7,6.81v1.95h15.08v-3.27Zm16.75-.63v-.3h-4l-2.37,7.85h3.36Zm20.09-1v-3.27h-2.55V236.11H546L536.3,249.7v2.22h10v4.89h4.13v-4.89Zm-6.68-3.27h-5.43l4-5.67c.48-.69.93-1.41,1.38-2.19Zm18.67-5.73a6.2,6.2,0,0,0-3.24.81l-1,1.41.78-5.79H571v-3.24h-12.9l-1.47,12.24h3.84a3.37,3.37,0,0,1,3.39-2.34c2.25,0,3.57,1.65,3.57,4.08s-1.35,4-3.66,4a3.16,3.16,0,0,1-3.33-3l0-.3h-4.14l0,.3c.41,4.17,3.05,6.09,7.67,6.09,4,0,7.86-2.55,7.86-7.29C571.8,245.68,569.28,242.92,564.93,242.92Zm19.37,0a5.37,5.37,0,0,0-3.69,1.2L579.56,246c.18-5.1,1.65-7.2,4-7.2,1.65,0,2.61.87,3.06,2.73l.06.3h4.2l0-.3c-.42-3.57-2.91-5.82-7-5.82-4.89,0-8.55,3.75-8.55,11.43,0,7,2.76,10.11,8,10.11,4.26,0,7.86-2.76,7.86-7.56C591.11,245.86,588.83,242.89,584.3,242.89Zm-1.08,11.25c-2.13,0-3.48-1.71-3.48-4.08,0-2.64,1.59-4.08,3.45-4.08,2.37,0,3.54,1.77,3.54,4.2C586.73,252.4,585.38,254.14,583.22,254.14Z"/><path class="cls-18" d="M492.72,251.13a5,5,0,1,0-5-5A5,5,0,0,0,492.72,251.13Z"/><path class="cls-19" d="M492.72,286.33a5,5,0,1,0-5-5A5,5,0,0,0,492.72,286.33Z"/><path class="cls-17" d="M495.88,207.82v-.93h-7.71v.93h3.28v8.26h1.15v-8.26Zm3.34,1c-2.4,0-3.51,1.72-3.51,3.72s1.11,3.72,3.51,3.72,3.5-1.73,3.5-3.72S501.61,208.83,499.22,208.83Zm0,6.56c-1.43,0-2.26-1.18-2.26-2.84s.83-2.84,2.26-2.84,2.25,1.18,2.25,2.84S500.64,215.39,499.22,215.39Zm6.51-5.44h1.32v-.88h-1.32v-1.64h-1.15v1.64h-.94V210h.94v4.12c0,.4,0,.7,0,.88.06.88.51,1.24,1.39,1.24a5.39,5.39,0,0,0,1-.07v-.83c-.89.1-1.18,0-1.23-.72,0-.19,0-.31,0-.55Zm7.11,6.13H514a13,13,0,0,1-.13-1.79v-2.66c0-.3,0-.65,0-.93-.12-1.16-.83-1.87-2.51-1.87a2.47,2.47,0,0,0-2.72,2.38h1.2c.08-1,.56-1.5,1.52-1.5s1.32.43,1.38,1.08c0,.27,0,.55,0,.86v.18h-.45c-2.77,0-4,.83-4,2.43a2,2,0,0,0,2.28,2,3.07,3.07,0,0,0,1.77-.44l.39-.76Zm-1.9-.69c-.86,0-1.41-.37-1.41-1.22,0-1.22,1.23-1.63,3.17-1.48v.72C512.7,214.69,512,215.39,510.94,215.39Zm6.27-9.1h-1.15v7.81c0,.39,0,.69,0,.93,0,.9.53,1.11,1.19,1.11a5.55,5.55,0,0,0,.82-.06v-.82c-.63.07-.84-.08-.87-.53,0-.23,0-.46,0-.67Zm9.73,9.79,3.31-9.19H529l-2.82,8.33-2.74-8.33h-1.24l3.18,9.19Zm5-9.38a.74.74,0,1,0,.73.73A.72.72,0,0,0,531.9,206.7Zm.57,9.38V209h-1.14v7.06Zm4.33-7.25c-1.45,0-2.44.78-2.44,2.07s1,1.76,2.28,2.11,1.67.68,1.67,1.36-.61,1-1.37,1a1.53,1.53,0,0,1-1.66-1.38h-1.19a2.48,2.48,0,0,0,2.77,2.26c1.49,0,2.62-.66,2.62-2s-.77-1.84-2.4-2.26c-1-.26-1.54-.54-1.54-1.24s.37-1.06,1.17-1.06A1.45,1.45,0,0,1,538.2,211h1.2A2.37,2.37,0,0,0,536.8,208.83Zm4.89-2.13a.74.74,0,1,0,.74.73A.72.72,0,0,0,541.69,206.7Zm.58,9.38V209h-1.15v7.06Zm3.65-6.13h1.32v-.88h-1.32v-1.64h-1.15v1.64h-.94V210h.94v4.12c0,.4,0,.7,0,.88.07.88.52,1.24,1.4,1.24a5.45,5.45,0,0,0,1-.07v-.83c-.89.1-1.18,0-1.23-.72,0-.19,0-.31,0-.55Zm5.11-1.12c-1.46,0-2.44.78-2.44,2.07s1,1.76,2.28,2.11,1.66.68,1.66,1.36-.61,1-1.37,1a1.52,1.52,0,0,1-1.65-1.38h-1.2a2.48,2.48,0,0,0,2.77,2.26c1.49,0,2.63-.66,2.63-2s-.78-1.84-2.4-2.26c-1-.26-1.55-.54-1.55-1.24s.37-1.06,1.17-1.06a1.46,1.46,0,0,1,1.5,1.32h1.19A2.36,2.36,0,0,0,551,208.83Z"/><path class="cls-17" d="M513.76,276.8H513a2.33,2.33,0,0,0-1.23.35l-2,1.24v1.44l2.6-1.49V286h1.47Zm4.63,7.76v-.13h-1.48l-1.06,3.18h1.29Zm4.2.27,2-2c1.62-1.58,2.26-2.43,2.26-3.64,0-1.45-1-2.59-2.94-2.59a3,3,0,0,0-3.31,3l0,.14h1.47v-.14c.12-1.21.64-1.88,1.7-1.88a1.45,1.45,0,0,1,1.5,1.6c0,.88-.51,1.55-1.67,2.69l-3.21,3.24V286h6.41v-1.17Zm10.91-3.7a2.1,2.1,0,0,0,1.52-2c0-1.52-1.16-2.5-3.07-2.5s-3.07,1-3.07,2.5a2,2,0,0,0,1.4,2,2.45,2.45,0,0,0-1.81,2.28c0,2,1.51,2.79,3.39,2.79s3.4-.77,3.4-2.79A2.42,2.42,0,0,0,533.5,281.13ZM532,277.74a1.38,1.38,0,0,1,1.53,1.44,1.4,1.4,0,0,1-1.54,1.48,1.46,1.46,0,1,1,0-2.92Zm-.07,7.34a1.66,1.66,0,1,1,0-3.31,1.59,1.59,0,0,1,1.8,1.66A1.56,1.56,0,0,1,531.88,285.08Zm9.71-4a2.14,2.14,0,0,0,1.67-2.14c0-1.36-1.06-2.36-2.9-2.36a3,3,0,0,0-3.29,2.76v.13h1.45l0-.13a1.63,1.63,0,0,1,1.68-1.64,1.35,1.35,0,0,1,1.46,1.41,1.63,1.63,0,0,1-1.8,1.64h-.27v1.08h.27c1.36,0,2,.57,2,1.59a1.6,1.6,0,0,1-1.78,1.6,1.82,1.82,0,0,1-2-1.71v-.13h-1.47l0,.13c.2,1.95,1.45,2.83,3.34,2.83s3.44-1.07,3.44-2.79A2.22,2.22,0,0,0,541.59,281.12Z"/><path class="cls-20" d="M602.64,235a6.9,6.9,0,0,0-1-.05h-2.44V243h2.39a6.84,6.84,0,0,0,1-.05,3.75,3.75,0,0,0,3.25-4.07C605.83,236.48,604.51,235.23,602.64,235Zm-.16,7.13a6.59,6.59,0,0,1-1,.05h-1.33v-6.41h1.39a5.32,5.32,0,0,1,1,.06c1.36.22,2.19,1.27,2.19,3S603.84,241.9,602.48,242.13Zm8.42.87h1a11.31,11.31,0,0,1-.12-1.57V239.1c0-.26,0-.57,0-.81-.11-1-.73-1.63-2.2-1.63a2.16,2.16,0,0,0-2.38,2.07h1.05a1.23,1.23,0,0,1,1.33-1.3c.83,0,1.16.37,1.21.94,0,.23,0,.48,0,.75v.16h-.4c-2.42,0-3.47.72-3.47,2.12a1.77,1.77,0,0,0,2,1.76,2.67,2.67,0,0,0,1.55-.38l.34-.67Zm-1.66-.61c-.76,0-1.24-.32-1.24-1.07,0-1.06,1.08-1.42,2.78-1.29v.63C610.78,241.78,610.17,242.39,609.24,242.39Zm9.58-5.57h-1.1l-1.83,5.43L614,236.82h-1.13l2.46,6.49-.08.23c-.31.81-.72,1.08-1.34,1.08h-.36v.82a3.79,3.79,0,0,0,.51,0c1,0,1.67-.62,2.17-1.93Z"/><path class="cls-20" d="M554.3,276.48h-1.11l-1.62,4.94-1.63-4.94H548.8V282h.69v-2.84c0-.68,0-1.44,0-2,.18.59.43,1.36.66,2l1,2.86H552l1-2.85c.23-.67.49-1.45.67-2,0,.6,0,1.37,0,2.06V282h.68Zm3.19,1.17a2.23,2.23,0,1,0,2.11,2.23A2,2,0,0,0,557.49,277.65Zm0,3.93c-.85,0-1.35-.71-1.35-1.7s.5-1.7,1.35-1.7,1.35.7,1.35,1.7S558.35,281.58,557.49,281.58Zm6.73-2.69a1.35,1.35,0,0,0-1.52-1.24,1.6,1.6,0,0,0-1.1.35l-.26.49v-.73h-.69V282h.69v-1.86c0-1.45.56-1.95,1.22-1.95a.86.86,0,0,1,1,.87c0,.21,0,.39,0,.6V282h.69v-2.38C564.23,279.27,564.23,279.1,564.22,278.89Zm2.21-.57h.79v-.53h-.79v-1h-.69v1h-.57v.53h.57v2.47c0,.24,0,.42,0,.53,0,.53.31.74.84.74a2.88,2.88,0,0,0,.58,0v-.5c-.53.06-.7,0-.73-.43,0-.11,0-.19,0-.33Zm5.47.57a1.33,1.33,0,0,0-1.51-1.24,1.6,1.6,0,0,0-1.1.35l-.27.49v-2.41h-.69V282H569v-1.86c0-1.45.56-1.93,1.23-1.95a.86.86,0,0,1,1,.87c0,.21,0,.39,0,.6V282h.69v-2.38C571.92,279.27,571.92,279.1,571.9,278.89Z"/></g><path class="cls-21" d="M534.44,146a40.57,40.57,0,1,0-40.84-40.57A40.7,40.7,0,0,0,534.44,146Z"/><path class="cls-22" d="M512.29,139.51a40.67,40.67,0,1,0,22.15-74.66"/><path class="cls-17" d="M519.49,104.31a2.48,2.48,0,0,0-1.69.55l-.48.86c.09-2.32.76-3.28,1.84-3.28.75,0,1.19.39,1.4,1.24l0,.14h1.91v-.14a2.91,2.91,0,0,0-3.21-2.65c-2.23,0-3.9,1.71-3.9,5.22,0,3.2,1.26,4.61,3.63,4.61a3.37,3.37,0,0,0,3.59-3.45A2.89,2.89,0,0,0,519.49,104.31Zm-.5,5.14a1.65,1.65,0,0,1-1.58-1.86c0-1.21.72-1.87,1.57-1.87,1.08,0,1.62.81,1.62,1.92A1.64,1.64,0,0,1,519,109.45Zm8.82-8.42c-2.68,0-3.68,1.93-3.68,4.91s1,4.92,3.68,4.92,3.68-2,3.68-4.92S530.48,101,527.81,101Zm0,8.42c-1.16,0-1.68-1.12-1.68-3.51s.52-3.5,1.68-3.5,1.67,1.09,1.67,3.5S529,109.45,527.81,109.45Zm6.21-.89a1.15,1.15,0,1,0,1.15,1.15A1.09,1.09,0,0,0,534,108.56Zm6.23-7.53c-2.69,0-3.69,1.93-3.69,4.91s1,4.92,3.69,4.92,3.67-2,3.67-4.92S542.92,101,540.25,101Zm0,8.42c-1.17,0-1.69-1.12-1.69-3.51s.52-3.5,1.69-3.5,1.67,1.09,1.67,3.5S541.4,109.45,540.25,109.45Zm7.13-8.4a2.26,2.26,0,1,0,2.13,2.25A2,2,0,0,0,547.38,101.05Zm.33,9.62,6.14-9.45h-1.47l-6.14,9.45Zm-.33-8.62c.51,0,.8.44.8,1.25s-.29,1.26-.8,1.26-.78-.45-.78-1.26S546.88,102.05,547.38,102.05Zm5.25,4.3a2.26,2.26,0,1,0,2.12,2.25A2,2,0,0,0,552.63,106.35Zm0,1c.51,0,.78.44.78,1.25s-.27,1.26-.78,1.26-.78-.45-.78-1.26S552.12,107.35,552.63,107.35Z"/><rect class="cls-23" x="70" y="252" width="6.33" height="22.16"/><rect class="cls-24" x="82.67" y="252" width="6.33" height="15.83"/><rect class="cls-25" x="95.33" y="252" width="6.33" height="9.5"/><rect class="cls-26" x="120.66" y="228.25" width="6.33" height="23.75"/><rect class="cls-27" x="133.33" y="214" width="6.33" height="37.99"/><rect class="cls-28" x="107.99" y="242.5" width="6.33" height="9.5"/></g></g></svg>