<svg xmlns="http://www.w3.org/2000/svg" xmlns:xlink="http://www.w3.org/1999/xlink" viewBox="0 0 734.59 587"><defs><style>.cls-1,.cls-28,.cls-9{fill:#fff;}.cls-11,.cls-12,.cls-13,.cls-2,.cls-21,.cls-23,.cls-26,.cls-27,.cls-36,.cls-39,.cls-40,.cls-43,.cls-44,.cls-45,.cls-7{fill:none;}.cls-3{fill:#001a4b;fill-opacity:0.33;}.cls-4,.cls-5{fill:#1e2029;}.cls-5{opacity:0.6;}.cls-21,.cls-35,.cls-38,.cls-45,.cls-5{isolation:isolate;}.cls-6{clip-path:url(#clip-path);}.cls-7{stroke:#fe4c36;stroke-width:1.29px;}.cls-11,.cls-12,.cls-13,.cls-23,.cls-26,.cls-27,.cls-36,.cls-40,.cls-44,.cls-7{stroke-linejoin:round;}.cls-8{fill:#fe4c36;}.cls-9{fill-opacity:0.66;}.cls-10,.cls-25{fill:#f9c81b;}.cls-11,.cls-12,.cls-25,.cls-26{stroke:#f9c81b;}.cls-11{stroke-width:0.7px;}.cls-12{stroke-width:3.5px;}.cls-13,.cls-23,.cls-33,.cls-39,.cls-40,.cls-43,.cls-44{stroke:#0bad4b;}.cls-13{stroke-width:3px;}.cls-14{opacity:0.7;}.cls-15{fill:#3b3a40;}.cls-16{mask:url(#mask);}.cls-17,.cls-19,.cls-20{fill:#377dff;}.cls-17,.cls-31{stroke:#c7ead5;}.cls-17,.cls-19{stroke-width:11.02px;}.cls-18{mask:url(#mask-2);}.cls-19,.cls-27{stroke:#377dff;}.cls-21,.cls-45{stroke:#fff;}.cls-21{stroke-width:0.65px;}.cls-21,.cls-24,.cls-35,.cls-38,.cls-45{opacity:0.2;}.cls-22,.cls-31,.cls-33,.cls-38{fill:#0bad4b;}.cls-23{stroke-width:2.21px;}.cls-25{stroke-width:1.02px;}.cls-26{stroke-width:23.22px;}.cls-27{stroke-width:26.53px;}.cls-28,.cls-46{fill-rule:evenodd;}.cls-29{fill:#8e8c95;}.cls-30{mask:url(#mask-3);}.cls-31,.cls-33{stroke-width:17.78px;}.cls-32{mask:url(#mask-4);}.cls-34,.cls-35{fill:#c7d5ef;}.cls-36{stroke:#c7d5ef;stroke-width:1.82px;}.cls-36,.cls-40,.cls-44{stroke-linecap:round;}.cls-37{clip-path:url(#clip-path-2);}.cls-39,.cls-43{stroke-miterlimit:10;}.cls-39,.cls-40{stroke-width:2.36px;}.cls-41{opacity:0.4;}.cls-42{clip-path:url(#clip-path-3);}.cls-43,.cls-44{stroke-width:1.29px;}.cls-45{stroke-width:1.05px;}.cls-46{fill:#ffdc60;}</style><clipPath id="clip-path"><rect class="cls-2" x="389.76" y="401.03" width="44.41" height="10.94"/></clipPath><mask id="mask" x="436.23" y="236.53" width="38.57" height="38.58" maskUnits="userSpaceOnUse"><g id="path-34-inside-1"><path class="cls-1" d="M445.85,246a13.63,13.63,0,1,1-1.06,1.16l10.73,8.65Z"/></g></mask><mask id="mask-2" x="436.22" y="236.49" width="38.58" height="38.62" maskUnits="userSpaceOnUse"><g id="path-35-inside-2"><path class="cls-1" d="M445.85,246a13.77,13.77,0,1,0,9.77-4l-.1,13.77Z"/></g></mask><mask id="mask-3" x="103.27" y="266.6" width="62.22" height="62.22" maskUnits="userSpaceOnUse"><g id="path-74-inside-3"><path class="cls-1" d="M118.78,281.88a22.25,22.25,0,1,1-1.7,1.88l17.3,13.95Z"/></g></mask><mask id="mask-4" x="103.27" y="266.54" width="62.22" height="62.29" maskUnits="userSpaceOnUse"><g id="path-75-inside-4"><path class="cls-1" d="M118.78,281.88a22.22,22.22,0,1,0,15.76-6.39l-.16,22.22Z"/></g></mask><clipPath id="clip-path-2"><rect class="cls-2" x="542.17" y="59.17" width="37.76" height="37.76"/></clipPath><clipPath id="clip-path-3"><rect class="cls-2" x="313.48" y="236.37" width="20.6" height="20.6"/></clipPath></defs><title>Asset 1</title><g id="Layer_2" data-name="Layer 2"><g id="Layer_1-2" data-name="Layer 1"><circle class="cls-3" cx="404.5" cy="272.5" r="272.5"/><rect class="cls-4" x="355" y="318" width="121" height="111.99" rx="9.65"/><rect class="cls-5" x="362.72" y="337.31" width="106.84" height="98.47" rx="9.65"/><path class="cls-1" d="M404.65,354a4.73,4.73,0,0,0-2.48.6l-.72,1.06.58-4h7.27v-2.82H399l-1.16,9.52h3.36a2.28,2.28,0,0,1,2.36-1.65c1.6,0,2.53,1.19,2.53,2.88s-.91,2.87-2.6,2.87a2.14,2.14,0,0,1-2.27-2.06l0-.23H397.6l0,.23c.34,3.29,2.43,4.75,6.11,4.75,3.2,0,6.21-2,6.21-5.68C410,356.08,407.94,354,404.65,354Zm9.94,6.9A2.11,2.11,0,1,0,416.7,363,2,2,0,0,0,414.59,360.92Zm14.52-12.09h-1.69a5.55,5.55,0,0,0-2.87.81l-3.82,2.22v3.31l4.75-2.54v12.18h3.63Z"/><path class="cls-1" d="M436.66,345.24c-1.12,0-1.86.53-1.86,1.4s.55,1.14,1.38,1.35,1.07.36,1.07.68-.25.42-.56.42a.78.78,0,0,1-.77-.65h-1.29c.11,1,.91,1.49,2.05,1.49s1.89-.43,1.89-1.36-.55-1.2-1.42-1.42-1-.37-1-.67a.41.41,0,0,1,.46-.41c.32,0,.52.21.59.58h1.3A1.64,1.64,0,0,0,436.66,345.24Zm7.19,2.27a2.11,2.11,0,0,0-2.16-2.27,2.23,2.23,0,0,0-2.3,2.36,2.1,2.1,0,0,0,2.22,2.33,2,2,0,0,0,2.17-1.57h-1.3a.78.78,0,0,1-.84.67c-.5,0-.87-.25-.94-1.11h3.13C443.84,347.76,443.85,347.62,443.85,347.51Zm-2.21-1.37c.48,0,.77.33.85.95h-1.76C440.84,346.43,441.17,346.14,441.64,346.14Zm5.38-.9a2.21,2.21,0,0,0-2.28,2.38,2.09,2.09,0,0,0,2.17,2.31,2,2,0,0,0,2.2-1.7h-1.3a.86.86,0,0,1-.82.8c-.54,0-.9-.45-.9-1.49s.35-1.4.9-1.4.74.25.84.86h1.28A1.92,1.92,0,0,0,447,345.24Z"/><path class="cls-1" d="M382.53,378.05v-.63h-5.21v.63h2.22v5.59h.77v-5.59Zm1.22-.76a.5.5,0,0,0,0,1,.5.5,0,0,0,0-1Zm.39,6.35v-4.78h-.77v4.78ZM392,379.9a1.34,1.34,0,0,0-1.45-1.16,1.53,1.53,0,0,0-1,.28l-.43.61a1.35,1.35,0,0,0-1.38-.89,1.57,1.57,0,0,0-1,.28l-.3.54v-.7h-.78v4.78h.78v-2.36c0-1.45.44-1.93,1-1.93a.86.86,0,0,1,1,.8c0,.24,0,.51,0,.93v2.56h.78v-2.36c0-1.45.44-1.93,1-1.93a.86.86,0,0,1,1,.8,7.51,7.51,0,0,1,0,.93v2.56h.77v-2.92A4.51,4.51,0,0,0,392,379.9Zm5.45,1.21c0-1.39-.73-2.37-2.05-2.37a2.29,2.29,0,0,0-2.27,2.53c0,1.68.93,2.49,2.17,2.49a2,2,0,0,0,2.09-1.66h-.81a1.21,1.21,0,0,1-1.24,1.07c-.7,0-1.3-.42-1.37-1.69h3.46A2.93,2.93,0,0,0,397.48,381.11Zm-2.06-1.78c.78,0,1.2.57,1.28,1.56H394C394.1,379.87,394.66,379.33,395.42,379.33Zm6.3.16h.89v-.59h-.89v-1.11h-.78v1.11h-.64v.59h.64v2.79c0,.27,0,.47,0,.59,0,.6.35.84.95.84a3.63,3.63,0,0,0,.65,0v-.56c-.6.07-.79,0-.83-.49v-3.12Zm3.92-.75a2.51,2.51,0,1,0,2.37,2.51A2.28,2.28,0,0,0,405.64,378.74Zm0,4.43c-1,0-1.52-.8-1.52-1.92s.56-1.92,1.52-1.92,1.52.79,1.52,1.92S406.6,383.17,405.64,383.17Zm6.6.47v-6.22h-.78v6.22Zm5.55-3.51a1.5,1.5,0,0,0-1.7-1.39,1.81,1.81,0,0,0-1.24.39l-.3.55v-.82h-.78v4.78h.78v-2.1c0-1.63.63-2.19,1.38-2.19a1,1,0,0,1,1.09,1c0,.25,0,.44,0,.69v2.63h.77V381C417.81,380.57,417.81,380.38,417.79,380.13Zm2.42-.64h.89v-.59h-.89v-1.11h-.77v1.11h-.64v.59h.64v2.79c0,.27,0,.47,0,.59,0,.6.35.84.94.84a3.74,3.74,0,0,0,.66,0v-.56c-.6.07-.79,0-.83-.49,0-.13,0-.21,0-.37Zm5.87,1.62c0-1.39-.73-2.37-2-2.37a2.29,2.29,0,0,0-2.27,2.53c0,1.68.92,2.49,2.17,2.49A2,2,0,0,0,426,382.1h-.81a1.21,1.21,0,0,1-1.24,1.07c-.7,0-1.29-.42-1.37-1.69h3.46A2.93,2.93,0,0,0,426.08,381.11ZM424,379.33c.78,0,1.21.57,1.28,1.56h-2.69C422.7,379.87,423.26,379.33,424,379.33Zm5.13-.58a1.3,1.3,0,0,0-.67.22l-.43.64v-.75h-.77v4.78h.77v-2.72c0-1.09.62-1.57,1.43-1.52v-.58A.67.67,0,0,0,429.15,378.75Zm4,4.89h.77a8.62,8.62,0,0,1-.09-1.22v-1.79c0-.21,0-.44,0-.63-.08-.79-.56-1.26-1.7-1.26a1.66,1.66,0,0,0-1.83,1.6h.81c0-.66.37-1,1-1s.9.29.93.73a5.34,5.34,0,0,1,0,.58v.12h-.31c-1.87,0-2.68.56-2.68,1.64a1.36,1.36,0,0,0,1.54,1.36,2.12,2.12,0,0,0,1.2-.29l.26-.52Zm-1.28-.47c-.59,0-.95-.25-.95-.83,0-.82.82-1.1,2.14-1v.49C433.07,382.69,432.6,383.17,431.88,383.17Zm5.34-4.43a2.29,2.29,0,0,0-2.24,2.52c0,1.75.92,2.5,2.13,2.5a2,2,0,0,0,2.09-1.65h-.81a1.22,1.22,0,0,1-1.24,1.06c-.71,0-1.32-.58-1.32-2s.63-1.88,1.38-1.88,1.05.37,1.22,1.14h.81A1.89,1.89,0,0,0,437.22,378.74Zm4,.75h.89v-.59h-.89v-1.11h-.77v1.11h-.64v.59h.64v2.79c0,.27,0,.47,0,.59,0,.6.35.84.94.84a3.67,3.67,0,0,0,.66,0v-.56c-.6.07-.79,0-.83-.49,0-.13,0-.21,0-.37Zm2.46-2.2a.5.5,0,0,0,0,1,.5.5,0,0,0,0-1Zm.38,6.35v-4.78h-.77v4.78Zm5.45-4.78h-.82l-1.43,4.21-1.46-4.21H445l1.81,4.78h.94Zm4.74,2.25c0-1.39-.73-2.37-2-2.37a2.3,2.3,0,0,0-2.28,2.53c0,1.68.93,2.49,2.18,2.49a2,2,0,0,0,2.08-1.66h-.81a1.21,1.21,0,0,1-1.24,1.07c-.7,0-1.3-.42-1.37-1.69h3.46A2.93,2.93,0,0,0,454.27,381.11Zm-2.06-1.78c.78,0,1.2.57,1.28,1.56H450.8C450.89,379.87,451.45,379.33,452.21,379.33Z"/><g class="cls-6"><path class="cls-7" d="M393.62,399.81l3.22,3.82,3.21-3.82"/><path class="cls-7" d="M396.84,403.24v-6.1"/></g><path class="cls-8" d="M407.81,398.78h-.55a1.58,1.58,0,0,0-.83.24l-1.37.83v1l1.76-1V405h1Zm5.5,2.93a1.43,1.43,0,0,0,1-1.36c0-1-.78-1.69-2.07-1.69s-2.07.66-2.07,1.69a1.4,1.4,0,0,0,.95,1.36,1.66,1.66,0,0,0-1.23,1.54c0,1.36,1,1.89,2.29,1.89s2.3-.53,2.3-1.89A1.63,1.63,0,0,0,413.31,401.71Zm-1.05-2.3a.94.94,0,0,1,1,1,1,1,0,0,1-1.05,1,1,1,0,1,1,0-2Zm0,5a1.13,1.13,0,1,1,0-2.24,1.08,1.08,0,0,1,1.21,1.12A1.05,1.05,0,0,1,412.22,404.38Zm5.56-5.72c-1.73,0-2.33,1.35-2.33,3.23s.6,3.24,2.33,3.24,2.32-1.37,2.32-3.24S419.52,398.66,417.78,398.66Zm0,5.71c-.88,0-1.25-.88-1.25-2.48s.37-2.48,1.25-2.48,1.25.87,1.25,2.48S418.67,404.37,417.78,404.37Zm3.88-.56a.66.66,0,1,0,.65.66A.63.63,0,0,0,421.66,403.81Zm4-5.15c-1.73,0-2.32,1.35-2.32,3.23s.59,3.24,2.32,3.24,2.33-1.37,2.33-3.24S427.36,398.66,425.62,398.66Zm0,5.71c-.88,0-1.25-.88-1.25-2.48s.37-2.48,1.25-2.48,1.26.87,1.26,2.48S426.52,404.37,425.62,404.37Zm6.58-2.67a1.45,1.45,0,0,0,1.13-1.45c0-.92-.71-1.59-1.95-1.59a2,2,0,0,0-2.23,1.86v.09h1v-.09a1.11,1.11,0,0,1,1.14-1.11.92.92,0,0,1,1,1,1.11,1.11,0,0,1-1.22,1.11h-.18v.73H431c.92,0,1.36.38,1.36,1.07a1.08,1.08,0,0,1-1.21,1.08,1.22,1.22,0,0,1-1.31-1.15v-.09h-1v.09a2,2,0,0,0,2.26,1.91c1.3,0,2.32-.72,2.32-1.89A1.49,1.49,0,0,0,432.2,401.7Zm3.59-3a1.46,1.46,0,1,0,1.36,1.45A1.31,1.31,0,0,0,435.79,398.68Zm.1,6.32,4-6.22h-.87L435,405Zm-.1-5.72c.34,0,.55.3.55.85s-.21.87-.55.87-.55-.31-.55-.87S435.45,399.28,435.79,399.28Zm3.35,2.94a1.46,1.46,0,1,0,1.36,1.45A1.31,1.31,0,0,0,439.14,402.22Zm0,.59c.34,0,.55.3.55.86s-.21.86-.55.86-.55-.31-.55-.86S438.8,402.81,439.14,402.81Z"/><rect class="cls-4" x="96" y="432" width="66" height="61.09" rx="5.27"/><rect class="cls-5" x="100.21" y="442.53" width="58.28" height="53.71" rx="5.27"/><path class="cls-9" d="M123.08,451.1a2.58,2.58,0,0,0-1.35.33l-.39.58.31-2.2h4v-1.54H120l-.63,5.19h1.83a1.24,1.24,0,0,1,1.29-.89,1.57,1.57,0,0,1,0,3.13,1.17,1.17,0,0,1-1.24-1.12v-.13h-2v.13c.19,1.79,1.33,2.59,3.34,2.59a3.13,3.13,0,0,0,3.38-3.1A2.71,2.71,0,0,0,123.08,451.1Zm5.43,3.77a1.11,1.11,0,0,0-1.16,1.15,1.12,1.12,0,0,0,1.16,1.15,1.15,1.15,0,0,0,0-2.3Zm7.91-6.6h-.92a3.11,3.11,0,0,0-1.57.44l-2.08,1.21v1.81l2.59-1.39V457h2Z"/><path class="cls-1" d="M140.54,446.49c-.61,0-1,.29-1,.77s.3.62.75.73.59.2.59.37-.14.23-.32.23a.41.41,0,0,1-.41-.35h-.71c.07.55.5.81,1.12.81s1-.23,1-.74-.3-.65-.77-.77-.57-.2-.57-.37a.23.23,0,0,1,.26-.22c.17,0,.28.11.32.32h.71A.9.9,0,0,0,140.54,446.49Zm3.93,1.24a1.16,1.16,0,0,0-1.18-1.24,1.22,1.22,0,0,0-1.26,1.29,1.15,1.15,0,0,0,1.21,1.27,1.1,1.1,0,0,0,1.18-.85h-.7a.44.44,0,0,1-.46.36c-.27,0-.47-.14-.52-.6h1.71C144.46,447.87,144.47,447.79,144.47,447.73Zm-1.21-.74c.26,0,.42.17.46.52h-1C142.82,447.15,143,447,143.26,447Zm2.93-.5a1.2,1.2,0,0,0-1.24,1.3,1.14,1.14,0,0,0,1.18,1.26,1.09,1.09,0,0,0,1.2-.92h-.71a.46.46,0,0,1-.44.43c-.3,0-.5-.25-.5-.81s.19-.76.5-.76.4.13.45.47h.7A1,1,0,0,0,146.19,446.49Z"/><path class="cls-1" d="M111,464.85v-.35h-2.85v.35h1.21v3h.43v-3Zm.66-.42a.27.27,0,0,0-.27.27.26.26,0,0,0,.27.27.26.26,0,0,0,.27-.27A.26.26,0,0,0,111.68,464.43Zm.22,3.46v-2.6h-.43v2.6Zm4.3-2a.73.73,0,0,0-.79-.63.84.84,0,0,0-.55.15l-.23.34a.74.74,0,0,0-.75-.49.84.84,0,0,0-.55.15l-.17.3v-.38h-.43v2.6h.43v-1.28c0-.79.24-1.06.57-1.06a.48.48,0,0,1,.52.44c0,.13,0,.28,0,.51v1.39h.42v-1.28c0-.79.24-1.06.57-1.06a.47.47,0,0,1,.52.44,3.56,3.56,0,0,1,0,.51v1.39h.42V466.3A2.9,2.9,0,0,0,116.2,465.85Zm3,.67c0-.76-.4-1.3-1.12-1.3a1.25,1.25,0,0,0-1.23,1.38c0,.92.5,1.36,1.18,1.36a1.07,1.07,0,0,0,1.14-.91h-.45a.65.65,0,0,1-.67.59c-.38,0-.71-.23-.75-.92h1.89A1.72,1.72,0,0,0,119.17,466.52Zm-1.13-1c.43,0,.66.31.7.86h-1.46C117.33,465.84,117.63,465.54,118,465.54Zm3.44.09H122v-.32h-.49v-.61h-.42v.61h-.35v.32h.35v1.85c0,.32.2.45.52.45a2.17,2.17,0,0,0,.36,0v-.31c-.33,0-.43,0-.45-.27a1.21,1.21,0,0,1,0-.2Zm2.14-.41a1.37,1.37,0,1,0,1.29,1.37A1.24,1.24,0,0,0,123.62,465.22Zm0,2.42c-.53,0-.83-.44-.83-1.05s.3-1,.83-1,.83.44.83,1S124.15,467.64,123.62,467.64Zm3.6.25V464.5h-.42v3.39Zm3-1.91a.83.83,0,0,0-.93-.76,1,1,0,0,0-.68.22l-.16.3v-.45h-.42v2.6h.42v-1.14c0-.89.35-1.2.75-1.2a.54.54,0,0,1,.6.54c0,.13,0,.24,0,.37v1.43h.42v-1.46C130.26,466.22,130.26,466.11,130.25,466Zm1.32-.35h.49v-.32h-.49v-.61h-.42v.61h-.35v.32h.35v1.85c0,.32.19.45.52.45a2.23,2.23,0,0,0,.36,0v-.31c-.33,0-.44,0-.45-.27a1.21,1.21,0,0,1,0-.2Zm3.2.89c0-.76-.4-1.3-1.11-1.3a1.25,1.25,0,0,0-1.24,1.38c0,.92.5,1.36,1.18,1.36a1.07,1.07,0,0,0,1.14-.91h-.45a.65.65,0,0,1-.67.59c-.38,0-.71-.23-.74-.92h1.88A1.72,1.72,0,0,0,134.77,466.52Zm-1.12-1c.42,0,.65.31.69.86h-1.46C132.93,465.84,133.23,465.54,133.65,465.54Zm2.8-.31a.63.63,0,0,0-.37.12l-.23.35v-.41h-.43v2.6h.43v-1.48c0-.59.33-.86.77-.83v-.32A.43.43,0,0,0,136.45,465.23Zm2.18,2.66h.42a5.89,5.89,0,0,1,0-.66v-1c0-.11,0-.24,0-.34,0-.43-.3-.69-.92-.69a.91.91,0,0,0-1,.87h.45c0-.35.2-.55.56-.55s.48.16.5.4,0,.2,0,.32v.07h-.16c-1,0-1.47.3-1.47.89a.75.75,0,0,0,.84.74,1.18,1.18,0,0,0,.66-.16l.14-.28Zm-.7-.25c-.32,0-.52-.14-.52-.45s.45-.6,1.17-.55v.27C138.58,467.38,138.33,467.64,137.93,467.64Zm2.92-2.42a1.26,1.26,0,0,0-1.23,1.38c0,.95.51,1.36,1.16,1.36a1.06,1.06,0,0,0,1.14-.9h-.44a.66.66,0,0,1-.67.58c-.39,0-.72-.32-.72-1.07s.34-1,.75-1,.57.21.67.62H142A1,1,0,0,0,140.85,465.22Zm2.19.41h.49v-.32H143v-.61h-.42v.61h-.35v.32h.35v1.85c0,.32.2.45.52.45a2.17,2.17,0,0,0,.36,0v-.31c-.33,0-.43,0-.45-.27a1.21,1.21,0,0,1,0-.2Zm1.34-1.2a.27.27,0,0,0-.27.27.27.27,0,1,0,.54,0A.27.27,0,0,0,144.38,464.43Zm.21,3.46v-2.6h-.42v2.6Zm3-2.6h-.44l-.78,2.29-.8-2.29h-.47l1,2.6h.52Zm2.59,1.23c0-.76-.4-1.3-1.12-1.3a1.25,1.25,0,0,0-1.24,1.38c0,.92.51,1.36,1.19,1.36a1.06,1.06,0,0,0,1.13-.91h-.44a.65.65,0,0,1-.67.59c-.39,0-.71-.23-.75-.92h1.89A1.72,1.72,0,0,0,150.15,466.52Zm-1.13-1c.43,0,.66.31.7.86h-1.46C148.3,465.84,148.61,465.54,149,465.54Z"/><path class="cls-10" d="M124.8,437.61h-.3a.8.8,0,0,0-.45.13l-.75.45v.53l1-.55V441h.54Zm3,1.6a.78.78,0,0,0,.56-.75c0-.56-.43-.92-1.13-.92s-1.13.36-1.13.92a.78.78,0,0,0,.52.75.89.89,0,0,0-.67.84c0,.74.55,1,1.25,1s1.25-.28,1.25-1A.87.87,0,0,0,127.8,439.21Zm-.57-1.26a.52.52,0,0,1,.57.53.53.53,0,0,1-.57.55.54.54,0,1,1,0-1.08Zm0,2.71a.61.61,0,1,1,.66-.61A.58.58,0,0,1,127.21,440.66Zm3-3.12c-.94,0-1.27.74-1.27,1.76s.33,1.77,1.27,1.77,1.27-.75,1.27-1.77S131.19,437.54,130.24,437.54Zm0,3.12c-.48,0-.68-.49-.68-1.36s.2-1.35.68-1.35.68.47.68,1.35S130.73,440.66,130.24,440.66Zm2.12-.31a.36.36,0,1,0,0,.72.36.36,0,0,0,0-.72Zm2.16-2.81c-.94,0-1.27.74-1.27,1.76s.33,1.77,1.27,1.77,1.27-.75,1.27-1.77S135.47,437.54,134.52,437.54Zm0,3.12c-.48,0-.68-.49-.68-1.36s.2-1.35.68-1.35.68.47.68,1.35S135,440.66,134.52,440.66Zm3.59-1.46a.79.79,0,0,0,.61-.79c0-.5-.38-.87-1.06-.87a1.1,1.1,0,0,0-1.22,1v.05H137v-.05a.61.61,0,0,1,.62-.61.5.5,0,0,1,.54.52.61.61,0,0,1-.67.61h-.09v.4h.09c.51,0,.75.21.75.59a.59.59,0,0,1-.66.59.67.67,0,0,1-.72-.63v0h-.55v0a1.09,1.09,0,0,0,1.23,1c.71,0,1.27-.39,1.27-1A.81.81,0,0,0,138.11,439.2Zm2-1.65a.8.8,0,1,0,.74.8A.71.71,0,0,0,140.07,437.55Zm.05,3.45,2.2-3.39h-.47l-2.2,3.39Zm-.05-3.12c.18,0,.3.16.3.47s-.12.47-.3.47-.3-.17-.3-.47S139.88,437.88,140.07,437.88Zm1.82,1.6a.71.71,0,0,0-.74.79.74.74,0,1,0,1.48,0A.71.71,0,0,0,141.89,439.48Zm0,.33c.19,0,.3.16.3.46s-.11.47-.3.47-.3-.16-.3-.47S141.71,439.81,141.89,439.81Z"/><path class="cls-11" d="M117.06,476l1.76,2.08,1.76-2.08"/><path class="cls-11" d="M118.82,477.91v-3.32"/><path class="cls-12" d="M122,82.55l.67-13.73-12.49,1.29"/><path class="cls-12" d="M122.13,70.3l-11,10.64"/><path class="cls-13" d="M733.5,555.09l-7.5-7.9-7.5,7.9"/><path class="cls-13" d="M726,548v12.65"/><g class="cls-14"><rect class="cls-4" x="428" y="225" width="124" height="59.52" rx="8.27"/><rect class="cls-5" x="433.51" y="234.37" width="112.98" height="54.01" rx="8.27"/><path class="cls-1" d="M481.84,243.81c-3.93,0-5.47,2.68-5.47,7.12s1.54,7.13,5.47,7.13,5.48-2.72,5.48-7.13S485.75,243.81,481.84,243.81Zm0,11.95c-1.49,0-2.2-1.41-2.2-4.83s.71-4.82,2.2-4.82,2.2,1.37,2.2,4.82S483.33,255.76,481.84,255.76Zm9.31-1.31a1.72,1.72,0,0,0-1.8,1.8,1.81,1.81,0,1,0,3.61,0A1.72,1.72,0,0,0,491.15,254.45Zm9.16-10.64c-2.84,0-5.34,1.79-5.34,5a4.13,4.13,0,0,0,4.49,4.42,3.54,3.54,0,0,0,2.42-.75l.67-1.25c-.1,3.15-1,4.49-2.42,4.49a1.72,1.72,0,0,1-1.84-1.61l0-.2h-3.14l0,.2c.24,2.4,1.87,3.91,4.8,3.91,3.46,0,5.78-2.56,5.78-7.48C505.71,245.87,503.86,243.81,500.31,243.81Zm.06,7.16c-1.41,0-2.12-1-2.12-2.5a2.13,2.13,0,0,1,2.08-2.36c1.29,0,2.08,1,2.08,2.44S501.48,251,500.37,251Z"/><path class="cls-15" d="M509,242.41c-1,0-1.59.46-1.59,1.2s.46,1,1.18,1.16.91.31.91.58-.21.35-.48.35a.64.64,0,0,1-.65-.55H507.2c.1.86.79,1.28,1.76,1.28s1.62-.37,1.62-1.17-.47-1-1.21-1.21-.89-.32-.89-.57a.35.35,0,0,1,.39-.35c.28,0,.45.17.51.49h1.11A1.4,1.4,0,0,0,509,242.41Zm6.15,1.94a1.8,1.8,0,0,0-1.84-1.94,1.91,1.91,0,0,0-2,2,1.81,1.81,0,0,0,1.9,2,1.76,1.76,0,0,0,1.86-1.35h-1.11a.67.67,0,0,1-.72.57c-.43,0-.74-.21-.81-.94h2.68A2.43,2.43,0,0,0,515.1,244.35Zm-1.89-1.17c.41,0,.66.28.73.82h-1.51C512.53,243.43,512.8,243.18,513.21,243.18Zm4.61-.77a1.9,1.9,0,0,0-2,2,1.79,1.79,0,0,0,1.87,2A1.71,1.71,0,0,0,519.6,245h-1.11a.72.72,0,0,1-.7.67c-.47,0-.77-.38-.77-1.27s.3-1.2.77-1.2.64.22.72.74h1.09A1.63,1.63,0,0,0,517.82,242.41Z"/><path class="cls-1" d="M478.85,262.94a1.59,1.59,0,0,0-1.77,1.5c0,.88.65,1.26,1.59,1.47s1.31.51,1.31,1.16-.5.89-1.1.89a1.29,1.29,0,0,1-1.34-1.1h-.71a1.81,1.81,0,0,0,2,1.62,1.63,1.63,0,0,0,1.83-1.53c0-.91-.59-1.38-1.76-1.65-.81-.19-1.14-.44-1.14-1s.44-.81,1-.81a1,1,0,0,1,1.12,1h.71A1.65,1.65,0,0,0,478.85,262.94Zm4.72,1.24a1.82,1.82,0,0,0-1.08.32l-.31.44v-.66h-.67v5.61h.67v-2.08l.27.4a1.77,1.77,0,0,0,1,.27,2,2,0,0,0,2-2.21A1.86,1.86,0,0,0,483.57,264.18Zm-.14,3.79a1.28,1.28,0,0,1-1.25-1.46v-.22c0-1.17.61-1.61,1.29-1.61s1.23.74,1.23,1.66C484.7,267.42,484.14,268,483.43,268Zm6.16-1.76c0-1.19-.63-2-1.75-2a2,2,0,0,0-1.95,2.16c0,1.45.8,2.14,1.86,2.14a1.67,1.67,0,0,0,1.78-1.43h-.69a1,1,0,0,1-1.06.92c-.6,0-1.11-.36-1.17-1.44h3A2.28,2.28,0,0,0,489.59,266.21Zm-1.77-1.53c.67,0,1,.49,1.1,1.34h-2.3C486.69,265.15,487.17,264.68,487.82,264.68Zm6,1.53c0-1.19-.62-2-1.75-2a2,2,0,0,0-1.94,2.16c0,1.45.79,2.14,1.85,2.14a1.68,1.68,0,0,0,1.79-1.43h-.7A1,1,0,0,1,492,268c-.61,0-1.12-.36-1.18-1.44h3C493.82,266.38,493.82,266.27,493.82,266.21Zm-1.77-1.53c.68,0,1,.49,1.1,1.34h-2.3C490.93,265.15,491.41,264.68,492.05,264.68Zm6.22-2h-.66v2.15l-.27-.4a1.77,1.77,0,0,0-1-.27,2,2,0,0,0-2,2.21,1.86,1.86,0,0,0,1.86,2.09,1.82,1.82,0,0,0,1.08-.32l.31-.44v.65h.66ZM496.32,268c-.82,0-1.24-.73-1.24-1.66s.56-1.63,1.28-1.63a1.29,1.29,0,0,1,1.25,1.46v.23C497.61,267.54,497,268,496.32,268Zm5.66.4v-5.32h-.67v5.32Zm4.61-3a1.29,1.29,0,0,0-1.46-1.19,1.51,1.51,0,0,0-1.07.34l-.25.47v-.71h-.66v4.09h.66v-1.79c0-1.4.54-1.88,1.18-1.88a.83.83,0,0,1,.93.83,5.82,5.82,0,0,1,0,.59v2.25h.66v-2.3C506.6,265.74,506.6,265.58,506.59,265.37Zm4.7-2.67h-.66v2.15l-.27-.4a1.77,1.77,0,0,0-1-.27,2,2,0,0,0-2,2.21,1.86,1.86,0,0,0,1.86,2.09,1.82,1.82,0,0,0,1.08-.32l.31-.44v.65h.66Zm-2,5.27c-.82,0-1.24-.73-1.24-1.66s.56-1.63,1.28-1.63a1.29,1.29,0,0,1,1.25,1.46v.23C510.63,267.54,510,268,509.34,268Zm6.48-1.76c0-1.19-.62-2-1.75-2a2,2,0,0,0-1.94,2.16c0,1.45.79,2.14,1.86,2.14a1.67,1.67,0,0,0,1.78-1.43h-.7A1,1,0,0,1,514,268c-.6,0-1.11-.36-1.18-1.44h3C515.82,266.38,515.82,266.27,515.82,266.21Zm-1.76-1.53c.67,0,1,.49,1.09,1.34h-2.3C512.93,265.15,513.41,264.68,514.06,264.68Zm4.14,1.61,1.44-2h-.77l-1,1.58-1-1.58H516l1.41,2L516,268.37h.76l1.07-1.64,1.07,1.64h.77Z"/><g class="cls-16"><path class="cls-17" d="M445.85,246a13.63,13.63,0,1,1-1.06,1.16l10.73,8.65Z"/></g><g class="cls-18"><path class="cls-19" d="M445.85,246a13.77,13.77,0,1,0,9.77-4l-.1,13.77Z"/></g><circle class="cls-4" cx="455.52" cy="255.82" r="8.27"/></g><rect class="cls-4" x="186" y="128" width="145" height="47.68" rx="11.1"/><rect class="cls-5" x="191.23" y="136.49" width="134.55" height="43.76" rx="11.1"/><path class="cls-1" d="M258.87,144.39v-.64h-5.28v.64h2.25v5.67h.78v-5.67Zm2.29.7a2.55,2.55,0,1,0,2.41,2.55A2.32,2.32,0,0,0,261.16,145.09Zm0,4.5c-1,0-1.54-.82-1.54-2s.56-1.95,1.54-1.95,1.55.81,1.55,1.95S262.14,149.59,261.16,149.59Zm4.47-3.73h.91v-.61h-.91v-1.12h-.79v1.12h-.64v.61h.64v2.82c0,.28,0,.48,0,.61a.83.83,0,0,0,1,.85,3.85,3.85,0,0,0,.67,0v-.58c-.61.08-.8,0-.84-.49,0-.13,0-.21,0-.37Zm4.88,4.2h.78a8.84,8.84,0,0,1-.09-1.23V147c0-.21,0-.45,0-.64-.08-.8-.56-1.28-1.72-1.28a1.69,1.69,0,0,0-1.86,1.63h.82c.06-.67.39-1,1-1s.91.29.95.74a5.62,5.62,0,0,1,0,.59v.13h-.32c-1.9,0-2.72.56-2.72,1.66a1.39,1.39,0,0,0,1.56,1.38,2.09,2.09,0,0,0,1.22-.3l.26-.52Zm-1.3-.47c-.6,0-1-.26-1-.84,0-.84.84-1.12,2.18-1v.5A1.19,1.19,0,0,1,269.21,149.59Zm4.3-6.25h-.79v5.36c0,.27,0,.48,0,.64,0,.61.36.76.82.76a3.43,3.43,0,0,0,.56,0v-.56c-.43,0-.58-.06-.6-.37v-5.79Zm7.22,3.37a1.37,1.37,0,0,0,1.07-1.38c0-.9-.55-1.4-1.55-1.54a5.63,5.63,0,0,0-.82,0h-1.86v6.31h2a5.5,5.5,0,0,0,.8,0,1.75,1.75,0,0,0,1.63-1.81A1.42,1.42,0,0,0,280.73,146.71Zm-2.37-2.32h1.13a4.26,4.26,0,0,1,.5,0c.57.07,1,.36,1,1a.94.94,0,0,1-.89,1,2.89,2.89,0,0,1-.5,0h-1.21Zm1.8,5-.44,0h-1.36v-2.31h1.3a3.44,3.44,0,0,1,.51,0,1,1,0,0,1,1,1.14A1,1,0,0,1,280.16,149.4Zm3.83-6.06h-.79v5.36c0,.27,0,.48,0,.64,0,.61.36.76.82.76a3.43,3.43,0,0,0,.56,0v-.56c-.43,0-.58-.06-.59-.37,0-.15,0-.31,0-.46Zm3.68,1.75a2.55,2.55,0,1,0,2.4,2.55A2.32,2.32,0,0,0,287.67,145.09Zm0,4.5c-1,0-1.55-.82-1.55-2s.57-1.95,1.55-1.95,1.54.81,1.54,1.95S288.65,149.59,287.67,149.59Zm5.4-4.5a2.32,2.32,0,0,0-2.28,2.56c0,1.77.94,2.54,2.16,2.54a2,2,0,0,0,2.12-1.67h-.82a1.23,1.23,0,0,1-1.25,1.07c-.72,0-1.35-.59-1.35-2s.64-1.9,1.4-1.9,1.07.38,1.25,1.15h.82A1.93,1.93,0,0,0,293.07,145.09Zm6.15,5h1.07L298,147.5l2.26-2.28h-1L297,147.66v-4.32h-.78v6.72H297v-1.54l.46-.5Zm2.33-6.43a.5.5,0,1,0,.5.5A.5.5,0,0,0,301.55,143.63Zm.39,6.43v-4.84h-.78v4.84Zm5.65-3.55a1.54,1.54,0,0,0-1.73-1.42,1.86,1.86,0,0,0-1.27.4l-.3.56v-.83h-.78v4.84h.78v-2.13c0-1.65.64-2.22,1.4-2.22a1,1,0,0,1,1.11,1c0,.25,0,.45,0,.69v2.67h.78v-2.72C307.6,147,307.6,146.75,307.59,146.51Zm5.74-1.29h-.78v.66l-.32-.47a2.12,2.12,0,0,0-1.17-.32,2.33,2.33,0,0,0-2.36,2.62,2.2,2.2,0,0,0,2.2,2.48,2.14,2.14,0,0,0,1.28-.38l.37-.52v.08c0,.14,0,.3,0,.53a1.39,1.39,0,0,1-1.52,1.48c-.83,0-1.31-.41-1.37-1v-.08h-.8v.09c.1,1,.79,1.6,2.17,1.6a2.06,2.06,0,0,0,2.3-2.16c0-.27,0-.64,0-.95ZM311,149.59c-1,0-1.46-.87-1.46-2,0-1.27.65-1.93,1.5-1.93a1.52,1.52,0,0,1,1.49,1.73v.27C312.55,149.08,311.82,149.59,311,149.59Zm-52.15,5.8v-.64h-5.28v.64h2.25v5.67h.78v-5.67Zm1.25-.76a.5.5,0,1,0,.5.5A.5.5,0,0,0,260.12,154.63Zm.39,6.43v-4.84h-.79v4.84Zm8-3.79a1.37,1.37,0,0,0-1.47-1.18,1.62,1.62,0,0,0-1,.28l-.43.62a1.37,1.37,0,0,0-1.4-.9,1.58,1.58,0,0,0-1,.28l-.31.55v-.7h-.79v4.84h.79v-2.39c0-1.47.45-2,1.06-2a.87.87,0,0,1,1,.81,7.87,7.87,0,0,1,0,.95v2.59h.78v-2.39c0-1.47.45-2,1.06-2a.87.87,0,0,1,1,.81,7.87,7.87,0,0,1,0,.95v2.59h.78v-3A4.86,4.86,0,0,0,268.52,157.27ZM274,158.5c0-1.42-.74-2.41-2.07-2.41a2.32,2.32,0,0,0-2.31,2.57c0,1.71.95,2.53,2.21,2.53A2,2,0,0,0,274,159.5h-.82a1.23,1.23,0,0,1-1.26,1.09c-.71,0-1.31-.43-1.39-1.71H274C274,158.7,274,158.58,274,158.5ZM272,156.69c.8,0,1.23.58,1.3,1.58h-2.73C270.61,157.24,271.18,156.69,272,156.69Z"/><path class="cls-1" d="M206.09,144.9c-3.36,0-6.32,2.11-6.32,6,0,2.89,1.69,5.24,5.31,5.24a4.25,4.25,0,0,0,2.87-.89l.8-1.48c-.12,3.74-1.15,5.31-2.87,5.31a2.05,2.05,0,0,1-2.19-1.9l0-.24h-3.72l0,.24c.28,2.84,2.21,4.63,5.69,4.63,4.09,0,6.84-3,6.84-8.86C212.49,147.34,210.3,144.9,206.09,144.9Zm.07,8.49c-1.67,0-2.51-1.23-2.51-3a2.53,2.53,0,0,1,2.47-2.8c1.52,0,2.47,1.18,2.47,2.9S207.48,153.39,206.16,153.39Zm19.1-8.16H212.5v2.87h8.39l-7.31,13.35h4l7.66-14.22Z"/><path class="cls-20" d="M226.5,138.45h0a5.88,5.88,0,0,1,5.88,5.88h0a5.89,5.89,0,0,1-5.88,5.88h0a5.88,5.88,0,0,1-5.88-5.88h0A5.88,5.88,0,0,1,226.5,138.45Z"/><path class="cls-1" d="M227.09,143.57a.85.85,0,0,0-.92-.69,1,1,0,0,0-.59.16l-.29.38a.84.84,0,0,0-.86-.54,1,1,0,0,0-.6.16l-.21.35V143h-.82v2.79h.82v-1.45c0-.57.15-.85.46-.85s.41.16.45.44,0,.29,0,.42v1.44h.81v-1.45c0-.57.16-.85.47-.85s.41.16.44.44a3,3,0,0,1,0,.42v1.44h.82v-1.65A3.87,3.87,0,0,0,227.09,143.57Zm2.12-.69c-.7,0-1.16.33-1.16.88s.34.71.86.84.67.22.67.42-.16.26-.36.26a.47.47,0,0,1-.47-.4h-.81c.07.63.57.93,1.28.93s1.18-.27,1.18-.85-.35-.75-.88-.88-.65-.23-.65-.42a.26.26,0,0,1,.29-.26c.2,0,.32.13.37.36h.81A1,1,0,0,0,229.21,142.88Z"/><line class="cls-21" x1="243.15" y1="138.45" x2="243.15" y2="165.88"/><rect class="cls-4" x="433" y="365" width="208" height="192.51" rx="16.6"/><rect class="cls-5" x="446.28" y="398.19" width="183.66" height="169.28" rx="16.6"/><path class="cls-1" d="M516.75,416.9c-7.89,0-11,5.37-11,14.3s3.1,14.29,11,14.29,11-5.45,11-14.29S524.59,416.9,516.75,416.9Zm0,24c-3,0-4.42-2.83-4.42-9.67s1.43-9.68,4.42-9.68,4.42,2.74,4.42,9.68S519.74,440.87,516.75,440.87Zm18.69-2.63a3.63,3.63,0,1,0,3.63,3.63A3.47,3.47,0,0,0,535.44,438.24Zm24.08-7.88c2.43-.8,4.59-2.55,4.59-5.78,0-4.54-3.55-7.68-9.8-7.68s-9.88,3.14-9.88,7.68a5.67,5.67,0,0,0,4,5.78c-2.79.95-5.34,3.18-5.34,6.81,0,6,4.35,8.36,10.76,8.36,6,0,10.87-2.39,10.87-8.36A7.06,7.06,0,0,0,559.52,430.36Zm-5.29-8.84a3.13,3.13,0,0,1,3.46,3.3,3.23,3.23,0,0,1-3.5,3.47,3.39,3.39,0,0,1,0-6.77ZM554,440.91c-2.75,0-4.3-1.51-4.3-4a3.92,3.92,0,0,1,4.26-4.06c2.87,0,4.34,1.71,4.34,4.14S556.94,440.91,554,440.91Z"/><path class="cls-1" d="M573.37,412.07c-1.92,0-3.19.92-3.19,2.41,0,1.31.94,2,2.37,2.32s1.85.62,1.85,1.17-.44.71-1,.71a1.29,1.29,0,0,1-1.31-1.1h-2.23c.2,1.72,1.57,2.56,3.52,2.56s3.25-.75,3.25-2.35c0-1.44-.95-2.05-2.43-2.43s-1.78-.63-1.78-1.15a.71.71,0,0,1,.79-.7c.56,0,.89.36,1,1h2.23A2.82,2.82,0,0,0,573.37,412.07Zm12.37,3.9a3.63,3.63,0,0,0-3.71-3.9,3.83,3.83,0,0,0-4,4.05c0,2.71,1.68,4,3.82,4a3.53,3.53,0,0,0,3.73-2.71h-2.23a1.35,1.35,0,0,1-1.45,1.15c-.85,0-1.48-.43-1.61-1.9h5.38C585.72,416.41,585.74,416.17,585.74,416Zm-3.81-2.35c.83,0,1.33.56,1.46,1.64h-3C580.56,414.12,581.12,413.62,581.93,413.62Zm9.26-1.55a3.8,3.8,0,0,0-3.93,4.1c0,2.6,1.61,4,3.74,4s3.47-1,3.77-2.92h-2.23a1.46,1.46,0,0,1-1.41,1.36c-.94,0-1.55-.77-1.55-2.56,0-1.62.6-2.4,1.55-2.4.75,0,1.28.43,1.44,1.48h2.2A3.29,3.29,0,0,0,591.19,412.07Z"/><path class="cls-1" d="M482.93,467.76v-1.09H474v1.09h3.81v9.6h1.33v-9.6Zm1.82-1.3a.85.85,0,1,0,.85.85A.84.84,0,0,0,484.75,466.46Zm.67,10.9v-8.21h-1.33v8.21Zm13.28-6.43a2.33,2.33,0,0,0-2.5-2,2.68,2.68,0,0,0-1.73.48l-.73,1.05a2.32,2.32,0,0,0-2.37-1.53,2.66,2.66,0,0,0-1.73.48l-.53.92v-1.19h-1.33v8.21h1.33V473.3c0-2.49.76-3.31,1.8-3.31a1.48,1.48,0,0,1,1.64,1.38c0,.42.06.86.06,1.59v4.4h1.33V473.3c0-2.49.76-3.31,1.8-3.31a1.47,1.47,0,0,1,1.64,1.38,13.41,13.41,0,0,1,.06,1.59v4.4h1.33v-5A9.12,9.12,0,0,0,498.7,470.93Zm9.06,2.1c0-2.41-1.25-4.09-3.51-4.09s-3.9,1.68-3.9,4.35c0,2.89,1.59,4.29,3.73,4.29a3.37,3.37,0,0,0,3.58-2.87h-1.4a2.07,2.07,0,0,1-2.12,1.85c-1.21,0-2.23-.73-2.35-2.9h5.94A5.81,5.81,0,0,0,507.76,473ZM504.22,470c1.35,0,2.07,1,2.2,2.68H501.8C502,470.89,502.92,470,504.22,470Zm10.25.28H516v-1h-1.53v-1.9h-1.34v1.9H512v1h1.1V475c0,.47,0,.81,0,1,.08,1,.6,1.45,1.63,1.45a7.33,7.33,0,0,0,1.13-.08v-1c-1,.13-1.37,0-1.43-.83,0-.22,0-.36,0-.64Zm6.45-1.3c-2.79,0-4.07,2-4.07,4.32s1.28,4.32,4.07,4.32,4.08-2,4.08-4.32S523.71,468.94,520.92,468.94Zm0,7.62c-1.66,0-2.62-1.38-2.62-3.3s1-3.3,2.62-3.3,2.62,1.36,2.62,3.3S522.58,476.56,520.92,476.56Zm10.76.8V466.67h-1.33v10.69Zm9.26-6c-.12-1.44-1.13-2.4-2.93-2.4a3.1,3.1,0,0,0-2.13.68l-.52.94v-1.41H534v8.21h1.33v-3.61c0-2.8,1.09-3.76,2.37-3.76a1.68,1.68,0,0,1,1.88,1.67c0,.42,0,.76,0,1.18v4.52H541v-4.61C541,472.08,541,471.76,540.94,471.34Zm3.87-1.1h1.53v-1h-1.53v-1.9h-1.33v1.9h-1.1v1h1.1V475c0,.47,0,.81,0,1,.08,1,.61,1.45,1.63,1.45a7.33,7.33,0,0,0,1.13-.08v-1c-1,.13-1.36,0-1.42-.83a6.22,6.22,0,0,1,0-.64Zm9.8,2.79c0-2.41-1.25-4.09-3.52-4.09s-3.9,1.68-3.9,4.35c0,2.89,1.6,4.29,3.73,4.29a3.36,3.36,0,0,0,3.58-2.87h-1.39a2.07,2.07,0,0,1-2.12,1.85c-1.21,0-2.23-.73-2.36-2.9h6A5.81,5.81,0,0,0,554.61,473ZM551.06,470c1.35,0,2.08,1,2.2,2.68h-4.61C548.8,470.89,549.76,470,551.06,470Zm8.54-1a2.12,2.12,0,0,0-1.15.37l-.74,1.1v-1.29h-1.34v8.21h1.34v-4.68c0-1.87,1-2.69,2.44-2.6v-1A1.18,1.18,0,0,0,559.6,469Zm6.6,8.39h1.33a13.49,13.49,0,0,1-.16-2.09v-3.08c0-.36,0-.76,0-1.09-.14-1.34-1-2.16-2.92-2.16a2.87,2.87,0,0,0-3.16,2.75h1.4c.09-1.13.65-1.73,1.76-1.73s1.54.49,1.6,1.25c0,.31,0,.64,0,1v.22h-.53c-3.22,0-4.61,1-4.61,2.82a2.36,2.36,0,0,0,2.65,2.34,3.53,3.53,0,0,0,2.06-.51l.45-.89Zm-2.2-.8c-1,0-1.65-.44-1.65-1.43,0-1.41,1.43-1.89,3.69-1.72v.84C566,475.73,565.24,476.56,564,476.56Zm8.89-7.62c-2.06,0-3.86,1.56-3.86,4.33,0,3,1.58,4.31,3.66,4.31a3.38,3.38,0,0,0,3.59-2.84h-1.39a2.08,2.08,0,0,1-2.12,1.82c-1.23,0-2.28-1-2.28-3.38,0-2.21,1.08-3.22,2.37-3.22,1.1,0,1.81.63,2.11,2h1.39A3.26,3.26,0,0,0,572.89,468.94Zm6.62,1.3H581v-1h-1.53v-1.9h-1.33v1.9h-1.1v1h1.1V475c0,.47,0,.81,0,1,.08,1,.61,1.45,1.63,1.45a7.33,7.33,0,0,0,1.13-.08v-1c-1,.13-1.36,0-1.43-.83,0-.22,0-.36,0-.64Zm3.93-3.78a.85.85,0,1,0,.85.85A.85.85,0,0,0,583.44,466.46Zm.66,10.9v-8.21h-1.33v8.21Zm9.08-8.21h-1.41l-2.46,7.24-2.51-7.24h-1.47l3.11,8.21h1.63ZM601,473c0-2.41-1.25-4.09-3.51-4.09s-3.91,1.68-3.91,4.35c0,2.89,1.6,4.29,3.74,4.29a3.37,3.37,0,0,0,3.58-2.87h-1.4a2.07,2.07,0,0,1-2.12,1.85c-1.21,0-2.23-.73-2.36-2.9h6A5.81,5.81,0,0,0,601,473ZM597.49,470c1.34,0,2.07,1,2.2,2.68h-4.62C595.23,470.89,596.19,470,597.49,470Z"/><path class="cls-22" d="M523.78,507.31h-.95a2.6,2.6,0,0,0-1.42.41l-2.36,1.44v1.67l3-1.74V518h1.71Zm9.45,5A2.44,2.44,0,0,0,535,510c0-1.77-1.35-2.92-3.57-2.92s-3.56,1.15-3.56,2.92a2.39,2.39,0,0,0,1.63,2.34,2.83,2.83,0,0,0-2.11,2.64c0,2.34,1.75,3.24,3.93,3.24,2,0,3.95-.9,3.95-3.24A2.78,2.78,0,0,0,533.23,512.35Zm-1.8-4a1.6,1.6,0,0,1,1.78,1.67,1.78,1.78,0,1,1-1.78-1.67Zm-.07,8.53a1.93,1.93,0,1,1,0-3.84,1.85,1.85,0,0,1,2.09,1.92A1.81,1.81,0,0,1,531.36,516.93Zm9.56-9.84c-3,0-4,2.33-4,5.57s1,5.56,4,5.56,4-2.36,4-5.56S543.91,507.09,540.92,507.09Zm0,9.83c-1.52,0-2.16-1.52-2.16-4.26s.64-4.26,2.16-4.26,2.15,1.48,2.15,4.26S542.45,516.92,540.92,516.92Zm6.66-1a1.08,1.08,0,0,0-1.13,1.13,1.13,1.13,0,1,0,1.13-1.13Zm6.82-8.87c-3,0-4,2.33-4,5.57s1,5.56,4,5.56,4-2.36,4-5.56S557.39,507.09,554.4,507.09Zm0,9.83c-1.52,0-2.15-1.52-2.15-4.26s.63-4.26,2.15-4.26,2.15,1.48,2.15,4.26S555.94,516.92,554.4,516.92Zm11.31-4.59a2.49,2.49,0,0,0,1.94-2.49c0-1.58-1.22-2.75-3.36-2.75a3.47,3.47,0,0,0-3.83,3.21v.16h1.69v-.16a1.91,1.91,0,0,1,2-1.9,1.58,1.58,0,0,1,1.71,1.64,1.9,1.9,0,0,1-2.09,1.9l-.31,0v1.25h.31c1.58,0,2.33.67,2.33,1.85a1.86,1.86,0,0,1-2.07,1.86,2.1,2.1,0,0,1-2.26-2l0-.15H560v.15c.24,2.27,1.69,3.29,3.89,3.29s4-1.24,4-3.24A2.58,2.58,0,0,0,565.71,512.33Zm6.17-5.19a2.51,2.51,0,0,0,0,5,2.51,2.51,0,0,0,0-5Zm.17,10.86L579,507.31h-1.48L570.57,518Zm-.17-9.84c.58,0,1,.51,1,1.48s-.37,1.48-1,1.48-.94-.52-.94-1.48S571.3,508.16,571.88,508.16Zm5.75,5.05a2.51,2.51,0,1,0,2.34,2.5A2.26,2.26,0,0,0,577.63,513.21Zm0,1c.59,0,1,.51,1,1.47s-.36,1.49-1,1.49-.94-.53-.94-1.49S577.06,514.24,577.63,514.24Z"/><path class="cls-23" d="M510,514l-5.5-6-5.5,6"/><path class="cls-23" d="M504.5,509v10"/><g class="cls-24"><rect class="cls-1" x="602" y="127" width="75" height="28.32" rx="9.95"/><path class="cls-25" d="M616.54,136.67l1.13,2.54a.9.9,0,0,0,.74.54l2.76.29-2.06,1.85a.91.91,0,0,0-.29.88l.5-.11-.5.11.58,2.71-2.4-1.39a.89.89,0,0,0-.92,0l-2.4,1.39.58-2.71a.93.93,0,0,0-.28-.88L611.91,140l2.76-.29a.92.92,0,0,0,.75-.54Z"/><path class="cls-25" d="M628,136.67l1.13,2.54a.9.9,0,0,0,.74.54l2.76.29-2.06,1.85a.91.91,0,0,0-.29.88l.5-.11-.5.11.58,2.71-2.4-1.39a.89.89,0,0,0-.92,0l-2.4,1.39.58-2.71a.91.91,0,0,0-.29-.88L623.39,140l2.76-.29a.9.9,0,0,0,.74-.54Z"/><path class="cls-25" d="M639.5,136.67l1.13,2.54a.9.9,0,0,0,.74.54l2.76.29-2.06,1.85a.91.91,0,0,0-.29.88l.5-.11-.5.11.58,2.71-2.4-1.39a.89.89,0,0,0-.92,0l-2.4,1.39.58-2.71a.91.91,0,0,0-.29-.88L634.87,140l2.76-.29a.9.9,0,0,0,.74-.54Z"/><path class="cls-25" d="M651,136.67l1.13,2.54a.9.9,0,0,0,.74.54l2.76.29-2.07,1.85a.93.93,0,0,0-.28.88l.5-.11-.5.11.58,2.71-2.4-1.39a.89.89,0,0,0-.92,0l-2.4,1.39.58-2.71a.91.91,0,0,0-.29-.88L646.35,140l2.76-.29a.9.9,0,0,0,.74-.54Z"/><path class="cls-25" d="M662.46,136.67l1.13,2.54a.9.9,0,0,0,.74.54l2.76.29L665,141.89a.93.93,0,0,0-.28.88l.5-.11-.5.11.58,2.71-2.4-1.39a.89.89,0,0,0-.92,0l-2.4,1.39.58-2.71a.91.91,0,0,0-.29-.88L657.83,140l2.76-.29a.9.9,0,0,0,.74-.54Z"/></g><rect class="cls-4" x="277" y="2" width="164" height="203.66" rx="18.22"/><rect class="cls-5" x="285" y="20" width="148" height="193" rx="18.22"/><path class="cls-26" d="M359.52,163.36a45.61,45.61,0,1,0-45.6-45.6A45.61,45.61,0,0,0,359.52,163.36Z"/><path class="cls-27" d="M359.8,72.15A45.88,45.88,0,0,0,313.92,118"/><path class="cls-28" d="M317.68,96.25a18.13,18.13,0,1,0-18.14-18.13A18.13,18.13,0,0,0,317.68,96.25Z"/><path class="cls-15" d="M313,73.24l.7-.68c.79-.77,1-1.15,1-1.68,0-.76-.52-1.25-1.48-1.25a1.5,1.5,0,0,0-1.68,1.44v.06h1v-.06c0-.48.23-.72.61-.72a.52.52,0,0,1,.55.58c0,.41-.22.71-.82,1.29l-1.4,1.34V74h3.21v-.76Zm5-1.5a.94.94,0,0,0,.8-1c0-.62-.49-1.13-1.47-1.13A1.49,1.49,0,0,0,315.64,71V71h1V71a.6.6,0,0,1,.59-.62.49.49,0,0,1,.54.52c0,.35-.25.59-.68.62h-.16v.64h.16c.5,0,.78.23.78.63a.61.61,0,0,1-.69.59.71.71,0,0,1-.73-.64v-.06h-1v.06c.08.87.7,1.36,1.72,1.36s1.69-.53,1.69-1.34A1,1,0,0,0,318,71.74Zm2.52-2.09a.91.91,0,0,0-1,1,1,1,0,1,0,1-1Zm.2,4.35,2.76-4.27h-.7L320,74Zm-.2-3.87c.22,0,.34.19.34.54s-.12.56-.34.56-.34-.2-.34-.56S320.26,70.13,320.49,70.13ZM322.9,72a1,1,0,0,0,0,2.07,1,1,0,0,0,0-2.07Zm0,.49c.23,0,.34.19.34.54s-.11.55-.34.55-.34-.19-.34-.55S322.68,72.51,322.9,72.51Z"/><path class="cls-29" d="M311.53,76.55a1.1,1.1,0,0,0-1.22,1c0,.61.45.87,1.1,1s.89.35.89.8-.34.61-.75.61a.88.88,0,0,1-.92-.75h-.49a1.24,1.24,0,0,0,1.39,1.11,1.12,1.12,0,0,0,1.26-1.06c0-.62-.4-.94-1.21-1.13-.55-.13-.78-.3-.78-.7s.3-.56.69-.56a.73.73,0,0,1,.78.73h.49A1.14,1.14,0,0,0,311.53,76.55Zm3.34.85a1.25,1.25,0,0,0-.74.22l-.21.31v-.46h-.46v3.86h.46V79.9l.18.28a1.27,1.27,0,0,0,.68.18,1.36,1.36,0,0,0,1.37-1.52A1.29,1.29,0,0,0,314.87,77.4ZM314.78,80a.88.88,0,0,1-.86-1v-.16c0-.8.42-1.1.88-1.1s.85.51.85,1.14S315.27,80,314.78,80Zm4.33-1.21c0-.82-.43-1.4-1.2-1.4a1.35,1.35,0,0,0-1.34,1.49c0,1,.55,1.47,1.28,1.47a1.14,1.14,0,0,0,1.22-1h-.47a.71.71,0,0,1-.73.63c-.41,0-.76-.25-.81-1h2A2.13,2.13,0,0,0,319.11,78.8Zm-1.21-1c.46,0,.71.33.75.92h-1.58C317.12,78.07,317.45,77.75,317.9,77.75Zm4.22,1c0-.82-.43-1.4-1.2-1.4a1.35,1.35,0,0,0-1.34,1.49c0,1,.55,1.47,1.28,1.47a1.15,1.15,0,0,0,1.23-1h-.48a.71.71,0,0,1-.73.63c-.41,0-.76-.25-.8-1h2A2.13,2.13,0,0,0,322.12,78.8Zm-1.21-1c.46,0,.71.33.75.92h-1.58C320.13,78.07,320.46,77.75,320.91,77.75Zm4.37-1.36h-.45v1.47l-.19-.27a1.18,1.18,0,0,0-.67-.19,1.36,1.36,0,0,0-1.38,1.52,1.31,1.31,0,0,0,2,1.22l.21-.3v.45h.45ZM323.94,80c-.56,0-.85-.5-.85-1.14s.38-1.12.88-1.12a.88.88,0,0,1,.86,1v.16C324.83,79.71,324.41,80,323.94,80ZM312,86.29V82.62h-.45v3.67Zm3.28-2.07a.9.9,0,0,0-1-.82,1.1,1.1,0,0,0-.73.23l-.18.33v-.49h-.45v2.82h.45V85.05c0-1,.38-1.29.82-1.29a.58.58,0,0,1,.64.57c0,.15,0,.26,0,.41v1.55h.46V84.71C315.3,84.48,315.3,84.37,315.29,84.22Zm3.33-1.83h-.46v1.47l-.18-.27a1.19,1.19,0,0,0-.68-.19,1.36,1.36,0,0,0-1.37,1.52,1.28,1.28,0,0,0,1.28,1.44,1.25,1.25,0,0,0,.74-.22l.21-.3v.45h.46ZM317.28,86c-.56,0-.85-.5-.85-1.14s.38-1.12.87-1.12a.88.88,0,0,1,.86,1v.16C318.16,85.71,317.75,86,317.28,86Zm4.56-1.21c0-.82-.43-1.4-1.21-1.4a1.35,1.35,0,0,0-1.34,1.49c0,1,.55,1.47,1.28,1.47a1.15,1.15,0,0,0,1.23-1h-.48a.71.71,0,0,1-.73.63c-.41,0-.76-.25-.8-1h2A2.13,2.13,0,0,0,321.84,84.8Zm-1.22-1c.46,0,.71.33.75.92h-1.58C319.85,84.07,320.18,83.75,320.62,83.75Zm2.95,1.1,1-1.38H324l-.7,1.09-.71-1.09h-.54l1,1.39-1,1.43h.53l.73-1.13.74,1.13h.53Z"/><path class="cls-28" d="M392.86,181.38a18.13,18.13,0,1,0-18.14-18.13A18.13,18.13,0,0,0,392.86,181.38Z"/><path class="cls-15" d="M390.08,154.73h-3.36v.75h2.21L387,159h1.06l2-3.75Zm2.66,1.4a1.09,1.09,0,0,0-.77.24l-.2.38c0-1,.3-1.39.76-1.39.3,0,.48.15.57.5v.06h1v-.06a1.36,1.36,0,0,0-1.51-1.22c-1.05,0-1.8.8-1.8,2.34s.58,2.11,1.69,2.11a1.56,1.56,0,0,0,1.67-1.58A1.3,1.3,0,0,0,392.74,156.13Zm-.28,2.24c-.4,0-.65-.31-.65-.76s.29-.76.64-.76.66.32.66.78A.67.67,0,0,1,392.46,158.37Zm3.27-3.72a.91.91,0,0,0-1,1,1,1,0,1,0,1-1Zm.2,4.35,2.77-4.27H398L395.23,159Zm-.2-3.87c.23,0,.35.19.35.54s-.12.56-.35.56-.34-.2-.34-.56S395.51,155.13,395.73,155.13Zm2.42,1.89a1,1,0,1,0,1,1A.92.92,0,0,0,398.15,157Zm0,.49c.23,0,.34.19.34.54s-.11.55-.34.55-.34-.19-.34-.55S397.93,157.51,398.15,157.51Z"/><path class="cls-29" d="M387,162.42v-.37h-3.07v.37h1.31v3.29h.46v-3.29Zm.72-.45a.3.3,0,1,0,.3.3A.29.29,0,0,0,387.71,162Zm.23,3.74V162.9h-.45v2.81Zm4.65-2.2a.8.8,0,0,0-.85-.69.93.93,0,0,0-.6.17l-.25.36a.79.79,0,0,0-.81-.53.88.88,0,0,0-.59.17l-.18.31v-.4h-.46v2.81h.46v-1.39c0-.86.26-1.14.61-1.14a.5.5,0,0,1,.56.47,4.2,4.2,0,0,1,0,.55v1.51H391v-1.39c0-.86.26-1.14.62-1.14a.5.5,0,0,1,.56.47,4.2,4.2,0,0,1,0,.55v1.51h.46V164A3,3,0,0,0,392.59,163.51Zm3.21.71c0-.82-.43-1.4-1.21-1.4a1.34,1.34,0,0,0-1.33,1.49c0,1,.54,1.47,1.27,1.47a1.15,1.15,0,0,0,1.23-1h-.48a.71.71,0,0,1-.72.63c-.42,0-.77-.25-.81-1h2A2,2,0,0,0,395.8,164.22Zm-1.22-1.05c.46,0,.71.34.76.92h-1.59C393.81,163.49,394.14,163.17,394.58,163.17Zm3.71.1h.53v-.35h-.53v-.65h-.45v.65h-.38v.35h.38v2c0,.35.21.49.56.49a2.61,2.61,0,0,0,.39,0v-.34c-.36,0-.47,0-.49-.29a1.34,1.34,0,0,1,0-.21Zm2.31-.45a1.48,1.48,0,1,0,1.4,1.48A1.34,1.34,0,0,0,400.6,162.82Zm0,2.61c-.56,0-.89-.47-.89-1.13s.33-1.13.89-1.13.9.47.9,1.13S401.17,165.43,400.6,165.43ZM381,171.71v-3.66h-.46v3.66Zm3.27-2.07a.89.89,0,0,0-1-.82,1,1,0,0,0-.73.24l-.18.32v-.48h-.45v2.81h.45v-1.24c0-1,.37-1.29.81-1.29a.58.58,0,0,1,.65.58c0,.14,0,.26,0,.4v1.55h.45v-1.58C384.29,169.9,384.29,169.79,384.28,169.64Zm1.43-.37h.52v-.35h-.52v-.65h-.46v.65h-.38v.35h.38v1.64a3.23,3.23,0,0,0,0,.35c0,.35.2.49.55.49a2.55,2.55,0,0,0,.39,0v-.34c-.36,0-.47,0-.49-.29v-1.83Zm3.45.95c0-.82-.43-1.4-1.2-1.4a1.35,1.35,0,0,0-1.34,1.49c0,1,.55,1.47,1.28,1.47a1.15,1.15,0,0,0,1.23-1h-.48a.71.71,0,0,1-.73.63c-.41,0-.76-.25-.8-1h2A2,2,0,0,0,389.16,170.22ZM388,169.17c.46,0,.71.34.75.92h-1.58C387.17,169.49,387.5,169.17,388,169.17Zm3-.34a.73.73,0,0,0-.39.13l-.26.38v-.44h-.45v2.81h.45v-1.6c0-.65.37-.93.84-.9v-.34A.36.36,0,0,0,391,168.83Zm2.36,2.88h.46a5.21,5.21,0,0,1-.05-.72v-1.05c0-.13,0-.26,0-.37-.05-.47-.33-.75-1-.75a1,1,0,0,0-1.08,1h.48c0-.39.22-.6.6-.6s.53.17.55.43,0,.22,0,.34V170h-.18c-1.1,0-1.58.33-1.58,1a.81.81,0,0,0,.91.8,1.22,1.22,0,0,0,.7-.17l.15-.3Zm-.75-.28c-.35,0-.56-.15-.56-.48,0-.49.48-.65,1.26-.59v.28C393.28,171.15,393,171.43,392.58,171.43Zm3.15-2.61a1.36,1.36,0,0,0-1.33,1.49c0,1,.55,1.47,1.26,1.47a1.16,1.16,0,0,0,1.23-1h-.48a.72.72,0,0,1-.73.62c-.42,0-.78-.34-.78-1.15s.37-1.11.82-1.11.62.22.72.67h.47A1.12,1.12,0,0,0,395.73,168.82Zm2.36.45h.53v-.35h-.53v-.65h-.45v.65h-.38v.35h.38v2c0,.35.21.49.56.49a2.61,2.61,0,0,0,.39,0v-.34c-.36,0-.47,0-.49-.29a1.34,1.34,0,0,1,0-.21Zm1.45-1.3a.3.3,0,0,0,0,.59.3.3,0,0,0,0-.59Zm.23,3.74V168.9h-.46v2.81ZM403,168.9h-.49l-.84,2.48-.86-2.48h-.5l1.06,2.81h.56Zm2.79,1.32c0-.82-.43-1.4-1.21-1.4a1.35,1.35,0,0,0-1.34,1.49c0,1,.55,1.47,1.28,1.47a1.15,1.15,0,0,0,1.23-1h-.48a.71.71,0,0,1-.73.63c-.41,0-.76-.25-.8-1h2A2,2,0,0,0,405.77,170.22Zm-1.22-1.05c.46,0,.71.34.75.92h-1.58C403.78,169.49,404.1,169.17,404.55,169.17Z"/><path class="cls-1" d="M303.06,35.49l.83,2.51h1.3l-2.65-7.59H301L298.25,38h1.29l.83-2.51Zm-2.38-1,1.06-3.13,1,3.13Zm10.64-.86A1.84,1.84,0,0,0,309.24,32a2.15,2.15,0,0,0-1.47.45l-.4.67v-1h-1.21V38h1.21V35.38c0-1.82.69-2.48,1.52-2.48A1.1,1.1,0,0,1,310.12,34a7.77,7.77,0,0,1,0,.82V38h1.21V34.71A9.43,9.43,0,0,0,311.32,33.68ZM316.39,38h1.2a9.83,9.83,0,0,1-.11-1.49v-2a7.33,7.33,0,0,0,0-.83c-.09-1-.69-1.62-2.2-1.62a2.12,2.12,0,0,0-2.36,2h1.21c.07-.73.43-1.13,1.13-1.13s1,.33,1,.81c0,.22,0,.42,0,.64v.14h-.38c-2.21,0-3.24.7-3.24,2a1.69,1.69,0,0,0,1.88,1.68,2.53,2.53,0,0,0,1.45-.37l.3-.63ZM315,37.27c-.64,0-1.05-.28-1.05-.9,0-.89.93-1.21,2.35-1.1v.54A1.28,1.28,0,0,1,315,37.27Zm5.4-7.36h-1.21v6.34c0,.35,0,.62,0,.84,0,.75.47,1,1.11,1a6.35,6.35,0,0,0,.79-.06v-.85c-.51.05-.67-.06-.69-.39s0-.35,0-.55Zm7,2.25h-1.31l-1.59,4.94-1.61-4.94h-1.35l2.35,6.11-.08.21a1.18,1.18,0,0,1-1.19.92h-.39v.89a3.33,3.33,0,0,0,.58,0c1,0,1.68-.55,2.22-1.94Zm2.86-.15c-1.29,0-2.15.65-2.15,1.74s.79,1.48,1.86,1.75,1.38.54,1.38,1-.45.75-1,.75a1.17,1.17,0,0,1-1.24-1h-1.22a2.14,2.14,0,0,0,2.42,1.9c1.27,0,2.27-.56,2.27-1.69s-.67-1.54-1.94-1.87c-.87-.23-1.3-.45-1.3-1s.27-.76.85-.76a1.05,1.05,0,0,1,1.07,1h1.24A2,2,0,0,0,330.24,32Zm4.15-1.89a.7.7,0,1,0,.71.7A.69.69,0,0,0,334.39,30.12ZM335,38V32.16h-1.21V38Zm3.62-6c-1.3,0-2.16.65-2.16,1.74s.8,1.48,1.86,1.75,1.39.54,1.39,1-.45.75-1,.75a1.18,1.18,0,0,1-1.25-1h-1.22a2.14,2.14,0,0,0,2.42,1.9c1.28,0,2.28-.56,2.28-1.69s-.67-1.54-1.95-1.87c-.87-.23-1.3-.45-1.3-1a.74.74,0,0,1,.85-.76,1.05,1.05,0,0,1,1.08,1h1.23A2,2,0,0,0,338.61,32Zm11.5,4a1.94,1.94,0,0,0-1-1.75,1.8,1.8,0,0,0,1.4-1.81,1.93,1.93,0,0,0-1.92-2,8.79,8.79,0,0,0-1.05,0h-2.61V38h1.21V34.83h1.73c.7,0,1,.55,1.09,1.36a6.23,6.23,0,0,0,.39,1.8h1.33A3.85,3.85,0,0,1,350.11,36Zm-4-2.14V31.37h1.34a4.47,4.47,0,0,1,.7,0,1.09,1.09,0,0,1,1.06,1.22A1.17,1.17,0,0,1,348,33.88a6.35,6.35,0,0,1-.68,0Zm10.7,1c0-1.65-.92-2.92-2.61-2.92a2.84,2.84,0,0,0-2.86,3.09c0,2.06,1.18,3,2.74,3a2.49,2.49,0,0,0,2.64-2h-1.22a1.32,1.32,0,0,1-1.38,1.16c-.79,0-1.43-.46-1.53-1.86h4.19A3.11,3.11,0,0,0,356.8,34.93Zm-2.66-2c.85,0,1.32.61,1.41,1.69h-3C352.73,33.45,353.32,32.88,354.14,32.88ZM360,32c-1.29,0-2.15.65-2.15,1.74s.79,1.48,1.86,1.75,1.38.54,1.38,1-.45.75-1,.75a1.17,1.17,0,0,1-1.24-1h-1.22a2.14,2.14,0,0,0,2.42,1.9c1.27,0,2.27-.56,2.27-1.69s-.67-1.54-1.94-1.87c-.87-.23-1.3-.45-1.3-1s.27-.76.85-.76a1.05,1.05,0,0,1,1.07,1h1.24A2,2,0,0,0,360,32Zm8.63.15h-1.2v2.75c0,1.69-.63,2.34-1.48,2.34a1.14,1.14,0,0,1-1.25-1,6.56,6.56,0,0,1,0-.81V32.16h-1.2v3.47a5.91,5.91,0,0,0,.06,1,1.87,1.87,0,0,0,2,1.48,2.36,2.36,0,0,0,1.48-.42l.4-.73v1h1.2Zm2.9-2.25h-1.21v6.34c0,.35,0,.62,0,.84.05.75.48,1,1.11,1a6.67,6.67,0,0,0,.8-.06v-.85c-.52.05-.68-.06-.7-.39s0-.35,0-.55Zm3.34,3.14H376V32.2h-1.15V30.81h-1.2V32.2h-.82v.85h.82v3.17c0,.33,0,.58,0,.78.06.77.45,1.11,1.37,1.11A5.51,5.51,0,0,0,376,38v-.83c-.79.08-1-.05-1.06-.62,0-.15,0-.28,0-.48Zm4.31-1c-1.3,0-2.15.65-2.15,1.74s.79,1.48,1.86,1.75,1.38.54,1.38,1-.45.75-1,.75a1.17,1.17,0,0,1-1.24-1h-1.22a2.14,2.14,0,0,0,2.42,1.9c1.27,0,2.27-.56,2.27-1.69s-.67-1.54-1.94-1.87c-.87-.23-1.3-.45-1.3-1a.73.73,0,0,1,.84-.76,1.05,1.05,0,0,1,1.08,1h1.23A2,2,0,0,0,379.19,32Z"/><rect class="cls-4" x="90" y="248" width="200" height="96" rx="13.33"/><rect class="cls-5" x="98.89" y="263.11" width="182.22" height="87.11" rx="13.33"/><path class="cls-1" d="M176.84,278.69c-6.34,0-8.83,4.32-8.83,11.49s2.49,11.49,8.83,11.49,8.83-4.38,8.83-11.49S183.14,278.69,176.84,278.69Zm0,19.27c-2.4,0-3.55-2.27-3.55-7.78s1.15-7.77,3.55-7.77,3.55,2.2,3.55,7.77S179.24,298,176.84,298Zm15-2.11a2.91,2.91,0,1,0,2.91,2.91A2.78,2.78,0,0,0,191.86,295.85Zm14.77-17.16c-4.57,0-8.61,2.88-8.61,8.13,0,3.94,2.31,7.14,7.24,7.14a5.75,5.75,0,0,0,3.9-1.22l1.09-2c-.16,5.08-1.57,7.23-3.91,7.23-1.66,0-2.59-.8-3-2.59l-.07-.32h-5.05l0,.32c.38,3.87,3,6.3,7.74,6.3,5.57,0,9.32-4.13,9.32-12.06C215.34,282,212.36,278.69,206.63,278.69Zm.1,11.56c-2.27,0-3.43-1.67-3.43-4,0-2.08,1.22-3.8,3.36-3.8S210,284,210,286.34C210,288.87,208.52,290.25,206.73,290.25Z"/><path class="cls-1" d="M220.56,275.79c-1.55,0-2.57.74-2.57,1.94,0,1,.75,1.57,1.91,1.86s1.48.5,1.48.94-.35.58-.79.58a1.05,1.05,0,0,1-1.05-.89h-1.79c.16,1.38,1.26,2,2.83,2s2.61-.6,2.61-1.88-.76-1.65-1.95-1.95-1.43-.51-1.43-.93a.57.57,0,0,1,.63-.56c.45,0,.72.28.82.79h1.79A2.26,2.26,0,0,0,220.56,275.79Zm9.93,3.13a2.92,2.92,0,0,0-3-3.13,3.08,3.08,0,0,0-3.19,3.26,2.91,2.91,0,0,0,3.07,3.22,2.83,2.83,0,0,0,3-2.17H228.6a1.1,1.1,0,0,1-1.17.92c-.68,0-1.19-.34-1.3-1.52h4.33C230.48,279.28,230.49,279.08,230.49,278.92ZM227.43,277c.67,0,1.07.45,1.18,1.32h-2.43C226.33,277.44,226.78,277,227.43,277Zm7.44-1.25a3.05,3.05,0,0,0-3.16,3.29,2.89,2.89,0,0,0,3,3.19,2.76,2.76,0,0,0,3-2.34H236a1.16,1.16,0,0,1-1.13,1.09c-.75,0-1.25-.62-1.25-2s.49-1.93,1.25-1.93c.6,0,1,.35,1.16,1.19h1.77A2.65,2.65,0,0,0,234.87,275.79Z"/><path class="cls-1" d="M172,309.91c-1.58,0-2.86.93-2.86,2.41s1.05,2,2.57,2.38,2.11.82,2.11,1.86S173,318,172.06,318a2.08,2.08,0,0,1-2.16-1.76h-1.14c.19,1.65,1.38,2.61,3.27,2.61,1.66,0,2.95-1,2.95-2.48s-.95-2.22-2.84-2.66c-1.3-.3-1.84-.7-1.84-1.63s.72-1.32,1.63-1.32a1.69,1.69,0,0,1,1.82,1.71h1.14A2.66,2.66,0,0,0,172,309.91Zm7.6,2a2.92,2.92,0,0,0-1.74.52l-.5.71v-1.06h-1.07v9h1.07v-3.35l.44.65a2.86,2.86,0,0,0,1.58.43c1.7,0,3.22-1.13,3.22-3.57C182.62,313.34,181.55,311.9,179.62,311.9ZM179.4,318a2.06,2.06,0,0,1-2-2.35v-.36c0-1.9,1-2.59,2.08-2.59,1.32,0,2,1.18,2,2.67C181.45,317.12,180.56,318,179.4,318Zm9.93-2.84c0-1.93-1-3.28-2.82-3.28s-3.14,1.35-3.14,3.49c0,2.33,1.28,3.45,3,3.45a2.71,2.71,0,0,0,2.88-2.3h-1.12a1.67,1.67,0,0,1-1.71,1.48c-1,0-1.79-.59-1.89-2.33h4.78C189.33,315.46,189.33,315.28,189.33,315.18Zm-2.85-2.46c1.09,0,1.67.78,1.77,2.15h-3.71C184.67,313.47,185.44,312.72,186.48,312.72Zm9.68,2.46c0-1.93-1-3.28-2.82-3.28s-3.14,1.35-3.14,3.49c0,2.33,1.28,3.45,3,3.45a2.71,2.71,0,0,0,2.88-2.3H195a1.67,1.67,0,0,1-1.71,1.48c-1,0-1.79-.59-1.89-2.33h4.78C196.16,315.46,196.16,315.28,196.16,315.18Zm-2.85-2.46c1.09,0,1.67.78,1.77,2.15h-3.71C191.5,313.47,192.27,312.72,193.31,312.72Zm10-3.2h-1.07V313l-.43-.65a2.92,2.92,0,0,0-1.59-.43c-1.7,0-3.22,1.13-3.22,3.57,0,1.93,1.07,3.37,3,3.37a2.92,2.92,0,0,0,1.74-.52l.5-.71v1.06h1.07Zm-3.15,8.5c-1.32,0-2-1.18-2-2.68,0-1.73.9-2.62,2.05-2.62a2.06,2.06,0,0,1,2,2.35v.36C202.27,317.32,201.29,318,200.19,318Zm9.12.65v-8.59h-1.07v8.59Zm7.44-4.84a2.09,2.09,0,0,0-2.35-1.93,2.53,2.53,0,0,0-1.72.54l-.41.76v-1.13H211.2v6.6h1.07v-2.9c0-2.25.87-3,1.91-3a1.34,1.34,0,0,1,1.5,1.35c0,.33,0,.61,0,.94v3.64h1.07V315C216.78,314.42,216.78,314.16,216.75,313.83Zm7.59-4.31h-1.07V313l-.43-.65a2.92,2.92,0,0,0-1.59-.43c-1.7,0-3.22,1.13-3.22,3.57,0,1.93,1.07,3.37,3,3.37a2.92,2.92,0,0,0,1.74-.52l.5-.71v1.06h1.07Zm-3.15,8.5c-1.32,0-2-1.18-2-2.68,0-1.73.9-2.62,2.05-2.62a2.06,2.06,0,0,1,2,2.35v.36C223.27,317.32,222.29,318,221.19,318Zm10.46-2.84c0-1.93-1-3.28-2.83-3.28s-3.13,1.35-3.13,3.49c0,2.33,1.28,3.45,3,3.45a2.7,2.7,0,0,0,2.87-2.3h-1.12a1.66,1.66,0,0,1-1.7,1.48c-1,0-1.8-.59-1.89-2.33h4.77A3.76,3.76,0,0,0,231.65,315.18Zm-2.85-2.46c1.08,0,1.67.78,1.77,2.15h-3.71C227,313.47,227.75,312.72,228.8,312.72Zm6.68,2.59,2.32-3.24h-1.23l-1.66,2.55-1.65-2.55H232l2.27,3.26-2.36,3.34h1.23l1.72-2.65,1.73,2.65h1.24Z"/><g class="cls-30"><path class="cls-31" d="M118.78,281.88a22.25,22.25,0,1,1-1.7,1.88l17.3,13.95Z"/></g><g class="cls-32"><path class="cls-33" d="M118.78,281.88a22.22,22.22,0,1,0,15.76-6.39l-.16,22.22Z"/></g><circle class="cls-4" cx="134.38" cy="297.71" r="13.33"/><rect class="cls-4" x="242" y="416" width="79" height="79" rx="19.75"/><circle class="cls-34" cx="281.5" cy="455.5" r="26.72"/><path class="cls-20" d="M257.06,444.7a26.72,26.72,0,1,0,24.25-15.92l.19,26.72Z"/><circle class="cls-4" cx="281.5" cy="455.5" r="23.24"/><path class="cls-35" d="M278.45,467.62l1.82-9.07L273,455.83l12.71-13.62-1.81,9.08,7.26,2.72Z"/><path class="cls-36" d="M278.45,467.62l1.82-9.07L273,455.83l12.71-13.62-1.81,9.08,7.26,2.72Z"/><rect class="cls-4" x="533" y="50" width="55" height="55" rx="13.96"/><g class="cls-37"><path class="cls-38" d="M561.05,91a13,13,0,1,0-13-13A13,13,0,0,0,561.05,91Z"/><path class="cls-39" d="M561.05,91a13,13,0,1,0-13-13A13,13,0,0,0,561.05,91Z"/><path class="cls-40" d="M561.05,78.05l5.84-5.84"/><path class="cls-40" d="M557.51,60.35h7.08"/></g><g class="cls-41"><rect class="cls-1" x="309" y="231" width="30" height="30" rx="7.61"/><g class="cls-42"><path class="cls-38" d="M323.78,253.75a7.08,7.08,0,1,0-7.08-7.08A7.08,7.08,0,0,0,323.78,253.75Z"/><path class="cls-43" d="M323.78,253.75a7.08,7.08,0,1,0-7.08-7.08A7.08,7.08,0,0,0,323.78,253.75Z"/><path class="cls-44" d="M323.78,246.67l3.18-3.18"/><path class="cls-44" d="M321.85,237h3.86"/></g></g><rect class="cls-4" x="479" y="187" width="233.1" height="76.65" rx="17.85"/><rect class="cls-5" x="487.4" y="200.65" width="216.3" height="70.35" rx="17.85"/><path class="cls-1" d="M596.15,212.89v-1h-8.5v1h3.62V222h1.26v-9.11Zm3.4,1.11c-2.64,0-3.86,1.9-3.86,4.11s1.22,4.1,3.86,4.1,3.87-1.91,3.87-4.1S602.2,214,599.55,214Zm0,7.24c-1.57,0-2.48-1.31-2.48-3.13S598,215,599.55,215s2.49,1.3,2.49,3.14S601.13,221.24,599.55,221.24Zm6.91-6h1.46v-1h-1.46v-1.81H605.2v1.81h-1.05v1h1.05v4.54c0,.44,0,.77,0,1,.08,1,.58,1.37,1.55,1.37a6.59,6.59,0,0,0,1.07-.08v-.92c-1,.12-1.29-.05-1.35-.8a5.35,5.35,0,0,1,0-.6ZM614,222h1.27a13.29,13.29,0,0,1-.15-2v-2.93c0-.34,0-.72,0-1-.13-1.28-.91-2.06-2.77-2.06a2.71,2.71,0,0,0-3,2.62h1.32c.09-1.07.62-1.65,1.67-1.65s1.46.47,1.52,1.19c0,.3,0,.61,0,1v.2h-.5c-3.06,0-4.38.91-4.38,2.68a2.24,2.24,0,0,0,2.51,2.22,3.37,3.37,0,0,0,2-.49l.42-.84Zm-2.08-.76c-1,0-1.56-.42-1.56-1.36,0-1.33,1.35-1.79,3.5-1.63v.8C613.88,220.46,613.11,221.24,611.94,221.24Zm6.63-10h-1.26v8.61c0,.43,0,.76,0,1,0,1,.59,1.22,1.32,1.22a6.58,6.58,0,0,0,.9-.06v-.91c-.69.07-.93-.09-.95-.59,0-.25,0-.5,0-.73Zm11.07,5.41a2.2,2.2,0,0,0,1.72-2.22c0-1.44-.9-2.25-2.5-2.47a9.79,9.79,0,0,0-1.32-.06h-3V222h3.27a8.16,8.16,0,0,0,1.29-.07,2.83,2.83,0,0,0,2.62-2.91A2.28,2.28,0,0,0,629.64,216.61Zm-3.82-3.72h1.82a7.68,7.68,0,0,1,.81,0,1.63,1.63,0,0,1,.13,3.24,4.55,4.55,0,0,1-.81.06h-1.95Zm2.89,8.05c-.19,0-.47,0-.7,0h-2.19v-3.72h2.1a6.85,6.85,0,0,1,.81.06,1.65,1.65,0,0,1,1.64,1.84A1.68,1.68,0,0,1,628.71,220.94Zm5.88-9.74h-1.26v8.61c0,.43,0,.76,0,1,0,1,.59,1.22,1.32,1.22a6.58,6.58,0,0,0,.9-.06v-.91c-.69.07-.92-.09-.95-.59,0-.25,0-.5,0-.73Zm5.65,2.8c-2.65,0-3.87,1.9-3.87,4.11s1.22,4.1,3.87,4.1,3.86-1.91,3.86-4.1S642.88,214,640.24,214Zm0,7.24c-1.58,0-2.49-1.31-2.49-3.13s.91-3.14,2.49-3.14,2.48,1.3,2.48,3.14S641.81,221.24,640.24,221.24Zm8.4-7.24c-1.95,0-3.66,1.49-3.66,4.12,0,2.85,1.5,4.09,3.47,4.09a3.21,3.21,0,0,0,3.41-2.69h-1.32a2,2,0,0,1-2,1.72c-1.16,0-2.16-.94-2.16-3.21,0-2.1,1-3.06,2.24-3.06,1,0,1.72.61,2,1.86h1.33A3.11,3.11,0,0,0,648.64,214Zm9.61,8H660l-3.68-4.12,3.63-3.67h-1.61l-3.63,3.92V211.2h-1.27V222h1.27v-2.48l.73-.81Zm3.47-10.35a.81.81,0,1,0,.81.81A.79.79,0,0,0,661.72,211.65Zm.64,10.35v-7.79h-1.27V222Zm8.79-5.72a2.47,2.47,0,0,0-2.78-2.28,3,3,0,0,0-2,.65l-.48.9v-1.34h-1.27V222h1.27v-3.42c0-2.67,1-3.58,2.25-3.58a1.6,1.6,0,0,1,1.78,1.59c0,.4,0,.72,0,1.12V222h1.26v-4.38C671.18,217,671.18,216.68,671.15,216.28Zm9-2.07h-1.26v1.07l-.51-.76a3.32,3.32,0,0,0-1.87-.52c-2,0-3.81,1.34-3.81,4.22,0,2.28,1.27,4,3.54,4a3.43,3.43,0,0,0,2.06-.62l.59-.84v.13c0,.24,0,.49,0,.85a2.24,2.24,0,0,1-2.44,2.39c-1.34,0-2.11-.67-2.21-1.62v-.13H672.9v.14c.16,1.65,1.27,2.58,3.49,2.58a3.33,3.33,0,0,0,3.7-3.49c0-.42,0-1,0-1.51Zm-3.71,7c-1.56,0-2.36-1.4-2.36-3.16,0-2.05,1.06-3.11,2.43-3.11,1.12,0,2.38.77,2.38,2.78v.43C678.85,220.41,677.69,221.24,676.4,221.24Zm-80.25,9.65v-1h-8.5v1h3.62V240h1.26v-9.11Zm1.72-1.24a.81.81,0,1,0,.81.81A.79.79,0,0,0,597.87,229.65ZM598.5,240v-7.79h-1.26V240Zm12.6-6.1a2.21,2.21,0,0,0-2.36-1.9,2.59,2.59,0,0,0-1.65.46l-.69,1a2.21,2.21,0,0,0-2.25-1.46,2.54,2.54,0,0,0-1.64.46l-.5.88v-1.13h-1.27V240H602v-3.85c0-2.37.72-3.15,1.7-3.15a1.41,1.41,0,0,1,1.56,1.31,14.58,14.58,0,0,1,.06,1.52V240h1.26v-3.85c0-2.37.72-3.15,1.71-3.15a1.41,1.41,0,0,1,1.56,1.31,15.14,15.14,0,0,1,0,1.52V240h1.27v-4.76A8,8,0,0,0,611.1,233.9Zm8.61,2c0-2.27-1.19-3.88-3.34-3.88s-3.7,1.61-3.7,4.13c0,2.75,1.51,4.08,3.54,4.08a3.2,3.2,0,0,0,3.4-2.72h-1.32a2,2,0,0,1-2,1.75c-1.15,0-2.12-.69-2.23-2.75h5.64A5.41,5.41,0,0,0,619.71,235.88ZM616.34,233c1.28,0,2,.93,2.09,2.55h-4.38C614.2,233.86,615.11,233,616.34,233Z"/><path class="cls-1" d="M517.54,213.72h-2.76a9.17,9.17,0,0,0-4.69,1.32l-6.24,3.63v5.41l7.75-4.16V239.8h5.94Zm14.11-.53c-7.48,0-10.43,5.1-10.43,13.57s2.95,13.57,10.43,13.57,10.43-5.18,10.43-13.57S539.1,213.19,531.65,213.19Zm0,22.75c-2.83,0-4.19-2.68-4.19-9.18s1.36-9.19,4.19-9.19,4.2,2.61,4.2,9.19S534.49,235.94,531.65,235.94Z"/><path class="cls-10" d="M544.1,203.8h0a9.45,9.45,0,0,1,9.45,9.45h0a9.45,9.45,0,0,1-9.45,9.45h0a9.45,9.45,0,0,1-9.45-9.45h0A9.45,9.45,0,0,1,544.1,203.8Z"/><path class="cls-15" d="M545.05,212a1.36,1.36,0,0,0-1.47-1.12,1.6,1.6,0,0,0-1,.26l-.45.6a1.38,1.38,0,0,0-1.39-.86,1.61,1.61,0,0,0-1,.26l-.34.56V211h-1.32v4.48h1.32v-2.33c0-.92.25-1.36.75-1.36a.67.67,0,0,1,.71.69,5.43,5.43,0,0,1,0,.69v2.31h1.31v-2.33c0-.92.25-1.36.75-1.36a.68.68,0,0,1,.71.69,5.39,5.39,0,0,1,0,.69v2.31h1.32v-2.65A6.18,6.18,0,0,0,545.05,212Zm3.41-1.12c-1.13,0-1.87.54-1.87,1.41s.55,1.14,1.39,1.35,1.08.37,1.08.68-.26.42-.58.42a.76.76,0,0,1-.76-.64h-1.3c.12,1,.91,1.49,2.06,1.49s1.89-.44,1.89-1.37-.55-1.2-1.41-1.42-1.05-.37-1.05-.67a.42.42,0,0,1,.47-.41c.32,0,.52.21.59.58h1.3A1.64,1.64,0,0,0,548.46,210.88Z"/><line class="cls-45" x1="570.88" y1="203.8" x2="570.88" y2="247.9"/><path class="cls-46" d="M696.15,11.31,694,7l-2.15,4.31a8,8,0,0,1-3.54,3.54L684,17l4.31,2.15a8,8,0,0,1,3.54,3.54L694,27l2.15-4.31a8,8,0,0,1,3.54-3.54L704,17l-4.31-2.15A8,8,0,0,1,696.15,11.31ZM694,19.41A2.41,2.41,0,1,0,691.59,17,2.41,2.41,0,0,0,694,19.41Z"/><path class="cls-46" d="M14.82,568.65,12,563l-2.82,5.65a7.83,7.83,0,0,1-3.53,3.53L0,575l5.65,2.82a7.83,7.83,0,0,1,3.53,3.53L12,587l2.82-5.65a7.83,7.83,0,0,1,3.53-3.53L24,575l-5.65-2.82A7.83,7.83,0,0,1,14.82,568.65ZM12,577.9A2.9,2.9,0,1,0,9.1,575,2.9,2.9,0,0,0,12,577.9Z"/></g></g></svg>